<?xml version="1.0" encoding="UTF-8" standalone="no"?>
<!DOCTYPE svg PUBLIC "-//W3C//DTD SVG 1.1//EN" "http://www.w3.org/Graphics/SVG/1.1/DTD/svg11.dtd">
<svg width="100%" height="100%" viewBox="0 0 596 478" version="1.1" xmlns="http://www.w3.org/2000/svg" xmlns:xlink="http://www.w3.org/1999/xlink" xml:space="preserve" xmlns:serif="http://www.serif.com/" style="fill-rule:evenodd;clip-rule:evenodd;stroke-linejoin:round;stroke-miterlimit:2;">
    <g transform="matrix(1,0,0,1,-4860.24,-574.105)">
        <g transform="matrix(0.883793,0,0,0.883793,4239.95,147.222)">
            <g transform="matrix(0.919094,0,0,0.919094,596.889,-202.317)">
                <g transform="matrix(0.796753,0.216089,-0.216089,0.796753,274.143,79.6715)">
                    <path d="M478.386,838.999C480.831,838.999 484.832,831.178 492.891,838.7C496.518,842.085 496.518,848.855 492.891,855.625C490.353,860.702 484.062,869.164 478.386,869.164C472.709,869.164 466.419,860.702 463.881,855.625C460.254,848.855 460.254,842.085 463.881,838.7C471.408,831.674 475.941,838.999 478.386,838.999Z" style="fill:rgb(20,23,56);"/>
                </g>
                <g>
                    <g transform="matrix(1.1509,0,0,1.00623,267.684,395.917)">
                        <path d="M396.889,659.558C386.69,659.779 377.574,653.554 377.574,653.554C378.019,660.886 386.467,669.089 408.448,665.311C440.68,659.779 446.441,640.434 446.663,633.763C446.885,622.868 433.577,603.558 398.663,611.107C360.899,619.087 351.116,641.769 349.115,658.446C347.336,675.097 362.9,687.113 362.9,687.113C362.9,687.113 339.777,685.555 316.686,697.756C282.01,716.203 274.691,751.104 278.466,773.112C283.561,801.752 310.904,827.53 341.778,823.752C374.017,819.752 396.667,791.086 398.218,769.11C399.553,747.103 380.464,738.877 380.464,738.877C442.022,733.765 454.221,702.865 455.107,693.543C455.996,680.215 448.459,674.875 441.355,673.317C434.24,671.982 433.35,675.987 433.35,675.987C433.35,675.987 448.459,676.21 444.023,691.991C437.798,714.202 416.229,725.984 377.129,730.208C354.229,732.653 319.354,737.766 323.135,765.776C324.022,773.334 329.341,779.101 332.887,780.203C338.665,782.419 342.223,777.78 342.223,777.78C333.33,778.661 332,766.22 334.886,760.218C342,746.436 360.232,737.544 375.573,743.101C383.799,745.769 388.024,752.215 388.246,763.775C388.468,779.762 373.127,807.086 346.447,814.197C314.684,822.863 285.334,803.53 286.663,762.441C289.332,688.222 376.018,693.543 376.018,693.543C383.577,699.308 394.673,699.975 400.442,698.643C406.223,697.091 406.89,690.883 400.22,689.109C390.462,686.223 372.016,687.336 372.016,687.336C372.016,687.336 360.01,681.995 358.676,667.087C354.674,624.869 408.224,616.198 414.45,616.419C422.68,616.864 437.8,616.864 437.135,632.207C436.246,652.22 407.114,659.113 396.889,659.558Z" style="fill:rgb(20,23,56);fill-opacity:0.6;fill-rule:nonzero;"/>
                    </g>
                    <g transform="matrix(1,0,0,1,-39.8163,-56.2816)">
                        <g transform="matrix(5.55556,0,0,5.55556,157.494,1035.62)">
                            <g>
                                <path d="M44.854,3.521C44.255,2.813 43.76,1.906 43.375,0.813C42.984,-0.281 42.693,-1.437 42.5,-2.646C42.318,-3.865 42.229,-5 42.229,-6.042C42.229,-8.135 42.443,-10 42.875,-11.625C43.302,-13.25 43.906,-14.781 44.688,-16.229C45.464,-17.687 46.339,-19.198 47.313,-20.771C46.339,-21.073 45.344,-21.151 44.333,-21C43.333,-20.844 42.313,-20.51 41.271,-20L40.833,-19.437C35.042,-12.047 29.698,-6.651 24.813,-3.25C19.922,0.151 15.146,1.667 10.479,1.292C6.896,0.984 4.146,-0.062 2.229,-1.854C0.323,-3.646 -0.625,-5.677 -0.625,-7.958C-0.651,-9.818 -0.031,-11.693 1.229,-13.583C2.505,-15.469 4.464,-17.156 7.104,-18.646C8.714,-19.547 10.443,-20.276 12.292,-20.833C14.135,-21.385 15.943,-21.729 17.708,-21.854C19.484,-21.99 21.068,-21.839 22.458,-21.396C23.276,-21.13 23.802,-20.734 24.042,-20.208C24.292,-19.693 24.318,-19.172 24.125,-18.646C23.943,-18.115 23.609,-17.719 23.125,-17.458C22.635,-17.208 22.063,-17.214 21.396,-17.479C18.672,-18.562 16.115,-19.083 13.729,-19.042C11.339,-19 9.208,-18.479 7.333,-17.479C4.943,-16.198 3.229,-14.635 2.188,-12.792C1.146,-10.943 0.714,-9.177 0.896,-7.5C1.073,-6.01 1.734,-4.74 2.875,-3.687C4.01,-2.646 5.594,-2.042 7.625,-1.875C9.667,-1.708 12.146,-2.167 15.063,-3.25C17.979,-4.333 21.313,-6.234 25.063,-8.958C28.813,-11.677 32.943,-15.448 37.458,-20.271C43.427,-26.615 48.74,-31.656 53.396,-35.396C58.047,-39.13 61.734,-41.312 64.458,-41.937C65.458,-42.156 66.219,-42.089 66.75,-41.729C67.276,-41.38 67.547,-40.906 67.563,-40.312C67.573,-39.714 67.318,-39.172 66.792,-38.687C66.276,-38.198 65.5,-37.979 64.458,-38.021C64.125,-38.021 63.771,-38.068 63.396,-38.167C63.021,-38.26 62.719,-38.193 62.5,-37.958C61.526,-37.026 60.448,-35.687 59.271,-33.937C58.104,-32.187 56.854,-30.229 55.521,-28.062C54.198,-25.896 52.813,-23.708 51.354,-21.5C50.005,-19.375 48.708,-17.396 47.458,-15.562C46.208,-13.74 45.214,-12.026 44.479,-10.417C43.755,-8.802 43.505,-7.276 43.729,-5.833C43.922,-4.708 44.292,-3.818 44.833,-3.167C45.375,-2.51 45.958,-1.958 46.583,-1.5C47.219,-1.052 47.781,-0.589 48.271,-0.104C49.089,0.672 49.479,1.422 49.438,2.146C49.406,2.88 49.13,3.464 48.604,3.896C48.089,4.323 47.469,4.542 46.75,4.542C46.042,4.542 45.406,4.198 44.854,3.521ZM42.625,-21.667C44.417,-22.193 46.151,-22.135 47.833,-21.5L48.542,-22.625C50.344,-25.427 52.339,-28.115 54.521,-30.687C56.698,-33.255 58.818,-35.609 60.875,-37.75C60.125,-38.417 58.859,-38.13 57.083,-36.896C55.318,-35.672 53.193,-33.734 50.708,-31.083C48.219,-28.427 45.526,-25.292 42.625,-21.667Z" style="fill:rgb(20,23,56);fill-rule:nonzero;"/>
                            </g>
                        </g>
                        <g transform="matrix(5.55556,0,0,5.55556,452.738,1035.62)">
                            <g>
                                <path d="M-1.563,-0.458C-2.13,-1.125 -2.281,-1.927 -2.021,-2.875C-1.755,-3.833 -1.271,-4.859 -0.563,-5.958C0.146,-7.068 0.854,-8.167 1.563,-9.25C2.354,-10.469 3.115,-11.698 3.854,-12.937C4.604,-14.172 5.427,-15.401 6.333,-16.625C6.667,-17.083 7.083,-17.354 7.583,-17.437C8.094,-17.531 8.563,-17.469 8.979,-17.25C9.406,-17.026 9.677,-16.672 9.792,-16.187C9.901,-15.698 9.719,-15.125 9.25,-14.458C8.901,-14 8.354,-13.417 7.604,-12.708C6.865,-12 6.052,-11.234 5.167,-10.417C4.292,-9.594 3.5,-8.776 2.792,-7.958C2.083,-7.135 1.594,-6.359 1.333,-5.625C1.083,-4.901 1.214,-4.276 1.729,-3.75C2.589,-2.927 3.906,-2.964 5.688,-3.854C7.464,-4.755 9.693,-6.625 12.375,-9.458L12.771,-9.292C11.49,-7.651 10.146,-6.135 8.729,-4.75C7.313,-3.375 5.927,-2.25 4.583,-1.375C3.25,-0.5 2.042,0.042 0.958,0.25C-0.125,0.458 -0.964,0.219 -1.563,-0.458Z" style="fill:rgb(20,23,56);fill-rule:nonzero;"/>
                            </g>
                        </g>
                        <g transform="matrix(5.55556,0,0,5.55556,510.916,1035.62)">
                            <g>
                                <path d="M10.917,-0.333C10.318,-0.969 10.042,-1.755 10.083,-2.687C10.125,-3.615 10.38,-4.604 10.854,-5.646C9.63,-4.198 8.344,-2.969 7,-1.958C5.651,-0.958 4.385,-0.312 3.208,-0.021C2.042,0.255 1.026,0.052 0.167,-0.625C-0.875,-1.469 -1.292,-2.552 -1.083,-3.875C-0.885,-5.208 -0.24,-6.63 0.854,-8.146C1.964,-9.656 3.281,-11.146 4.813,-12.604C6.339,-14.021 7.865,-15.146 9.396,-15.979C10.938,-16.823 12.318,-17.344 13.542,-17.542C14.776,-17.75 15.693,-17.615 16.292,-17.146C16.708,-16.839 16.943,-16.448 17,-15.979C17.052,-15.521 16.984,-15.026 16.792,-14.5C17.318,-15.135 17.802,-15.708 18.25,-16.208C18.708,-16.708 19.063,-17.146 19.313,-17.521C19.797,-18.115 20.427,-18.937 21.208,-19.979C22,-21.031 22.859,-22.187 23.792,-23.437C24.734,-24.687 25.651,-25.922 26.542,-27.146C27.443,-28.38 28.26,-29.49 29,-30.479C29.75,-31.479 30.313,-32.219 30.688,-32.708C31.281,-33.484 31.885,-33.906 32.5,-33.979C33.125,-34.062 33.651,-33.922 34.083,-33.562C34.51,-33.214 34.734,-32.74 34.75,-32.146C34.76,-31.547 34.458,-30.948 33.833,-30.354C33.234,-29.797 32.193,-28.833 30.708,-27.458C29.234,-26.094 27.573,-24.469 25.729,-22.583C23.88,-20.708 22.094,-18.708 20.375,-16.583C18.885,-14.708 17.552,-12.922 16.375,-11.229C15.208,-9.531 14.385,-8.042 13.917,-6.75C13.443,-5.458 13.49,-4.479 14.063,-3.812C14.771,-2.99 16.063,-3.005 17.938,-3.854C19.823,-4.714 22.151,-6.625 24.917,-9.583L25.313,-9.417C24.073,-7.802 22.755,-6.302 21.354,-4.917C19.964,-3.542 18.604,-2.385 17.271,-1.458C15.948,-0.526 14.729,0.052 13.604,0.292C12.49,0.542 11.594,0.333 10.917,-0.333ZM4.146,-3.75C4.74,-3.083 5.51,-2.943 6.458,-3.333C7.417,-3.719 8.422,-4.417 9.479,-5.417C10.547,-6.427 11.547,-7.521 12.479,-8.687C12.896,-9.312 13.323,-9.948 13.771,-10.604C14.229,-11.255 14.693,-11.88 15.167,-12.479C15.583,-13.115 15.854,-13.755 15.979,-14.396C16.115,-15.031 16,-15.479 15.625,-15.729C15.026,-16.214 14.25,-16.359 13.292,-16.167C12.344,-15.984 11.333,-15.547 10.25,-14.854C9.167,-14.172 8.135,-13.344 7.167,-12.375C6.193,-11.401 5.365,-10.375 4.688,-9.292C4.021,-8.208 3.609,-7.177 3.458,-6.208C3.318,-5.234 3.547,-4.417 4.146,-3.75Z" style="fill:rgb(20,23,56);fill-rule:nonzero;"/>
                            </g>
                        </g>
                        <g transform="matrix(5.55556,0,0,5.55556,638.782,1035.62)">
                            <g>
                                <path d="M0.167,-0.667C-0.875,-1.526 -1.292,-2.615 -1.083,-3.937C-0.885,-5.271 -0.24,-6.693 0.854,-8.208C1.964,-9.719 3.281,-11.198 4.813,-12.646C6.339,-14.073 7.865,-15.208 9.396,-16.042C10.938,-16.885 12.318,-17.406 13.542,-17.604C14.776,-17.812 15.693,-17.672 16.292,-17.187C16.776,-16.812 17.021,-16.292 17.021,-15.625C17.13,-15.802 17.24,-15.984 17.354,-16.167C17.464,-16.359 17.594,-16.531 17.75,-16.687C18.083,-17.172 18.51,-17.448 19.042,-17.521C19.568,-17.604 20.042,-17.521 20.458,-17.271C20.885,-17.031 21.156,-16.656 21.271,-16.146C21.396,-15.646 21.193,-15.062 20.667,-14.396C20.333,-13.948 19.797,-13.385 19.063,-12.708C18.339,-12.042 17.552,-11.312 16.708,-10.521C15.875,-9.74 15.104,-8.958 14.396,-8.167C13.688,-7.385 13.172,-6.646 12.854,-5.937C12.531,-5.229 12.563,-4.609 12.938,-4.083C13.688,-3 15.01,-2.901 16.917,-3.792C18.818,-4.693 21.13,-6.604 23.854,-9.521L24.25,-9.292C22.984,-7.609 21.651,-6.073 20.25,-4.687C18.844,-3.312 17.469,-2.187 16.125,-1.312C14.776,-0.437 13.563,0.089 12.479,0.271C11.396,0.464 10.542,0.208 9.917,-0.5C9.427,-1.068 9.255,-1.74 9.396,-2.521C9.547,-3.297 9.865,-4.135 10.354,-5.042C9.13,-3.693 7.885,-2.568 6.625,-1.667C5.375,-0.776 4.188,-0.229 3.063,-0.021C1.948,0.172 0.984,-0.042 0.167,-0.667ZM4.146,-3.812C4.63,-3.24 5.234,-3.062 5.958,-3.271C6.693,-3.479 7.469,-3.917 8.292,-4.583C9.109,-5.26 9.948,-6.042 10.813,-6.917C11.672,-7.792 12.458,-8.625 13.167,-9.417C13.651,-10.151 14.094,-10.875 14.5,-11.583C14.917,-12.292 15.344,-13.005 15.792,-13.729C16.094,-14.437 16.214,-15 16.146,-15.417C16.089,-15.844 15.917,-16.193 15.625,-16.458C15.068,-16.943 14.229,-16.979 13.104,-16.562C11.979,-16.156 10.792,-15.479 9.542,-14.521C8.292,-13.573 7.177,-12.526 6.208,-11.375C5.052,-10.026 4.219,-8.651 3.708,-7.25C3.208,-5.844 3.354,-4.698 4.146,-3.812Z" style="fill:rgb(20,23,56);fill-rule:nonzero;"/>
                            </g>
                        </g>
                        <g transform="matrix(5.55556,0,0,5.55556,759.494,1035.62)">
                            <g>
                                <path d="M7.729,-0.562C7.063,-1.312 6.813,-2.13 6.979,-3.021C7.146,-3.922 7.563,-4.854 8.229,-5.812C8.906,-6.781 9.688,-7.734 10.563,-8.667C11.438,-9.609 12.26,-10.49 13.042,-11.312C13.833,-12.13 14.427,-12.839 14.833,-13.437C15.25,-14.031 15.292,-14.484 14.958,-14.792C14.5,-15.234 13.813,-15.198 12.896,-14.687C11.99,-14.187 10.979,-13.396 9.854,-12.312C8.729,-11.229 7.568,-10.021 6.375,-8.687C5.068,-7.229 3.823,-5.771 2.646,-4.312C1.479,-2.854 0.521,-1.693 -0.229,-0.833C-0.781,-0.167 -1.385,0.125 -2.042,0.042C-2.693,-0.026 -3.156,-0.344 -3.438,-0.917C-3.714,-1.5 -3.594,-2.167 -3.083,-2.917C-2.75,-3.359 -2.26,-3.99 -1.625,-4.812C-0.984,-5.63 -0.323,-6.505 0.354,-7.437C1.047,-8.38 1.635,-9.208 2.125,-9.917C2.875,-11.026 3.448,-11.906 3.854,-12.562C4.271,-13.214 4.635,-13.812 4.958,-14.354C5.276,-14.896 5.656,-15.526 6.104,-16.25C6.521,-16.917 7.005,-17.333 7.563,-17.5C8.115,-17.667 8.609,-17.635 9.042,-17.417C9.469,-17.193 9.719,-16.818 9.792,-16.292C9.875,-15.776 9.651,-15.177 9.125,-14.5C8.417,-13.568 7.448,-12.568 6.229,-11.5C5.021,-10.443 3.917,-9.276 2.917,-8C2.167,-7.068 1.531,-6.25 1.021,-5.542C0.521,-4.833 0.401,-4.385 0.667,-4.208C0.885,-4.052 1.302,-4.292 1.917,-4.917C2.542,-5.552 3.297,-6.401 4.188,-7.458C5.089,-8.526 6.005,-9.589 6.938,-10.646C7.906,-11.729 8.896,-12.781 9.896,-13.812C10.906,-14.839 11.885,-15.714 12.833,-16.437C13.792,-17.156 14.698,-17.625 15.563,-17.833C16.422,-18.042 17.172,-17.844 17.813,-17.25C18.406,-16.693 18.63,-16 18.479,-15.167C18.323,-14.344 17.943,-13.469 17.333,-12.542C16.719,-11.609 16.021,-10.656 15.229,-9.687C14.448,-8.714 13.714,-7.797 13.021,-6.937C12.323,-6.073 11.818,-5.312 11.5,-4.646C11.193,-3.979 11.208,-3.479 11.542,-3.146C12.026,-2.687 12.844,-2.625 14,-2.958C15.151,-3.302 16.49,-4.026 18.021,-5.125C19.563,-6.219 21.13,-7.63 22.729,-9.354L23.063,-9.021C21.729,-7.49 20.313,-6.052 18.813,-4.708C17.323,-3.359 15.859,-2.234 14.417,-1.333C12.984,-0.443 11.677,0.089 10.5,0.271C9.318,0.464 8.396,0.188 7.729,-0.562Z" style="fill:rgb(20,23,56);fill-rule:nonzero;"/>
                            </g>
                        </g>
                        <g transform="matrix(5.55556,0,0,5.55556,154.017,1380.54)">
                            <g>
                                <path d="M12.104,1.167C11.797,1.542 11.438,1.667 11.021,1.542C10.615,1.417 10.604,1.089 10.979,0.563C14.448,-4.172 17.792,-8.573 21,-12.646C24.208,-16.714 27.443,-20.615 30.708,-24.354C33.984,-28.089 37.417,-31.792 41,-35.458C38.901,-35.458 36.74,-35.708 34.521,-36.208C32.297,-36.708 30.052,-37.292 27.792,-37.958C25.542,-38.635 23.333,-39.234 21.167,-39.75C19,-40.276 16.938,-40.547 14.979,-40.562C13.021,-40.589 11.219,-40.208 9.583,-39.417C7.75,-38.526 6.333,-37.219 5.333,-35.5C4.344,-33.792 3.896,-31.719 3.979,-29.292C4.047,-27.76 4.5,-26.401 5.333,-25.208C6.177,-24.01 7.25,-23.089 8.542,-22.437C9.833,-21.781 11.146,-21.469 12.479,-21.5C13.672,-21.542 14.792,-21.917 15.833,-22.625C16.885,-23.333 17.74,-24.448 18.396,-25.979C19.047,-27.505 19.375,-29.526 19.375,-32.042C19.375,-32.818 19.573,-33.38 19.979,-33.729C20.396,-34.089 20.854,-34.24 21.354,-34.187C21.865,-34.13 22.276,-33.875 22.583,-33.417C22.901,-32.969 22.99,-32.323 22.854,-31.479C22.396,-29.005 21.589,-26.984 20.438,-25.417C19.281,-23.844 17.922,-22.672 16.354,-21.896C14.781,-21.115 13.156,-20.667 11.479,-20.542C9.573,-20.469 7.74,-20.792 5.979,-21.5C4.229,-22.208 2.792,-23.25 1.667,-24.625C0.552,-26.01 0,-27.646 0,-29.521C0,-31.714 0.844,-33.687 2.542,-35.437C4.25,-37.198 6.313,-38.714 8.729,-39.979C11.422,-41.365 14.073,-42.198 16.688,-42.479C19.297,-42.755 21.823,-42.677 24.271,-42.25C26.714,-41.818 29.026,-41.208 31.208,-40.417C33.401,-39.635 35.422,-38.875 37.271,-38.125C39.115,-37.385 40.729,-36.854 42.104,-36.521C43.563,-36.172 45.156,-36.146 46.896,-36.437C48.63,-36.74 50.359,-37.25 52.083,-37.958C52.719,-38.219 53.234,-38.229 53.625,-37.979C54.01,-37.74 54.24,-37.38 54.313,-36.896C54.396,-36.406 54.276,-35.943 53.958,-35.5C53.635,-35.052 53.068,-34.755 52.25,-34.604C50.677,-34.339 49.083,-34.344 47.458,-34.625C45.833,-34.917 44.276,-35.172 42.792,-35.396C39.651,-32.255 36.734,-28.948 34.042,-25.479C31.359,-22.005 28.719,-18.24 26.125,-14.187C23.526,-10.146 20.755,-5.635 17.813,-0.667C17.547,-0.219 17.188,0.026 16.729,0.083C16.281,0.135 15.792,0.146 15.25,0.104C14.719,0.073 14.172,0.115 13.604,0.229C13.047,0.339 12.547,0.651 12.104,1.167Z" style="fill:rgb(20,23,56);fill-rule:nonzero;"/>
                            </g>
                        </g>
                        <g transform="matrix(5.55556,0,0,5.55556,331.661,1380.54)">
                            <g>
                                <path d="M7.5,-0.396C6.833,-1.146 6.563,-1.969 6.688,-2.875C6.823,-3.792 7.198,-4.734 7.813,-5.708C8.422,-6.677 9.146,-7.63 9.979,-8.562C10.823,-9.49 11.625,-10.365 12.375,-11.187C13.125,-12.021 13.693,-12.74 14.083,-13.354C14.469,-13.964 14.521,-14.422 14.229,-14.729C13.854,-15.146 13.24,-15.042 12.396,-14.417C11.563,-13.802 10.526,-12.859 9.292,-11.583C8.208,-10.469 7.073,-9.234 5.896,-7.875C4.729,-6.51 3.635,-5.198 2.625,-3.937C1.625,-2.687 0.802,-1.651 0.167,-0.833C-0.385,-0.167 -1.021,0.172 -1.729,0.188C-2.438,0.214 -2.979,-0.01 -3.354,-0.5C-3.729,-0.984 -3.714,-1.625 -3.313,-2.417C-3.047,-2.901 -2.844,-3.255 -2.708,-3.479C-2.583,-3.698 -2.365,-4.01 -2.063,-4.417C-1.771,-4.833 -1.271,-5.505 -0.563,-6.437C0.146,-7.365 1.177,-8.734 2.542,-10.542C3.901,-12.359 5.719,-14.797 8,-17.854C8.458,-18.49 9.073,-19.333 9.854,-20.375C10.646,-21.427 11.49,-22.589 12.396,-23.854C13.313,-25.115 14.229,-26.354 15.146,-27.562C16.063,-28.781 16.885,-29.88 17.625,-30.854C18.375,-31.823 18.979,-32.552 19.438,-33.042C20.172,-33.818 20.901,-34.156 21.625,-34.062C22.359,-33.979 22.859,-33.615 23.125,-32.979C23.385,-32.354 23.188,-31.589 22.521,-30.687C22.214,-30.312 21.38,-29.505 20.021,-28.271C18.656,-27.047 17.026,-25.5 15.125,-23.625C13.219,-21.76 11.297,-19.656 9.354,-17.312C9.089,-16.964 8.615,-16.354 7.938,-15.479C7.271,-14.604 6.526,-13.625 5.708,-12.542C4.885,-11.458 4.125,-10.375 3.417,-9.292C2.708,-8.208 2.167,-7.281 1.792,-6.521C1.417,-5.755 1.359,-5.281 1.625,-5.104C1.802,-4.948 2.167,-5.146 2.708,-5.687C3.25,-6.229 3.88,-6.917 4.604,-7.75C5.339,-8.594 6.068,-9.458 6.792,-10.333C7.526,-11.208 8.135,-11.906 8.625,-12.437C9.927,-13.812 11.083,-14.984 12.083,-15.958C13.094,-16.927 14.021,-17.552 14.854,-17.833C15.698,-18.109 16.5,-17.917 17.25,-17.25C17.776,-16.76 17.948,-16.135 17.771,-15.375C17.604,-14.609 17.229,-13.755 16.646,-12.812C16.073,-11.88 15.417,-10.927 14.667,-9.958C13.917,-9 13.219,-8.068 12.583,-7.167C11.958,-6.276 11.505,-5.49 11.229,-4.812C10.948,-4.146 10.979,-3.646 11.313,-3.312C11.797,-2.854 12.609,-2.781 13.75,-3.104C14.885,-3.422 16.214,-4.125 17.729,-5.208C19.24,-6.292 20.797,-7.693 22.396,-9.417L22.854,-9.187C21.505,-7.656 20.083,-6.198 18.583,-4.812C17.094,-3.437 15.63,-2.276 14.188,-1.333C12.755,-0.401 11.448,0.172 10.271,0.396C9.104,0.615 8.177,0.354 7.5,-0.396Z" style="fill:rgb(20,23,56);fill-rule:nonzero;"/>
                            </g>
                        </g>
                        <g transform="matrix(5.55556,0,0,5.55556,447.395,1380.54)">
                            <g>
                                <path d="M2.188,-0.396C0.906,-1.255 0.193,-2.344 0.042,-3.667C-0.094,-4.984 0.146,-6.396 0.771,-7.896C1.406,-9.396 2.313,-10.812 3.479,-12.146C4.672,-13.562 6.005,-14.755 7.479,-15.729C8.948,-16.698 10.375,-17.302 11.75,-17.542C13.135,-17.792 14.24,-17.562 15.063,-16.854C15.615,-16.365 15.844,-15.656 15.75,-14.729C15.667,-13.797 15.297,-12.797 14.646,-11.729C13.99,-10.672 13.104,-9.667 11.979,-8.708C10.865,-7.75 9.526,-7.026 7.958,-6.542C7.25,-6.318 6.677,-6.344 6.25,-6.625C5.818,-6.917 5.552,-7.302 5.458,-7.792C5.359,-8.276 5.443,-8.714 5.708,-9.104C5.969,-9.49 6.438,-9.687 7.104,-9.687C8.896,-9.687 10.339,-9.958 11.438,-10.5C12.547,-11.042 13.375,-11.714 13.917,-12.521C14.458,-13.323 14.729,-14.094 14.729,-14.833C14.729,-15.583 14.521,-16.146 14.104,-16.521C13.615,-17.005 12.984,-17.115 12.208,-16.854C11.427,-16.589 10.589,-16.089 9.688,-15.354C8.797,-14.63 7.938,-13.792 7.104,-12.833C6.323,-11.927 5.667,-10.943 5.125,-9.875C4.583,-8.818 4.271,-7.781 4.188,-6.771C4.115,-5.771 4.365,-4.859 4.938,-4.042C5.714,-2.984 6.76,-2.51 8.083,-2.625C9.417,-2.734 10.922,-3.333 12.604,-4.417C14.281,-5.5 16.031,-6.958 17.854,-8.792L18.208,-8.458C17.26,-7.219 16.115,-5.964 14.771,-4.687C13.438,-3.422 12.01,-2.333 10.5,-1.417C8.984,-0.51 7.5,0.068 6.042,0.333C4.583,0.594 3.297,0.354 2.188,-0.396Z" style="fill:rgb(20,23,56);fill-rule:nonzero;"/>
                            </g>
                        </g>
                        <g transform="matrix(5.55556,0,0,5.55556,540.417,1380.54)">
                            <g>
                                <path d="M0.667,-0.229C-0.417,-1.089 -0.938,-2.172 -0.896,-3.479C-0.854,-4.781 -0.406,-6.198 0.438,-7.729C1.297,-9.255 2.422,-10.781 3.813,-12.312C5.188,-13.854 6.604,-15.089 8.063,-16.021C9.521,-16.948 10.88,-17.526 12.146,-17.75C13.422,-17.969 14.448,-17.771 15.229,-17.146C16.354,-16.281 16.729,-14.885 16.354,-12.958C15.979,-11.042 15.026,-9.031 13.5,-6.937C13.76,-6.531 14.281,-6.312 15.063,-6.271C15.854,-6.229 16.813,-6.51 17.938,-7.125C19.073,-7.75 20.26,-8.771 21.5,-10.187L21.833,-9.854C20.458,-8.062 19.172,-6.755 17.979,-5.937C16.781,-5.115 15.677,-4.656 14.667,-4.562C13.667,-4.464 12.755,-4.604 11.938,-4.979C10.615,-3.49 9.229,-2.276 7.771,-1.333C6.323,-0.401 4.979,0.156 3.729,0.354C2.479,0.563 1.458,0.365 0.667,-0.229ZM3.813,-3.979C4.672,-3.271 5.74,-3.083 7.021,-3.417C8.313,-3.75 9.63,-4.49 10.979,-5.646C10.781,-5.88 10.583,-6.193 10.375,-6.583C10.177,-6.969 10.115,-7.479 10.188,-8.104C10.271,-8.74 10.589,-9.479 11.146,-10.312C11.74,-11.156 12.292,-11.672 12.792,-11.854C13.292,-12.047 13.734,-12.062 14.125,-11.896C14.526,-11.729 14.818,-11.531 15,-11.312C15.375,-12.323 15.526,-13.219 15.458,-14C15.385,-14.776 15.146,-15.354 14.729,-15.729C14.13,-16.255 13.365,-16.49 12.438,-16.437C11.505,-16.38 10.531,-16.062 9.521,-15.479C8.505,-14.906 7.573,-14.115 6.729,-13.104C5.755,-11.948 4.943,-10.76 4.292,-9.542C3.635,-8.333 3.25,-7.229 3.125,-6.229C3.01,-5.24 3.24,-4.49 3.813,-3.979Z" style="fill:rgb(20,23,56);fill-rule:nonzero;"/>
                            </g>
                        </g>
                    </g>
                </g>
            </g>
        </g>
    </g>
</svg>
