<?xml version="1.0" encoding="utf-8"?>
<!DOCTYPE svg PUBLIC "-//W3C//DTD SVG 1.1//EN" "http://www.w3.org/Graphics/SVG/1.1/DTD/svg11.dtd">
<svg version="1.1" id="Layer_1" xmlns="http://www.w3.org/2000/svg" xmlns:xlink="http://www.w3.org/1999/xlink" x="0px" y="0px"
width="2112px" height="2112px" viewBox="0 0 2112 2112" enable-background="new 0 0 2112 2112" xml:space="preserve">
<rect x="0" y="0" width="2112" height="2112" fill="rgb(255,255,255)" /><g transform="translate(128,128)"><g transform="translate(704,0) scale(0.128,0.128)"><g transform="" style="fill: rgb(20, 23, 56);">
<g>
	<path d="M0,500h500V0C223.861,0.001,0,223.854,0,500z"/>
</g>
</g></g><g transform="translate(768,0) scale(0.64,0.64)"><g transform="" style="fill: rgb(20, 23, 56);">
<rect width="100" height="100"/>
</g></g><g transform="translate(832,0) scale(0.128,0.128)"><g transform="" style="fill: rgb(20, 23, 56);">
<g>
	<path d="M0,0v500h500C500,223.853,276.142,0,0,0z"/>
</g>
</g></g><g transform="translate(1024,0) scale(0.128,0.128)"><g transform="" style="fill: rgb(20, 23, 56);">
<path d="M250,0c58.27,0,250,0,250,0s0,170.182,0,250c0,62.305,0,250,0,250s-174.219,0-250,0
	C111.881,500,0,388.021,0,250C0,111.963,111.881,0,250,0z"/>
</g></g><g transform="translate(1088,0) scale(0.64,0.64)"><g transform="" style="fill: rgb(20, 23, 56);">
<rect width="100" height="100"/>
</g></g><g transform="translate(1152,0) scale(0.64,0.64)"><g transform="" style="fill: rgb(20, 23, 56);">
<rect width="100" height="100"/>
</g></g><g transform="translate(1216,0) scale(0.128,0.128)"><g transform="" style="fill: rgb(20, 23, 56);">
<path d="M250,500c-58.271,0-250,0-250,0s0-170.207,0-250C0,187.676,0,0,0,0s174.261,0,250,0c138.064,0,250,111.929,250,250
	C500,388.064,388.064,500,250,500z"/>
</g></g><g transform="translate(576,64) scale(0.128,0.128)"><g transform="" style="fill: rgb(20, 23, 56);">
<path d="M250,0c138.077,0,250,111.93,250,250c0,138.077-111.923,250-250,250C111.93,500,0,388.077,0,250C0,111.93,111.93,0,250,0z"
	/>
</g></g><g transform="translate(704,64) scale(0.128,0.128)"><g transform="" style="fill: rgb(20, 23, 56);">
<g>
	<path d="M500,500V0H0C0.001,276.142,223.853,500,500,500z"/>
</g>
</g></g><g transform="translate(768,64) scale(0.64,0.64)"><g transform="" style="fill: rgb(20, 23, 56);">
<rect width="100" height="100"/>
</g></g><g transform="translate(832,64) scale(0.64,0.64)"><g transform="" style="fill: rgb(20, 23, 56);">
<rect width="100" height="100"/>
</g></g><g transform="translate(896,64) scale(0.64,0.64)"><g transform="" style="fill: rgb(20, 23, 56);">
<rect width="100" height="100"/>
</g></g><g transform="translate(960,64) scale(0.128,0.128)"><g transform="" style="fill: rgb(20, 23, 56);">
<path d="M250,500c-58.271,0-250,0-250,0s0-170.207,0-250C0,187.676,0,0,0,0s174.261,0,250,0c138.064,0,250,111.929,250,250
	C500,388.064,388.064,500,250,500z"/>
</g></g><g transform="translate(1152,64) scale(0.128,0.128)"><g transform="" style="fill: rgb(20, 23, 56);">
<path d="M0,250C0,191.729,0,0,0,0s170.201,0,250,0c62.324,0,250,0,250,0s0,174.261,0,250c0,138.064-111.936,250-250,250
	C111.929,500,0,388.064,0,250z"/>
</g></g><g transform="translate(640,128) scale(0.128,0.128)"><g transform="" style="fill: rgb(20, 23, 56);">
<path d="M250,0c138.077,0,250,111.93,250,250c0,138.077-111.923,250-250,250C111.93,500,0,388.077,0,250C0,111.93,111.93,0,250,0z"
	/>
</g></g><g transform="translate(832,128) scale(0.64,0.64)"><g transform="" style="fill: rgb(20, 23, 56);">
<rect width="100" height="100"/>
</g></g><g transform="translate(1024,128) scale(0.128,0.128)"><g transform="" style="fill: rgb(20, 23, 56);">
<path d="M250,0c58.27,0,250,0,250,0s0,170.182,0,250c0,62.305,0,250,0,250s-174.219,0-250,0
	C111.881,500,0,388.021,0,250C0,111.963,111.881,0,250,0z"/>
</g></g><g transform="translate(1088,128) scale(0.128,0.128)"><g transform="" style="fill: rgb(20, 23, 56);">
<path d="M250,500c-58.271,0-250,0-250,0s0-170.207,0-250C0,187.676,0,0,0,0s174.261,0,250,0c138.064,0,250,111.929,250,250
	C500,388.064,388.064,500,250,500z"/>
</g></g><g transform="translate(576,192) scale(0.128,0.128)"><g transform="" style="fill: rgb(20, 23, 56);">
<path d="M500,250c0,58.266,0,250,0,250s-170.194,0-250-0.012c-62.324,0.012-250,0-250,0s0-174.241,0-249.994
	C0.006,111.931,111.929,0,249.994,0C388.064,0,500,111.93,500,250z"/>
</g></g><g transform="translate(768,192) scale(0.128,0.128)"><g transform="" style="fill: rgb(20, 23, 56);">
<path d="M250,0c58.27,0,250,0,250,0s0,170.182,0,250c0,62.305,0,250,0,250s-174.219,0-250,0
	C111.881,500,0,388.021,0,250C0,111.963,111.881,0,250,0z"/>
</g></g><g transform="translate(832,192) scale(0.64,0.64)"><g transform="" style="fill: rgb(20, 23, 56);">
<rect width="100" height="100"/>
</g></g><g transform="translate(896,192) scale(0.64,0.64)"><g transform="" style="fill: rgb(20, 23, 56);">
<rect width="100" height="100"/>
</g></g><g transform="translate(960,192) scale(0.128,0.128)"><g transform="" style="fill: rgb(20, 23, 56);">
<path d="M250,500c-58.271,0-250,0-250,0s0-170.207,0-250C0,187.676,0,0,0,0s174.261,0,250,0c138.064,0,250,111.929,250,250
	C500,388.064,388.064,500,250,500z"/>
</g></g><g transform="translate(1152,192) scale(0.128,0.128)"><g transform="" style="fill: rgb(20, 23, 56);">
<path d="M250,0c138.077,0,250,111.93,250,250c0,138.077-111.923,250-250,250C111.93,500,0,388.077,0,250C0,111.93,111.93,0,250,0z"
	/>
</g></g><g transform="translate(576,256) scale(0.64,0.64)"><g transform="" style="fill: rgb(20, 23, 56);">
<rect width="100" height="100"/>
</g></g><g transform="translate(640,256) scale(0.64,0.64)"><g transform="" style="fill: rgb(20, 23, 56);">
<rect width="100" height="100"/>
</g></g><g transform="translate(704,256) scale(0.128,0.128)"><g transform="" style="fill: rgb(20, 23, 56);">
<g>
	<path d="M0,0v500h500C500,223.853,276.142,0,0,0z"/>
</g>
</g></g><g transform="translate(832,256) scale(0.64,0.64)"><g transform="" style="fill: rgb(20, 23, 56);">
<rect width="100" height="100"/>
</g></g><g transform="translate(896,256) scale(0.64,0.64)"><g transform="" style="fill: rgb(20, 23, 56);">
<rect width="100" height="100"/>
</g></g><g transform="translate(1024,256) scale(0.128,0.128)"><g transform="" style="fill: rgb(20, 23, 56);">
<path d="M250,0c138.077,0,250,111.93,250,250c0,138.077-111.923,250-250,250C111.93,500,0,388.077,0,250C0,111.93,111.93,0,250,0z"
	/>
</g></g><g transform="translate(512,320) scale(0.128,0.128)"><g transform="" style="fill: rgb(20, 23, 56);">
<g>
	<path d="M0,500h500V0C223.861,0.001,0,223.854,0,500z"/>
</g>
</g></g><g transform="translate(576,320) scale(0.128,0.128)"><g transform="" style="fill: rgb(20, 23, 56);">
<g>
	<path d="M500,0H0v500C276.142,500,500,276.142,500,0z"/>
</g>
</g></g><g transform="translate(704,320) scale(0.128,0.128)"><g transform="" style="fill: rgb(20, 23, 56);">
<path d="M0,250C0,191.729,0,0,0,0s170.201,0,250,0c62.324,0,250,0,250,0s0,174.261,0,250c0,138.064-111.936,250-250,250
	C111.929,500,0,388.064,0,250z"/>
</g></g><g transform="translate(832,320) scale(0.128,0.128)"><g transform="" style="fill: rgb(20, 23, 56);">
<g>
	<path d="M500,500V0H0C0.001,276.142,223.853,500,500,500z"/>
</g>
</g></g><g transform="translate(896,320) scale(0.64,0.64)"><g transform="" style="fill: rgb(20, 23, 56);">
<rect width="100" height="100"/>
</g></g><g transform="translate(1088,320) scale(0.128,0.128)"><g transform="" style="fill: rgb(20, 23, 56);">
<path d="M250,0c138.077,0,250,111.93,250,250c0,138.077-111.923,250-250,250C111.93,500,0,388.077,0,250C0,111.93,111.93,0,250,0z"
	/>
</g></g><g transform="translate(1216,320) scale(0.128,0.128)"><g transform="" style="fill: rgb(20, 23, 56);">
<path d="M250,0c58.27,0,250,0,250,0s0,170.182,0,250c0,62.305,0,250,0,250s-174.219,0-250,0
	C111.881,500,0,388.021,0,250C0,111.963,111.881,0,250,0z"/>
</g></g><g transform="translate(1280,320) scale(0.128,0.128)"><g transform="" style="fill: rgb(20, 23, 56);">
<g>
	<path d="M0,0v500h500C500,223.853,276.142,0,0,0z"/>
</g>
</g></g><g transform="translate(512,384) scale(0.128,0.128)"><g transform="" style="fill: rgb(20, 23, 56);">
<path d="M0,250C0,191.729,0,0,0,0s170.201,0,250,0c62.324,0,250,0,250,0s0,174.261,0,250c0,138.064-111.936,250-250,250
	C111.929,500,0,388.064,0,250z"/>
</g></g><g transform="translate(640,384) scale(0.128,0.128)"><g transform="" style="fill: rgb(20, 23, 56);">
<path d="M250,0c138.077,0,250,111.93,250,250c0,138.077-111.923,250-250,250C111.93,500,0,388.077,0,250C0,111.93,111.93,0,250,0z"
	/>
</g></g><g transform="translate(768,384) scale(0.128,0.128)"><g transform="" style="fill: rgb(20, 23, 56);">
<path d="M250,0c138.077,0,250,111.93,250,250c0,138.077-111.923,250-250,250C111.93,500,0,388.077,0,250C0,111.93,111.93,0,250,0z"
	/>
</g></g><g transform="translate(896,384) scale(0.64,0.64)"><g transform="" style="fill: rgb(20, 23, 56);">
<rect width="100" height="100"/>
</g></g><g transform="translate(1024,384) scale(0.128,0.128)"><g transform="" style="fill: rgb(20, 23, 56);">
<path d="M250,0c138.077,0,250,111.93,250,250c0,138.077-111.923,250-250,250C111.93,500,0,388.077,0,250C0,111.93,111.93,0,250,0z"
	/>
</g></g><g transform="translate(1152,384) scale(0.128,0.128)"><g transform="" style="fill: rgb(20, 23, 56);">
<path d="M250,0c138.077,0,250,111.93,250,250c0,138.077-111.923,250-250,250C111.93,500,0,388.077,0,250C0,111.93,111.93,0,250,0z"
	/>
</g></g><g transform="translate(1280,384) scale(0.64,0.64)"><g transform="" style="fill: rgb(20, 23, 56);">
<rect width="100" height="100"/>
</g></g><g transform="translate(576,448) scale(0.128,0.128)"><g transform="" style="fill: rgb(20, 23, 56);">
<path d="M250,0c138.077,0,250,111.93,250,250c0,138.077-111.923,250-250,250C111.93,500,0,388.077,0,250C0,111.93,111.93,0,250,0z"
	/>
</g></g><g transform="translate(896,448) scale(0.128,0.128)"><g transform="" style="fill: rgb(20, 23, 56);">
<path d="M0,250C0,191.729,0,0,0,0s170.201,0,250,0c62.324,0,250,0,250,0s0,174.261,0,250c0,138.064-111.936,250-250,250
	C111.929,500,0,388.064,0,250z"/>
</g></g><g transform="translate(1088,448) scale(0.128,0.128)"><g transform="" style="fill: rgb(20, 23, 56);">
<path d="M250,0c138.077,0,250,111.93,250,250c0,138.077-111.923,250-250,250C111.93,500,0,388.077,0,250C0,111.93,111.93,0,250,0z"
	/>
</g></g><g transform="translate(1280,448) scale(0.64,0.64)"><g transform="" style="fill: rgb(20, 23, 56);">
<rect width="100" height="100"/>
</g></g><g transform="translate(0,512) scale(0.128,0.128)"><g transform="" style="fill: rgb(20, 23, 56);">
<path d="M500,250c0,58.266,0,250,0,250s-170.194,0-250-0.012c-62.324,0.012-250,0-250,0s0-174.241,0-249.994
	C0.006,111.931,111.929,0,249.994,0C388.064,0,500,111.93,500,250z"/>
</g></g><g transform="translate(192,512) scale(0.128,0.128)"><g transform="" style="fill: rgb(20, 23, 56);">
<path d="M500,250c0,58.266,0,250,0,250s-170.194,0-250-0.012c-62.324,0.012-250,0-250,0s0-174.241,0-249.994
	C0.006,111.931,111.929,0,249.994,0C388.064,0,500,111.93,500,250z"/>
</g></g><g transform="translate(320,512) scale(0.128,0.128)"><g transform="" style="fill: rgb(20, 23, 56);">
<g>
	<path d="M0,500h500V0C223.861,0.001,0,223.854,0,500z"/>
</g>
</g></g><g transform="translate(384,512) scale(0.128,0.128)"><g transform="" style="fill: rgb(20, 23, 56);">
<path d="M250,500c-58.271,0-250,0-250,0s0-170.207,0-250C0,187.676,0,0,0,0s174.261,0,250,0c138.064,0,250,111.929,250,250
	C500,388.064,388.064,500,250,500z"/>
</g></g><g transform="translate(512,512) scale(0.128,0.128)"><g transform="" style="fill: rgb(20, 23, 56);">
<path d="M250,0c138.077,0,250,111.93,250,250c0,138.077-111.923,250-250,250C111.93,500,0,388.077,0,250C0,111.93,111.93,0,250,0z"
	/>
</g></g><g transform="translate(640,512) scale(0.128,0.128)"><g transform="" style="fill: rgb(20, 23, 56);">
<g>
	<path d="M0,500h500V0C223.861,0.001,0,223.854,0,500z"/>
</g>
</g></g><g transform="translate(704,512) scale(0.128,0.128)"><g transform="" style="fill: rgb(20, 23, 56);">
<g>
	<path d="M0,0v500h500C500,223.853,276.142,0,0,0z"/>
</g>
</g></g><g transform="translate(960,512) scale(0.128,0.128)"><g transform="" style="fill: rgb(20, 23, 56);">
<path d="M500,250c0,58.266,0,250,0,250s-170.194,0-250-0.012c-62.324,0.012-250,0-250,0s0-174.241,0-249.994
	C0.006,111.931,111.929,0,249.994,0C388.064,0,500,111.93,500,250z"/>
</g></g><g transform="translate(1280,512) scale(0.64,0.64)"><g transform="" style="fill: rgb(20, 23, 56);">
<rect width="100" height="100"/>
</g></g><g transform="translate(1344,512) scale(0.128,0.128)"><g transform="" style="fill: rgb(20, 23, 56);">
<g>
	<path d="M0,0v500h500C500,223.853,276.142,0,0,0z"/>
</g>
</g></g><g transform="translate(1472,512) scale(0.128,0.128)"><g transform="" style="fill: rgb(20, 23, 56);">
<path d="M250,0c138.077,0,250,111.93,250,250c0,138.077-111.923,250-250,250C111.93,500,0,388.077,0,250C0,111.93,111.93,0,250,0z"
	/>
</g></g><g transform="translate(0,576) scale(0.128,0.128)"><g transform="" style="fill: rgb(20, 23, 56);">
<path d="M0,250C0,191.729,0,0,0,0s170.201,0,250,0c62.324,0,250,0,250,0s0,174.261,0,250c0,138.064-111.936,250-250,250
	C111.929,500,0,388.064,0,250z"/>
</g></g><g transform="translate(192,576) scale(0.128,0.128)"><g transform="" style="fill: rgb(20, 23, 56);">
<path d="M0,250C0,191.729,0,0,0,0s170.201,0,250,0c62.324,0,250,0,250,0s0,174.261,0,250c0,138.064-111.936,250-250,250
	C111.929,500,0,388.064,0,250z"/>
</g></g><g transform="translate(320,576) scale(0.64,0.64)"><g transform="" style="fill: rgb(20, 23, 56);">
<rect width="100" height="100"/>
</g></g><g transform="translate(576,576) scale(0.128,0.128)"><g transform="" style="fill: rgb(20, 23, 56);">
<path d="M250,0c58.27,0,250,0,250,0s0,170.182,0,250c0,62.305,0,250,0,250s-174.219,0-250,0
	C111.881,500,0,388.021,0,250C0,111.963,111.881,0,250,0z"/>
</g></g><g transform="translate(640,576) scale(0.64,0.64)"><g transform="" style="fill: rgb(20, 23, 56);">
<rect width="100" height="100"/>
</g></g><g transform="translate(704,576) scale(0.64,0.64)"><g transform="" style="fill: rgb(20, 23, 56);">
<rect width="100" height="100"/>
</g></g><g transform="translate(768,576) scale(0.128,0.128)"><g transform="" style="fill: rgb(20, 23, 56);">
<path d="M250,500c-58.271,0-250,0-250,0s0-170.207,0-250C0,187.676,0,0,0,0s174.261,0,250,0c138.064,0,250,111.929,250,250
	C500,388.064,388.064,500,250,500z"/>
</g></g><g transform="translate(896,576) scale(0.128,0.128)"><g transform="" style="fill: rgb(20, 23, 56);">
<path d="M250,0c58.27,0,250,0,250,0s0,170.182,0,250c0,62.305,0,250,0,250s-174.219,0-250,0
	C111.881,500,0,388.021,0,250C0,111.963,111.881,0,250,0z"/>
</g></g><g transform="translate(960,576) scale(0.128,0.128)"><g transform="" style="fill: rgb(20, 23, 56);">
<g>
	<path d="M500,0H0v500C276.142,500,500,276.142,500,0z"/>
</g>
</g></g><g transform="translate(1216,576) scale(0.128,0.128)"><g transform="" style="fill: rgb(20, 23, 56);">
<g>
	<path d="M0,500h500V0C223.861,0.001,0,223.854,0,500z"/>
</g>
</g></g><g transform="translate(1280,576) scale(0.64,0.64)"><g transform="" style="fill: rgb(20, 23, 56);">
<rect width="100" height="100"/>
</g></g><g transform="translate(1344,576) scale(0.64,0.64)"><g transform="" style="fill: rgb(20, 23, 56);">
<rect width="100" height="100"/>
</g></g><g transform="translate(1408,576) scale(0.128,0.128)"><g transform="" style="fill: rgb(20, 23, 56);">
<g>
	<path d="M0,0v500h500C500,223.853,276.142,0,0,0z"/>
</g>
</g></g><g transform="translate(1600,576) scale(0.128,0.128)"><g transform="" style="fill: rgb(20, 23, 56);">
<path d="M500,250c0,58.266,0,250,0,250s-170.194,0-250-0.012c-62.324,0.012-250,0-250,0s0-174.241,0-249.994
	C0.006,111.931,111.929,0,249.994,0C388.064,0,500,111.93,500,250z"/>
</g></g><g transform="translate(1792,576) scale(0.128,0.128)"><g transform="" style="fill: rgb(20, 23, 56);">
<path d="M250,0c138.077,0,250,111.93,250,250c0,138.077-111.923,250-250,250C111.93,500,0,388.077,0,250C0,111.93,111.93,0,250,0z"
	/>
</g></g><g transform="translate(64,640) scale(0.128,0.128)"><g transform="" style="fill: rgb(20, 23, 56);">
<g>
	<path d="M0,500h500V0C223.861,0.001,0,223.854,0,500z"/>
</g>
</g></g><g transform="translate(128,640) scale(0.128,0.128)"><g transform="" style="fill: rgb(20, 23, 56);">
<path d="M250,500c-58.271,0-250,0-250,0s0-170.207,0-250C0,187.676,0,0,0,0s174.261,0,250,0c138.064,0,250,111.929,250,250
	C500,388.064,388.064,500,250,500z"/>
</g></g><g transform="translate(320,640) scale(0.64,0.64)"><g transform="" style="fill: rgb(20, 23, 56);">
<rect width="100" height="100"/>
</g></g><g transform="translate(384,640) scale(0.128,0.128)"><g transform="" style="fill: rgb(20, 23, 56);">
<path d="M250,500c-58.271,0-250,0-250,0s0-170.207,0-250C0,187.676,0,0,0,0s174.261,0,250,0c138.064,0,250,111.929,250,250
	C500,388.064,388.064,500,250,500z"/>
</g></g><g transform="translate(704,640) scale(0.128,0.128)"><g transform="" style="fill: rgb(20, 23, 56);">
<path d="M0,250C0,191.729,0,0,0,0s170.201,0,250,0c62.324,0,250,0,250,0s0,174.261,0,250c0,138.064-111.936,250-250,250
	C111.929,500,0,388.064,0,250z"/>
</g></g><g transform="translate(1024,640) scale(0.128,0.128)"><g transform="" style="fill: rgb(20, 23, 56);">
<path d="M250,0c138.077,0,250,111.93,250,250c0,138.077-111.923,250-250,250C111.93,500,0,388.077,0,250C0,111.93,111.93,0,250,0z"
	/>
</g></g><g transform="translate(1152,640) scale(0.128,0.128)"><g transform="" style="fill: rgb(20, 23, 56);">
<g>
	<path d="M0,500h500V0C223.861,0.001,0,223.854,0,500z"/>
</g>
</g></g><g transform="translate(1216,640) scale(0.128,0.128)"><g transform="" style="fill: rgb(20, 23, 56);">
<g>
	<path d="M500,0H0v500C276.142,500,500,276.142,500,0z"/>
</g>
</g></g><g transform="translate(1344,640) scale(0.128,0.128)"><g transform="" style="fill: rgb(20, 23, 56);">
<g>
	<path d="M500,500V0H0C0.001,276.142,223.853,500,500,500z"/>
</g>
</g></g><g transform="translate(1408,640) scale(0.64,0.64)"><g transform="" style="fill: rgb(20, 23, 56);">
<rect width="100" height="100"/>
</g></g><g transform="translate(1472,640) scale(0.64,0.64)"><g transform="" style="fill: rgb(20, 23, 56);">
<rect width="100" height="100"/>
</g></g><g transform="translate(1536,640) scale(0.64,0.64)"><g transform="" style="fill: rgb(20, 23, 56);">
<rect width="100" height="100"/>
</g></g><g transform="translate(1600,640) scale(0.64,0.64)"><g transform="" style="fill: rgb(20, 23, 56);">
<rect width="100" height="100"/>
</g></g><g transform="translate(1664,640) scale(0.64,0.64)"><g transform="" style="fill: rgb(20, 23, 56);">
<rect width="100" height="100"/>
</g></g><g transform="translate(1728,640) scale(0.128,0.128)"><g transform="" style="fill: rgb(20, 23, 56);">
<g>
	<path d="M0,0v500h500C500,223.853,276.142,0,0,0z"/>
</g>
</g></g><g transform="translate(64,704) scale(0.128,0.128)"><g transform="" style="fill: rgb(20, 23, 56);">
<path d="M0,250C0,191.729,0,0,0,0s170.201,0,250,0c62.324,0,250,0,250,0s0,174.261,0,250c0,138.064-111.936,250-250,250
	C111.929,500,0,388.064,0,250z"/>
</g></g><g transform="translate(320,704) scale(0.64,0.64)"><g transform="" style="fill: rgb(20, 23, 56);">
<rect width="100" height="100"/>
</g></g><g transform="translate(448,704) scale(0.128,0.128)"><g transform="" style="fill: rgb(20, 23, 56);">
<path d="M250,0c138.077,0,250,111.93,250,250c0,138.077-111.923,250-250,250C111.93,500,0,388.077,0,250C0,111.93,111.93,0,250,0z"
	/>
</g></g><g transform="translate(640,704) scale(0.128,0.128)"><g transform="" style="fill: rgb(20, 23, 56);">
<path d="M500,250c0,58.266,0,250,0,250s-170.194,0-250-0.012c-62.324,0.012-250,0-250,0s0-174.241,0-249.994
	C0.006,111.931,111.929,0,249.994,0C388.064,0,500,111.93,500,250z"/>
</g></g><g transform="translate(768,704) scale(0.128,0.128)"><g transform="" style="fill: rgb(20, 23, 56);">
<path d="M250,0c138.077,0,250,111.93,250,250c0,138.077-111.923,250-250,250C111.93,500,0,388.077,0,250C0,111.93,111.93,0,250,0z"
	/>
</g></g><g transform="translate(896,704) scale(0.128,0.128)"><g transform="" style="fill: rgb(20, 23, 56);">
<path d="M250,0c58.27,0,250,0,250,0s0,170.182,0,250c0,62.305,0,250,0,250s-174.219,0-250,0
	C111.881,500,0,388.021,0,250C0,111.963,111.881,0,250,0z"/>
</g></g><g transform="translate(960,704) scale(0.128,0.128)"><g transform="" style="fill: rgb(20, 23, 56);">
<path d="M250,500c-58.271,0-250,0-250,0s0-170.207,0-250C0,187.676,0,0,0,0s174.261,0,250,0c138.064,0,250,111.929,250,250
	C500,388.064,388.064,500,250,500z"/>
</g></g><g transform="translate(1152,704) scale(0.128,0.128)"><g transform="" style="fill: rgb(20, 23, 56);">
<path d="M0,250C0,191.729,0,0,0,0s170.201,0,250,0c62.324,0,250,0,250,0s0,174.261,0,250c0,138.064-111.936,250-250,250
	C111.929,500,0,388.064,0,250z"/>
</g></g><g transform="translate(1408,704) scale(0.64,0.64)"><g transform="" style="fill: rgb(20, 23, 56);">
<rect width="100" height="100"/>
</g></g><g transform="translate(1472,704) scale(0.64,0.64)"><g transform="" style="fill: rgb(20, 23, 56);">
<rect width="100" height="100"/>
</g></g><g transform="translate(1536,704) scale(0.128,0.128)"><g transform="" style="fill: rgb(20, 23, 56);">
<g>
	<path d="M500,0H0v500C276.142,500,500,276.142,500,0z"/>
</g>
</g></g><g transform="translate(1664,704) scale(0.128,0.128)"><g transform="" style="fill: rgb(20, 23, 56);">
<g>
	<path d="M500,500V0H0C0.001,276.142,223.853,500,500,500z"/>
</g>
</g></g><g transform="translate(1728,704) scale(0.64,0.64)"><g transform="" style="fill: rgb(20, 23, 56);">
<rect width="100" height="100"/>
</g></g><g transform="translate(128,768) scale(0.128,0.128)"><g transform="" style="fill: rgb(20, 23, 56);">
<path d="M500,250c0,58.266,0,250,0,250s-170.194,0-250-0.012c-62.324,0.012-250,0-250,0s0-174.241,0-249.994
	C0.006,111.931,111.929,0,249.994,0C388.064,0,500,111.93,500,250z"/>
</g></g><g transform="translate(256,768) scale(0.128,0.128)"><g transform="" style="fill: rgb(20, 23, 56);">
<path d="M250,0c58.27,0,250,0,250,0s0,170.182,0,250c0,62.305,0,250,0,250s-174.219,0-250,0
	C111.881,500,0,388.021,0,250C0,111.963,111.881,0,250,0z"/>
</g></g><g transform="translate(320,768) scale(0.64,0.64)"><g transform="" style="fill: rgb(20, 23, 56);">
<rect width="100" height="100"/>
</g></g><g transform="translate(384,768) scale(0.128,0.128)"><g transform="" style="fill: rgb(20, 23, 56);">
<path d="M250,500c-58.271,0-250,0-250,0s0-170.207,0-250C0,187.676,0,0,0,0s174.261,0,250,0c138.064,0,250,111.929,250,250
	C500,388.064,388.064,500,250,500z"/>
</g></g><g transform="translate(576,768) scale(0.128,0.128)"><g transform="" style="fill: rgb(20, 23, 56);">
<g>
	<path d="M0,500h500V0C223.861,0.001,0,223.854,0,500z"/>
</g>
</g></g><g transform="translate(640,768) scale(0.64,0.64)"><g transform="" style="fill: rgb(20, 23, 56);">
<rect width="100" height="100"/>
</g></g><g transform="translate(704,768) scale(0.128,0.128)"><g transform="" style="fill: rgb(20, 23, 56);">
<g>
	<path d="M0,0v500h500C500,223.853,276.142,0,0,0z"/>
</g>
</g></g><g transform="translate(1024,768) scale(0.128,0.128)"><g transform="" style="fill: rgb(20, 23, 56);">
<path d="M250,0c58.27,0,250,0,250,0s0,170.182,0,250c0,62.305,0,250,0,250s-174.219,0-250,0
	C111.881,500,0,388.021,0,250C0,111.963,111.881,0,250,0z"/>
</g></g><g transform="translate(1088,768) scale(0.128,0.128)"><g transform="" style="fill: rgb(20, 23, 56);">
<path d="M250,500c-58.271,0-250,0-250,0s0-170.207,0-250C0,187.676,0,0,0,0s174.261,0,250,0c138.064,0,250,111.929,250,250
	C500,388.064,388.064,500,250,500z"/>
</g></g><g transform="translate(1216,768) scale(0.128,0.128)"><g transform="" style="fill: rgb(20, 23, 56);">
<g>
	<path d="M0,500h500V0C223.861,0.001,0,223.854,0,500z"/>
</g>
</g></g><g transform="translate(1280,768) scale(0.128,0.128)"><g transform="" style="fill: rgb(20, 23, 56);">
<path d="M250,500c-58.271,0-250,0-250,0s0-170.207,0-250C0,187.676,0,0,0,0s174.261,0,250,0c138.064,0,250,111.929,250,250
	C500,388.064,388.064,500,250,500z"/>
</g></g><g transform="translate(1408,768) scale(0.128,0.128)"><g transform="" style="fill: rgb(20, 23, 56);">
<path d="M0,250C0,191.729,0,0,0,0s170.201,0,250,0c62.324,0,250,0,250,0s0,174.261,0,250c0,138.064-111.936,250-250,250
	C111.929,500,0,388.064,0,250z"/>
</g></g><g transform="translate(1600,768) scale(0.128,0.128)"><g transform="" style="fill: rgb(20, 23, 56);">
<path d="M250,0c138.077,0,250,111.93,250,250c0,138.077-111.923,250-250,250C111.93,500,0,388.077,0,250C0,111.93,111.93,0,250,0z"
	/>
</g></g><g transform="translate(1728,768) scale(0.128,0.128)"><g transform="" style="fill: rgb(20, 23, 56);">
<g>
	<path d="M500,500V0H0C0.001,276.142,223.853,500,500,500z"/>
</g>
</g></g><g transform="translate(1792,768) scale(0.128,0.128)"><g transform="" style="fill: rgb(20, 23, 56);">
<path d="M250,500c-58.271,0-250,0-250,0s0-170.207,0-250C0,187.676,0,0,0,0s174.261,0,250,0c138.064,0,250,111.929,250,250
	C500,388.064,388.064,500,250,500z"/>
</g></g><g transform="translate(0,832) scale(0.128,0.128)"><g transform="" style="fill: rgb(20, 23, 56);">
<path d="M250,0c58.27,0,250,0,250,0s0,170.182,0,250c0,62.305,0,250,0,250s-174.219,0-250,0
	C111.881,500,0,388.021,0,250C0,111.963,111.881,0,250,0z"/>
</g></g><g transform="translate(64,832) scale(0.64,0.64)"><g transform="" style="fill: rgb(20, 23, 56);">
<rect width="100" height="100"/>
</g></g><g transform="translate(128,832) scale(0.64,0.64)"><g transform="" style="fill: rgb(20, 23, 56);">
<rect width="100" height="100"/>
</g></g><g transform="translate(192,832) scale(0.128,0.128)"><g transform="" style="fill: rgb(20, 23, 56);">
<g>
	<path d="M0,0v500h500C500,223.853,276.142,0,0,0z"/>
</g>
</g></g><g transform="translate(576,832) scale(0.128,0.128)"><g transform="" style="fill: rgb(20, 23, 56);">
<path d="M0,250C0,191.729,0,0,0,0s170.201,0,250,0c62.324,0,250,0,250,0s0,174.261,0,250c0,138.064-111.936,250-250,250
	C111.929,500,0,388.064,0,250z"/>
</g></g><g transform="translate(704,832) scale(0.128,0.128)"><g transform="" style="fill: rgb(20, 23, 56);">
<g>
	<path d="M500,500V0H0C0.001,276.142,223.853,500,500,500z"/>
</g>
</g></g><g transform="translate(768,832) scale(0.128,0.128)"><g transform="" style="fill: rgb(20, 23, 56);">
<path d="M250,500c-58.271,0-250,0-250,0s0-170.207,0-250C0,187.676,0,0,0,0s174.261,0,250,0c138.064,0,250,111.929,250,250
	C500,388.064,388.064,500,250,500z"/>
</g></g><g transform="translate(960,832) scale(0.128,0.128)"><g transform="" style="fill: rgb(20, 23, 56);">
<path d="M500,250c0,58.266,0,250,0,250s-170.194,0-250-0.012c-62.324,0.012-250,0-250,0s0-174.241,0-249.994
	C0.006,111.931,111.929,0,249.994,0C388.064,0,500,111.93,500,250z"/>
</g></g><g transform="translate(1216,832) scale(0.128,0.128)"><g transform="" style="fill: rgb(20, 23, 56);">
<path d="M0,250C0,191.729,0,0,0,0s170.201,0,250,0c62.324,0,250,0,250,0s0,174.261,0,250c0,138.064-111.936,250-250,250
	C111.929,500,0,388.064,0,250z"/>
</g></g><g transform="translate(1344,832) scale(0.128,0.128)"><g transform="" style="fill: rgb(20, 23, 56);">
<path d="M500,250c0,58.266,0,250,0,250s-170.194,0-250-0.012c-62.324,0.012-250,0-250,0s0-174.241,0-249.994
	C0.006,111.931,111.929,0,249.994,0C388.064,0,500,111.93,500,250z"/>
</g></g><g transform="translate(64,896) scale(0.64,0.64)"><g transform="" style="fill: rgb(20, 23, 56);">
<rect width="100" height="100"/>
</g></g><g transform="translate(192,896) scale(0.64,0.64)"><g transform="" style="fill: rgb(20, 23, 56);">
<rect width="100" height="100"/>
</g></g><g transform="translate(256,896) scale(0.64,0.64)"><g transform="" style="fill: rgb(20, 23, 56);">
<rect width="100" height="100"/>
</g></g><g transform="translate(320,896) scale(0.64,0.64)"><g transform="" style="fill: rgb(20, 23, 56);">
<rect width="100" height="100"/>
</g></g><g transform="translate(384,896) scale(0.64,0.64)"><g transform="" style="fill: rgb(20, 23, 56);">
<rect width="100" height="100"/>
</g></g><g transform="translate(448,896) scale(0.128,0.128)"><g transform="" style="fill: rgb(20, 23, 56);">
<g>
	<path d="M0,0v500h500C500,223.853,276.142,0,0,0z"/>
</g>
</g></g><g transform="translate(960,896) scale(0.128,0.128)"><g transform="" style="fill: rgb(20, 23, 56);">
<g>
	<path d="M500,500V0H0C0.001,276.142,223.853,500,500,500z"/>
</g>
</g></g><g transform="translate(1024,896) scale(0.128,0.128)"><g transform="" style="fill: rgb(20, 23, 56);">
<g>
	<path d="M0,0v500h500C500,223.853,276.142,0,0,0z"/>
</g>
</g></g><g transform="translate(1280,896) scale(0.128,0.128)"><g transform="" style="fill: rgb(20, 23, 56);">
<g>
	<path d="M0,500h500V0C223.861,0.001,0,223.854,0,500z"/>
</g>
</g></g><g transform="translate(1344,896) scale(0.64,0.64)"><g transform="" style="fill: rgb(20, 23, 56);">
<rect width="100" height="100"/>
</g></g><g transform="translate(1472,896) scale(0.128,0.128)"><g transform="" style="fill: rgb(20, 23, 56);">
<path d="M250,0c138.077,0,250,111.93,250,250c0,138.077-111.923,250-250,250C111.93,500,0,388.077,0,250C0,111.93,111.93,0,250,0z"
	/>
</g></g><g transform="translate(1600,896) scale(0.128,0.128)"><g transform="" style="fill: rgb(20, 23, 56);">
<g>
	<path d="M0,500h500V0C223.861,0.001,0,223.854,0,500z"/>
</g>
</g></g><g transform="translate(1664,896) scale(0.64,0.64)"><g transform="" style="fill: rgb(20, 23, 56);">
<rect width="100" height="100"/>
</g></g><g transform="translate(1728,896) scale(0.64,0.64)"><g transform="" style="fill: rgb(20, 23, 56);">
<rect width="100" height="100"/>
</g></g><g transform="translate(1792,896) scale(0.128,0.128)"><g transform="" style="fill: rgb(20, 23, 56);">
<path d="M250,500c-58.271,0-250,0-250,0s0-170.207,0-250C0,187.676,0,0,0,0s174.261,0,250,0c138.064,0,250,111.929,250,250
	C500,388.064,388.064,500,250,500z"/>
</g></g><g transform="translate(0,960) scale(0.128,0.128)"><g transform="" style="fill: rgb(20, 23, 56);">
<path d="M250,0c58.27,0,250,0,250,0s0,170.182,0,250c0,62.305,0,250,0,250s-174.219,0-250,0
	C111.881,500,0,388.021,0,250C0,111.963,111.881,0,250,0z"/>
</g></g><g transform="translate(64,960) scale(0.64,0.64)"><g transform="" style="fill: rgb(20, 23, 56);">
<rect width="100" height="100"/>
</g></g><g transform="translate(128,960) scale(0.64,0.64)"><g transform="" style="fill: rgb(20, 23, 56);">
<rect width="100" height="100"/>
</g></g><g transform="translate(192,960) scale(0.128,0.128)"><g transform="" style="fill: rgb(20, 23, 56);">
<g>
	<path d="M500,0H0v500C276.142,500,500,276.142,500,0z"/>
</g>
</g></g><g transform="translate(448,960) scale(0.128,0.128)"><g transform="" style="fill: rgb(20, 23, 56);">
<g>
	<path d="M500,500V0H0C0.001,276.142,223.853,500,500,500z"/>
</g>
</g></g><g transform="translate(512,960) scale(0.128,0.128)"><g transform="" style="fill: rgb(20, 23, 56);">
<path d="M250,500c-58.271,0-250,0-250,0s0-170.207,0-250C0,187.676,0,0,0,0s174.261,0,250,0c138.064,0,250,111.929,250,250
	C500,388.064,388.064,500,250,500z"/>
</g></g><g transform="translate(704,960) scale(0.128,0.128)"><g transform="" style="fill: rgb(20, 23, 56);">
<path d="M250,0c58.27,0,250,0,250,0s0,170.182,0,250c0,62.305,0,250,0,250s-174.219,0-250,0
	C111.881,500,0,388.021,0,250C0,111.963,111.881,0,250,0z"/>
</g></g><g transform="translate(768,960) scale(0.64,0.64)"><g transform="" style="fill: rgb(20, 23, 56);">
<rect width="100" height="100"/>
</g></g><g transform="translate(832,960) scale(0.64,0.64)"><g transform="" style="fill: rgb(20, 23, 56);">
<rect width="100" height="100"/>
</g></g><g transform="translate(896,960) scale(0.128,0.128)"><g transform="" style="fill: rgb(20, 23, 56);">
<g>
	<path d="M0,0v500h500C500,223.853,276.142,0,0,0z"/>
</g>
</g></g><g transform="translate(1024,960) scale(0.64,0.64)"><g transform="" style="fill: rgb(20, 23, 56);">
<rect width="100" height="100"/>
</g></g><g transform="translate(1088,960) scale(0.64,0.64)"><g transform="" style="fill: rgb(20, 23, 56);">
<rect width="100" height="100"/>
</g></g><g transform="translate(1152,960) scale(0.64,0.64)"><g transform="" style="fill: rgb(20, 23, 56);">
<rect width="100" height="100"/>
</g></g><g transform="translate(1216,960) scale(0.64,0.64)"><g transform="" style="fill: rgb(20, 23, 56);">
<rect width="100" height="100"/>
</g></g><g transform="translate(1280,960) scale(0.64,0.64)"><g transform="" style="fill: rgb(20, 23, 56);">
<rect width="100" height="100"/>
</g></g><g transform="translate(1344,960) scale(0.64,0.64)"><g transform="" style="fill: rgb(20, 23, 56);">
<rect width="100" height="100"/>
</g></g><g transform="translate(1408,960) scale(0.128,0.128)"><g transform="" style="fill: rgb(20, 23, 56);">
<path d="M250,500c-58.271,0-250,0-250,0s0-170.207,0-250C0,187.676,0,0,0,0s174.261,0,250,0c138.064,0,250,111.929,250,250
	C500,388.064,388.064,500,250,500z"/>
</g></g><g transform="translate(1536,960) scale(0.128,0.128)"><g transform="" style="fill: rgb(20, 23, 56);">
<path d="M250,0c58.27,0,250,0,250,0s0,170.182,0,250c0,62.305,0,250,0,250s-174.219,0-250,0
	C111.881,500,0,388.021,0,250C0,111.963,111.881,0,250,0z"/>
</g></g><g transform="translate(1600,960) scale(0.128,0.128)"><g transform="" style="fill: rgb(20, 23, 56);">
<g>
	<path d="M500,0H0v500C276.142,500,500,276.142,500,0z"/>
</g>
</g></g><g transform="translate(1728,960) scale(0.64,0.64)"><g transform="" style="fill: rgb(20, 23, 56);">
<rect width="100" height="100"/>
</g></g><g transform="translate(320,1024) scale(0.128,0.128)"><g transform="" style="fill: rgb(20, 23, 56);">
<path d="M250,0c58.27,0,250,0,250,0s0,170.182,0,250c0,62.305,0,250,0,250s-174.219,0-250,0
	C111.881,500,0,388.021,0,250C0,111.963,111.881,0,250,0z"/>
</g></g><g transform="translate(384,1024) scale(0.128,0.128)"><g transform="" style="fill: rgb(20, 23, 56);">
<path d="M250,500c-58.271,0-250,0-250,0s0-170.207,0-250C0,187.676,0,0,0,0s174.261,0,250,0c138.064,0,250,111.929,250,250
	C500,388.064,388.064,500,250,500z"/>
</g></g><g transform="translate(576,1024) scale(0.128,0.128)"><g transform="" style="fill: rgb(20, 23, 56);">
<path d="M250,0c138.077,0,250,111.93,250,250c0,138.077-111.923,250-250,250C111.93,500,0,388.077,0,250C0,111.93,111.93,0,250,0z"
	/>
</g></g><g transform="translate(768,1024) scale(0.64,0.64)"><g transform="" style="fill: rgb(20, 23, 56);">
<rect width="100" height="100"/>
</g></g><g transform="translate(832,1024) scale(0.64,0.64)"><g transform="" style="fill: rgb(20, 23, 56);">
<rect width="100" height="100"/>
</g></g><g transform="translate(896,1024) scale(0.64,0.64)"><g transform="" style="fill: rgb(20, 23, 56);">
<rect width="100" height="100"/>
</g></g><g transform="translate(960,1024) scale(0.64,0.64)"><g transform="" style="fill: rgb(20, 23, 56);">
<rect width="100" height="100"/>
</g></g><g transform="translate(1024,1024) scale(0.64,0.64)"><g transform="" style="fill: rgb(20, 23, 56);">
<rect width="100" height="100"/>
</g></g><g transform="translate(1088,1024) scale(0.64,0.64)"><g transform="" style="fill: rgb(20, 23, 56);">
<rect width="100" height="100"/>
</g></g><g transform="translate(1216,1024) scale(0.128,0.128)"><g transform="" style="fill: rgb(20, 23, 56);">
<path d="M0,250C0,191.729,0,0,0,0s170.201,0,250,0c62.324,0,250,0,250,0s0,174.261,0,250c0,138.064-111.936,250-250,250
	C111.929,500,0,388.064,0,250z"/>
</g></g><g transform="translate(1344,1024) scale(0.64,0.64)"><g transform="" style="fill: rgb(20, 23, 56);">
<rect width="100" height="100"/>
</g></g><g transform="translate(1728,1024) scale(0.128,0.128)"><g transform="" style="fill: rgb(20, 23, 56);">
<path d="M0,250C0,191.729,0,0,0,0s170.201,0,250,0c62.324,0,250,0,250,0s0,174.261,0,250c0,138.064-111.936,250-250,250
	C111.929,500,0,388.064,0,250z"/>
</g></g><g transform="translate(128,1088) scale(0.128,0.128)"><g transform="" style="fill: rgb(20, 23, 56);">
<g>
	<path d="M0,500h500V0C223.861,0.001,0,223.854,0,500z"/>
</g>
</g></g><g transform="translate(192,1088) scale(0.128,0.128)"><g transform="" style="fill: rgb(20, 23, 56);">
<g>
	<path d="M0,0v500h500C500,223.853,276.142,0,0,0z"/>
</g>
</g></g><g transform="translate(448,1088) scale(0.128,0.128)"><g transform="" style="fill: rgb(20, 23, 56);">
<path d="M500,250c0,58.266,0,250,0,250s-170.194,0-250-0.012c-62.324,0.012-250,0-250,0s0-174.241,0-249.994
	C0.006,111.931,111.929,0,249.994,0C388.064,0,500,111.93,500,250z"/>
</g></g><g transform="translate(704,1088) scale(0.128,0.128)"><g transform="" style="fill: rgb(20, 23, 56);">
<path d="M250,0c58.27,0,250,0,250,0s0,170.182,0,250c0,62.305,0,250,0,250s-174.219,0-250,0
	C111.881,500,0,388.021,0,250C0,111.963,111.881,0,250,0z"/>
</g></g><g transform="translate(768,1088) scale(0.64,0.64)"><g transform="" style="fill: rgb(20, 23, 56);">
<rect width="100" height="100"/>
</g></g><g transform="translate(960,1088) scale(0.128,0.128)"><g transform="" style="fill: rgb(20, 23, 56);">
<path d="M0,250C0,191.729,0,0,0,0s170.201,0,250,0c62.324,0,250,0,250,0s0,174.261,0,250c0,138.064-111.936,250-250,250
	C111.929,500,0,388.064,0,250z"/>
</g></g><g transform="translate(1088,1088) scale(0.64,0.64)"><g transform="" style="fill: rgb(20, 23, 56);">
<rect width="100" height="100"/>
</g></g><g transform="translate(1344,1088) scale(0.128,0.128)"><g transform="" style="fill: rgb(20, 23, 56);">
<g>
	<path d="M500,500V0H0C0.001,276.142,223.853,500,500,500z"/>
</g>
</g></g><g transform="translate(1408,1088) scale(0.64,0.64)"><g transform="" style="fill: rgb(20, 23, 56);">
<rect width="100" height="100"/>
</g></g><g transform="translate(1472,1088) scale(0.128,0.128)"><g transform="" style="fill: rgb(20, 23, 56);">
<g>
	<path d="M0,0v500h500C500,223.853,276.142,0,0,0z"/>
</g>
</g></g><g transform="translate(1600,1088) scale(0.128,0.128)"><g transform="" style="fill: rgb(20, 23, 56);">
<path d="M250,0c138.077,0,250,111.93,250,250c0,138.077-111.923,250-250,250C111.93,500,0,388.077,0,250C0,111.93,111.93,0,250,0z"
	/>
</g></g><g transform="translate(1792,1088) scale(0.128,0.128)"><g transform="" style="fill: rgb(20, 23, 56);">
<path d="M500,250c0,58.266,0,250,0,250s-170.194,0-250-0.012c-62.324,0.012-250,0-250,0s0-174.241,0-249.994
	C0.006,111.931,111.929,0,249.994,0C388.064,0,500,111.93,500,250z"/>
</g></g><g transform="translate(0,1152) scale(0.128,0.128)"><g transform="" style="fill: rgb(20, 23, 56);">
<path d="M250,0c138.077,0,250,111.93,250,250c0,138.077-111.923,250-250,250C111.93,500,0,388.077,0,250C0,111.93,111.93,0,250,0z"
	/>
</g></g><g transform="translate(128,1152) scale(0.128,0.128)"><g transform="" style="fill: rgb(20, 23, 56);">
<g>
	<path d="M500,500V0H0C0.001,276.142,223.853,500,500,500z"/>
</g>
</g></g><g transform="translate(192,1152) scale(0.64,0.64)"><g transform="" style="fill: rgb(20, 23, 56);">
<rect width="100" height="100"/>
</g></g><g transform="translate(256,1152) scale(0.128,0.128)"><g transform="" style="fill: rgb(20, 23, 56);">
<path d="M250,500c-58.271,0-250,0-250,0s0-170.207,0-250C0,187.676,0,0,0,0s174.261,0,250,0c138.064,0,250,111.929,250,250
	C500,388.064,388.064,500,250,500z"/>
</g></g><g transform="translate(384,1152) scale(0.128,0.128)"><g transform="" style="fill: rgb(20, 23, 56);">
<path d="M250,0c58.27,0,250,0,250,0s0,170.182,0,250c0,62.305,0,250,0,250s-174.219,0-250,0
	C111.881,500,0,388.021,0,250C0,111.963,111.881,0,250,0z"/>
</g></g><g transform="translate(448,1152) scale(0.128,0.128)"><g transform="" style="fill: rgb(20, 23, 56);">
<g>
	<path d="M500,0H0v500C276.142,500,500,276.142,500,0z"/>
</g>
</g></g><g transform="translate(768,1152) scale(0.64,0.64)"><g transform="" style="fill: rgb(20, 23, 56);">
<rect width="100" height="100"/>
</g></g><g transform="translate(832,1152) scale(0.128,0.128)"><g transform="" style="fill: rgb(20, 23, 56);">
<g>
	<path d="M0,0v500h500C500,223.853,276.142,0,0,0z"/>
</g>
</g></g><g transform="translate(1088,1152) scale(0.64,0.64)"><g transform="" style="fill: rgb(20, 23, 56);">
<rect width="100" height="100"/>
</g></g><g transform="translate(1408,1152) scale(0.128,0.128)"><g transform="" style="fill: rgb(20, 23, 56);">
<g>
	<path d="M500,500V0H0C0.001,276.142,223.853,500,500,500z"/>
</g>
</g></g><g transform="translate(1472,1152) scale(0.64,0.64)"><g transform="" style="fill: rgb(20, 23, 56);">
<rect width="100" height="100"/>
</g></g><g transform="translate(1536,1152) scale(0.128,0.128)"><g transform="" style="fill: rgb(20, 23, 56);">
<path d="M250,500c-58.271,0-250,0-250,0s0-170.207,0-250C0,187.676,0,0,0,0s174.261,0,250,0c138.064,0,250,111.929,250,250
	C500,388.064,388.064,500,250,500z"/>
</g></g><g transform="translate(1728,1152) scale(0.128,0.128)"><g transform="" style="fill: rgb(20, 23, 56);">
<g>
	<path d="M0,500h500V0C223.861,0.001,0,223.854,0,500z"/>
</g>
</g></g><g transform="translate(1792,1152) scale(0.64,0.64)"><g transform="" style="fill: rgb(20, 23, 56);">
<rect width="100" height="100"/>
</g></g><g transform="translate(320,1216) scale(0.128,0.128)"><g transform="" style="fill: rgb(20, 23, 56);">
<path d="M250,0c138.077,0,250,111.93,250,250c0,138.077-111.923,250-250,250C111.93,500,0,388.077,0,250C0,111.93,111.93,0,250,0z"
	/>
</g></g><g transform="translate(512,1216) scale(0.128,0.128)"><g transform="" style="fill: rgb(20, 23, 56);">
<path d="M250,0c138.077,0,250,111.93,250,250c0,138.077-111.923,250-250,250C111.93,500,0,388.077,0,250C0,111.93,111.93,0,250,0z"
	/>
</g></g><g transform="translate(640,1216) scale(0.128,0.128)"><g transform="" style="fill: rgb(20, 23, 56);">
<path d="M500,250c0,58.266,0,250,0,250s-170.194,0-250-0.012c-62.324,0.012-250,0-250,0s0-174.241,0-249.994
	C0.006,111.931,111.929,0,249.994,0C388.064,0,500,111.93,500,250z"/>
</g></g><g transform="translate(768,1216) scale(0.64,0.64)"><g transform="" style="fill: rgb(20, 23, 56);">
<rect width="100" height="100"/>
</g></g><g transform="translate(832,1216) scale(0.128,0.128)"><g transform="" style="fill: rgb(20, 23, 56);">
<g>
	<path d="M500,0H0v500C276.142,500,500,276.142,500,0z"/>
</g>
</g></g><g transform="translate(960,1216) scale(0.128,0.128)"><g transform="" style="fill: rgb(20, 23, 56);">
<path d="M250,0c58.27,0,250,0,250,0s0,170.182,0,250c0,62.305,0,250,0,250s-174.219,0-250,0
	C111.881,500,0,388.021,0,250C0,111.963,111.881,0,250,0z"/>
</g></g><g transform="translate(1024,1216) scale(0.64,0.64)"><g transform="" style="fill: rgb(20, 23, 56);">
<rect width="100" height="100"/>
</g></g><g transform="translate(1088,1216) scale(0.64,0.64)"><g transform="" style="fill: rgb(20, 23, 56);">
<rect width="100" height="100"/>
</g></g><g transform="translate(1216,1216) scale(0.128,0.128)"><g transform="" style="fill: rgb(20, 23, 56);">
<g>
	<path d="M0,500h500V0C223.861,0.001,0,223.854,0,500z"/>
</g>
</g></g><g transform="translate(1280,1216) scale(0.128,0.128)"><g transform="" style="fill: rgb(20, 23, 56);">
<g>
	<path d="M0,0v500h500C500,223.853,276.142,0,0,0z"/>
</g>
</g></g><g transform="translate(1728,1216) scale(0.128,0.128)"><g transform="" style="fill: rgb(20, 23, 56);">
<g>
	<path d="M500,500V0H0C0.001,276.142,223.853,500,500,500z"/>
</g>
</g></g><g transform="translate(1792,1216) scale(0.128,0.128)"><g transform="" style="fill: rgb(20, 23, 56);">
<g>
	<path d="M500,0H0v500C276.142,500,500,276.142,500,0z"/>
</g>
</g></g><g transform="translate(0,1280) scale(0.128,0.128)"><g transform="" style="fill: rgb(20, 23, 56);">
<path d="M250,0c138.077,0,250,111.93,250,250c0,138.077-111.923,250-250,250C111.93,500,0,388.077,0,250C0,111.93,111.93,0,250,0z"
	/>
</g></g><g transform="translate(128,1280) scale(0.128,0.128)"><g transform="" style="fill: rgb(20, 23, 56);">
<path d="M250,0c58.27,0,250,0,250,0s0,170.182,0,250c0,62.305,0,250,0,250s-174.219,0-250,0
	C111.881,500,0,388.021,0,250C0,111.963,111.881,0,250,0z"/>
</g></g><g transform="translate(192,1280) scale(0.64,0.64)"><g transform="" style="fill: rgb(20, 23, 56);">
<rect width="100" height="100"/>
</g></g><g transform="translate(256,1280) scale(0.128,0.128)"><g transform="" style="fill: rgb(20, 23, 56);">
<path d="M250,500c-58.271,0-250,0-250,0s0-170.207,0-250C0,187.676,0,0,0,0s174.261,0,250,0c138.064,0,250,111.929,250,250
	C500,388.064,388.064,500,250,500z"/>
</g></g><g transform="translate(384,1280) scale(0.128,0.128)"><g transform="" style="fill: rgb(20, 23, 56);">
<path d="M250,0c58.27,0,250,0,250,0s0,170.182,0,250c0,62.305,0,250,0,250s-174.219,0-250,0
	C111.881,500,0,388.021,0,250C0,111.963,111.881,0,250,0z"/>
</g></g><g transform="translate(448,1280) scale(0.128,0.128)"><g transform="" style="fill: rgb(20, 23, 56);">
<path d="M250,500c-58.271,0-250,0-250,0s0-170.207,0-250C0,187.676,0,0,0,0s174.261,0,250,0c138.064,0,250,111.929,250,250
	C500,388.064,388.064,500,250,500z"/>
</g></g><g transform="translate(576,1280) scale(0.128,0.128)"><g transform="" style="fill: rgb(20, 23, 56);">
<path d="M250,0c58.27,0,250,0,250,0s0,170.182,0,250c0,62.305,0,250,0,250s-174.219,0-250,0
	C111.881,500,0,388.021,0,250C0,111.963,111.881,0,250,0z"/>
</g></g><g transform="translate(640,1280) scale(0.64,0.64)"><g transform="" style="fill: rgb(20, 23, 56);">
<rect width="100" height="100"/>
</g></g><g transform="translate(704,1280) scale(0.64,0.64)"><g transform="" style="fill: rgb(20, 23, 56);">
<rect width="100" height="100"/>
</g></g><g transform="translate(768,1280) scale(0.64,0.64)"><g transform="" style="fill: rgb(20, 23, 56);">
<rect width="100" height="100"/>
</g></g><g transform="translate(896,1280) scale(0.128,0.128)"><g transform="" style="fill: rgb(20, 23, 56);">
<path d="M250,0c138.077,0,250,111.93,250,250c0,138.077-111.923,250-250,250C111.93,500,0,388.077,0,250C0,111.93,111.93,0,250,0z"
	/>
</g></g><g transform="translate(1024,1280) scale(0.64,0.64)"><g transform="" style="fill: rgb(20, 23, 56);">
<rect width="100" height="100"/>
</g></g><g transform="translate(1088,1280) scale(0.64,0.64)"><g transform="" style="fill: rgb(20, 23, 56);">
<rect width="100" height="100"/>
</g></g><g transform="translate(1216,1280) scale(0.64,0.64)"><g transform="" style="fill: rgb(20, 23, 56);">
<rect width="100" height="100"/>
</g></g><g transform="translate(1280,1280) scale(0.64,0.64)"><g transform="" style="fill: rgb(20, 23, 56);">
<rect width="100" height="100"/>
</g></g><g transform="translate(1344,1280) scale(0.64,0.64)"><g transform="" style="fill: rgb(20, 23, 56);">
<rect width="100" height="100"/>
</g></g><g transform="translate(1408,1280) scale(0.64,0.64)"><g transform="" style="fill: rgb(20, 23, 56);">
<rect width="100" height="100"/>
</g></g><g transform="translate(1472,1280) scale(0.64,0.64)"><g transform="" style="fill: rgb(20, 23, 56);">
<rect width="100" height="100"/>
</g></g><g transform="translate(1536,1280) scale(0.128,0.128)"><g transform="" style="fill: rgb(20, 23, 56);">
<g>
	<path d="M0,0v500h500C500,223.853,276.142,0,0,0z"/>
</g>
</g></g><g transform="translate(1664,1280) scale(0.128,0.128)"><g transform="" style="fill: rgb(20, 23, 56);">
<path d="M500,250c0,58.266,0,250,0,250s-170.194,0-250-0.012c-62.324,0.012-250,0-250,0s0-174.241,0-249.994
	C0.006,111.931,111.929,0,249.994,0C388.064,0,500,111.93,500,250z"/>
</g></g><g transform="translate(512,1344) scale(0.128,0.128)"><g transform="" style="fill: rgb(20, 23, 56);">
<path d="M250,0c138.077,0,250,111.93,250,250c0,138.077-111.923,250-250,250C111.93,500,0,388.077,0,250C0,111.93,111.93,0,250,0z"
	/>
</g></g><g transform="translate(640,1344) scale(0.64,0.64)"><g transform="" style="fill: rgb(20, 23, 56);">
<rect width="100" height="100"/>
</g></g><g transform="translate(768,1344) scale(0.64,0.64)"><g transform="" style="fill: rgb(20, 23, 56);">
<rect width="100" height="100"/>
</g></g><g transform="translate(832,1344) scale(0.128,0.128)"><g transform="" style="fill: rgb(20, 23, 56);">
<g>
	<path d="M0,0v500h500C500,223.853,276.142,0,0,0z"/>
</g>
</g></g><g transform="translate(960,1344) scale(0.128,0.128)"><g transform="" style="fill: rgb(20, 23, 56);">
<g>
	<path d="M0,500h500V0C223.861,0.001,0,223.854,0,500z"/>
</g>
</g></g><g transform="translate(1024,1344) scale(0.64,0.64)"><g transform="" style="fill: rgb(20, 23, 56);">
<rect width="100" height="100"/>
</g></g><g transform="translate(1088,1344) scale(0.64,0.64)"><g transform="" style="fill: rgb(20, 23, 56);">
<rect width="100" height="100"/>
</g></g><g transform="translate(1152,1344) scale(0.64,0.64)"><g transform="" style="fill: rgb(20, 23, 56);">
<rect width="100" height="100"/>
</g></g><g transform="translate(1216,1344) scale(0.64,0.64)"><g transform="" style="fill: rgb(20, 23, 56);">
<rect width="100" height="100"/>
</g></g><g transform="translate(1280,1344) scale(0.64,0.64)"><g transform="" style="fill: rgb(20, 23, 56);">
<rect width="100" height="100"/>
</g></g><g transform="translate(1536,1344) scale(0.64,0.64)"><g transform="" style="fill: rgb(20, 23, 56);">
<rect width="100" height="100"/>
</g></g><g transform="translate(1664,1344) scale(0.128,0.128)"><g transform="" style="fill: rgb(20, 23, 56);">
<g>
	<path d="M500,500V0H0C0.001,276.142,223.853,500,500,500z"/>
</g>
</g></g><g transform="translate(1728,1344) scale(0.64,0.64)"><g transform="" style="fill: rgb(20, 23, 56);">
<rect width="100" height="100"/>
</g></g><g transform="translate(1792,1344) scale(0.128,0.128)"><g transform="" style="fill: rgb(20, 23, 56);">
<path d="M250,500c-58.271,0-250,0-250,0s0-170.207,0-250C0,187.676,0,0,0,0s174.261,0,250,0c138.064,0,250,111.929,250,250
	C500,388.064,388.064,500,250,500z"/>
</g></g><g transform="translate(640,1408) scale(0.128,0.128)"><g transform="" style="fill: rgb(20, 23, 56);">
<path d="M0,250C0,191.729,0,0,0,0s170.201,0,250,0c62.324,0,250,0,250,0s0,174.261,0,250c0,138.064-111.936,250-250,250
	C111.929,500,0,388.064,0,250z"/>
</g></g><g transform="translate(768,1408) scale(0.128,0.128)"><g transform="" style="fill: rgb(20, 23, 56);">
<g>
	<path d="M500,500V0H0C0.001,276.142,223.853,500,500,500z"/>
</g>
</g></g><g transform="translate(832,1408) scale(0.64,0.64)"><g transform="" style="fill: rgb(20, 23, 56);">
<rect width="100" height="100"/>
</g></g><g transform="translate(896,1408) scale(0.64,0.64)"><g transform="" style="fill: rgb(20, 23, 56);">
<rect width="100" height="100"/>
</g></g><g transform="translate(960,1408) scale(0.128,0.128)"><g transform="" style="fill: rgb(20, 23, 56);">
<g>
	<path d="M500,0H0v500C276.142,500,500,276.142,500,0z"/>
</g>
</g></g><g transform="translate(1088,1408) scale(0.128,0.128)"><g transform="" style="fill: rgb(20, 23, 56);">
<g>
	<path d="M500,500V0H0C0.001,276.142,223.853,500,500,500z"/>
</g>
</g></g><g transform="translate(1152,1408) scale(0.128,0.128)"><g transform="" style="fill: rgb(20, 23, 56);">
<g>
	<path d="M500,0H0v500C276.142,500,500,276.142,500,0z"/>
</g>
</g></g><g transform="translate(1280,1408) scale(0.64,0.64)"><g transform="" style="fill: rgb(20, 23, 56);">
<rect width="100" height="100"/>
</g></g><g transform="translate(1408,1408) scale(0.128,0.128)"><g transform="" style="fill: rgb(20, 23, 56);">
<path d="M250,0c138.077,0,250,111.93,250,250c0,138.077-111.923,250-250,250C111.93,500,0,388.077,0,250C0,111.93,111.93,0,250,0z"
	/>
</g></g><g transform="translate(1536,1408) scale(0.64,0.64)"><g transform="" style="fill: rgb(20, 23, 56);">
<rect width="100" height="100"/>
</g></g><g transform="translate(1728,1408) scale(0.64,0.64)"><g transform="" style="fill: rgb(20, 23, 56);">
<rect width="100" height="100"/>
</g></g><g transform="translate(512,1472) scale(0.128,0.128)"><g transform="" style="fill: rgb(20, 23, 56);">
<path d="M250,0c138.077,0,250,111.93,250,250c0,138.077-111.923,250-250,250C111.93,500,0,388.077,0,250C0,111.93,111.93,0,250,0z"
	/>
</g></g><g transform="translate(704,1472) scale(0.128,0.128)"><g transform="" style="fill: rgb(20, 23, 56);">
<path d="M500,250c0,58.266,0,250,0,250s-170.194,0-250-0.012c-62.324,0.012-250,0-250,0s0-174.241,0-249.994
	C0.006,111.931,111.929,0,249.994,0C388.064,0,500,111.93,500,250z"/>
</g></g><g transform="translate(832,1472) scale(0.128,0.128)"><g transform="" style="fill: rgb(20, 23, 56);">
<path d="M0,250C0,191.729,0,0,0,0s170.201,0,250,0c62.324,0,250,0,250,0s0,174.261,0,250c0,138.064-111.936,250-250,250
	C111.929,500,0,388.064,0,250z"/>
</g></g><g transform="translate(1024,1472) scale(0.128,0.128)"><g transform="" style="fill: rgb(20, 23, 56);">
<path d="M500,250c0,58.266,0,250,0,250s-170.194,0-250-0.012c-62.324,0.012-250,0-250,0s0-174.241,0-249.994
	C0.006,111.931,111.929,0,249.994,0C388.064,0,500,111.93,500,250z"/>
</g></g><g transform="translate(1216,1472) scale(0.128,0.128)"><g transform="" style="fill: rgb(20, 23, 56);">
<path d="M250,0c58.27,0,250,0,250,0s0,170.182,0,250c0,62.305,0,250,0,250s-174.219,0-250,0
	C111.881,500,0,388.021,0,250C0,111.963,111.881,0,250,0z"/>
</g></g><g transform="translate(1280,1472) scale(0.64,0.64)"><g transform="" style="fill: rgb(20, 23, 56);">
<rect width="100" height="100"/>
</g></g><g transform="translate(1536,1472) scale(0.64,0.64)"><g transform="" style="fill: rgb(20, 23, 56);">
<rect width="100" height="100"/>
</g></g><g transform="translate(1600,1472) scale(0.64,0.64)"><g transform="" style="fill: rgb(20, 23, 56);">
<rect width="100" height="100"/>
</g></g><g transform="translate(1664,1472) scale(0.64,0.64)"><g transform="" style="fill: rgb(20, 23, 56);">
<rect width="100" height="100"/>
</g></g><g transform="translate(1728,1472) scale(0.64,0.64)"><g transform="" style="fill: rgb(20, 23, 56);">
<rect width="100" height="100"/>
</g></g><g transform="translate(1792,1472) scale(0.128,0.128)"><g transform="" style="fill: rgb(20, 23, 56);">
<path d="M250,500c-58.271,0-250,0-250,0s0-170.207,0-250C0,187.676,0,0,0,0s174.261,0,250,0c138.064,0,250,111.929,250,250
	C500,388.064,388.064,500,250,500z"/>
</g></g><g transform="translate(576,1536) scale(0.128,0.128)"><g transform="" style="fill: rgb(20, 23, 56);">
<path d="M250,0c138.077,0,250,111.93,250,250c0,138.077-111.923,250-250,250C111.93,500,0,388.077,0,250C0,111.93,111.93,0,250,0z"
	/>
</g></g><g transform="translate(704,1536) scale(0.64,0.64)"><g transform="" style="fill: rgb(20, 23, 56);">
<rect width="100" height="100"/>
</g></g><g transform="translate(896,1536) scale(0.128,0.128)"><g transform="" style="fill: rgb(20, 23, 56);">
<g>
	<path d="M0,500h500V0C223.861,0.001,0,223.854,0,500z"/>
</g>
</g></g><g transform="translate(960,1536) scale(0.64,0.64)"><g transform="" style="fill: rgb(20, 23, 56);">
<rect width="100" height="100"/>
</g></g><g transform="translate(1024,1536) scale(0.64,0.64)"><g transform="" style="fill: rgb(20, 23, 56);">
<rect width="100" height="100"/>
</g></g><g transform="translate(1088,1536) scale(0.128,0.128)"><g transform="" style="fill: rgb(20, 23, 56);">
<g>
	<path d="M0,0v500h500C500,223.853,276.142,0,0,0z"/>
</g>
</g></g><g transform="translate(1280,1536) scale(0.128,0.128)"><g transform="" style="fill: rgb(20, 23, 56);">
<g>
	<path d="M500,500V0H0C0.001,276.142,223.853,500,500,500z"/>
</g>
</g></g><g transform="translate(1344,1536) scale(0.64,0.64)"><g transform="" style="fill: rgb(20, 23, 56);">
<rect width="100" height="100"/>
</g></g><g transform="translate(1408,1536) scale(0.64,0.64)"><g transform="" style="fill: rgb(20, 23, 56);">
<rect width="100" height="100"/>
</g></g><g transform="translate(1472,1536) scale(0.64,0.64)"><g transform="" style="fill: rgb(20, 23, 56);">
<rect width="100" height="100"/>
</g></g><g transform="translate(1536,1536) scale(0.64,0.64)"><g transform="" style="fill: rgb(20, 23, 56);">
<rect width="100" height="100"/>
</g></g><g transform="translate(1728,1536) scale(0.128,0.128)"><g transform="" style="fill: rgb(20, 23, 56);">
<path d="M0,250C0,191.729,0,0,0,0s170.201,0,250,0c62.324,0,250,0,250,0s0,174.261,0,250c0,138.064-111.936,250-250,250
	C111.929,500,0,388.064,0,250z"/>
</g></g><g transform="translate(512,1600) scale(0.128,0.128)"><g transform="" style="fill: rgb(20, 23, 56);">
<path d="M250,0c138.077,0,250,111.93,250,250c0,138.077-111.923,250-250,250C111.93,500,0,388.077,0,250C0,111.93,111.93,0,250,0z"
	/>
</g></g><g transform="translate(640,1600) scale(0.128,0.128)"><g transform="" style="fill: rgb(20, 23, 56);">
<path d="M250,0c58.27,0,250,0,250,0s0,170.182,0,250c0,62.305,0,250,0,250s-174.219,0-250,0
	C111.881,500,0,388.021,0,250C0,111.963,111.881,0,250,0z"/>
</g></g><g transform="translate(704,1600) scale(0.64,0.64)"><g transform="" style="fill: rgb(20, 23, 56);">
<rect width="100" height="100"/>
</g></g><g transform="translate(768,1600) scale(0.128,0.128)"><g transform="" style="fill: rgb(20, 23, 56);">
<g>
	<path d="M0,0v500h500C500,223.853,276.142,0,0,0z"/>
</g>
</g></g><g transform="translate(896,1600) scale(0.64,0.64)"><g transform="" style="fill: rgb(20, 23, 56);">
<rect width="100" height="100"/>
</g></g><g transform="translate(960,1600) scale(0.64,0.64)"><g transform="" style="fill: rgb(20, 23, 56);">
<rect width="100" height="100"/>
</g></g><g transform="translate(1024,1600) scale(0.64,0.64)"><g transform="" style="fill: rgb(20, 23, 56);">
<rect width="100" height="100"/>
</g></g><g transform="translate(1088,1600) scale(0.64,0.64)"><g transform="" style="fill: rgb(20, 23, 56);">
<rect width="100" height="100"/>
</g></g><g transform="translate(1216,1600) scale(0.128,0.128)"><g transform="" style="fill: rgb(20, 23, 56);">
<path d="M500,250c0,58.266,0,250,0,250s-170.194,0-250-0.012c-62.324,0.012-250,0-250,0s0-174.241,0-249.994
	C0.006,111.931,111.929,0,249.994,0C388.064,0,500,111.93,500,250z"/>
</g></g><g transform="translate(1408,1600) scale(0.128,0.128)"><g transform="" style="fill: rgb(20, 23, 56);">
<g>
	<path d="M500,500V0H0C0.001,276.142,223.853,500,500,500z"/>
</g>
</g></g><g transform="translate(1472,1600) scale(0.64,0.64)"><g transform="" style="fill: rgb(20, 23, 56);">
<rect width="100" height="100"/>
</g></g><g transform="translate(1536,1600) scale(0.64,0.64)"><g transform="" style="fill: rgb(20, 23, 56);">
<rect width="100" height="100"/>
</g></g><g transform="translate(1600,1600) scale(0.64,0.64)"><g transform="" style="fill: rgb(20, 23, 56);">
<rect width="100" height="100"/>
</g></g><g transform="translate(1664,1600) scale(0.128,0.128)"><g transform="" style="fill: rgb(20, 23, 56);">
<g>
	<path d="M0,0v500h500C500,223.853,276.142,0,0,0z"/>
</g>
</g></g><g transform="translate(1792,1600) scale(0.128,0.128)"><g transform="" style="fill: rgb(20, 23, 56);">
<path d="M500,250c0,58.266,0,250,0,250s-170.194,0-250-0.012c-62.324,0.012-250,0-250,0s0-174.241,0-249.994
	C0.006,111.931,111.929,0,249.994,0C388.064,0,500,111.93,500,250z"/>
</g></g><g transform="translate(576,1664) scale(0.128,0.128)"><g transform="" style="fill: rgb(20, 23, 56);">
<path d="M250,0c138.077,0,250,111.93,250,250c0,138.077-111.923,250-250,250C111.93,500,0,388.077,0,250C0,111.93,111.93,0,250,0z"
	/>
</g></g><g transform="translate(704,1664) scale(0.128,0.128)"><g transform="" style="fill: rgb(20, 23, 56);">
<g>
	<path d="M500,500V0H0C0.001,276.142,223.853,500,500,500z"/>
</g>
</g></g><g transform="translate(768,1664) scale(0.128,0.128)"><g transform="" style="fill: rgb(20, 23, 56);">
<g>
	<path d="M500,0H0v500C276.142,500,500,276.142,500,0z"/>
</g>
</g></g><g transform="translate(896,1664) scale(0.64,0.64)"><g transform="" style="fill: rgb(20, 23, 56);">
<rect width="100" height="100"/>
</g></g><g transform="translate(1088,1664) scale(0.64,0.64)"><g transform="" style="fill: rgb(20, 23, 56);">
<rect width="100" height="100"/>
</g></g><g transform="translate(1152,1664) scale(0.64,0.64)"><g transform="" style="fill: rgb(20, 23, 56);">
<rect width="100" height="100"/>
</g></g><g transform="translate(1216,1664) scale(0.64,0.64)"><g transform="" style="fill: rgb(20, 23, 56);">
<rect width="100" height="100"/>
</g></g><g transform="translate(1280,1664) scale(0.128,0.128)"><g transform="" style="fill: rgb(20, 23, 56);">
<g>
	<path d="M0,0v500h500C500,223.853,276.142,0,0,0z"/>
</g>
</g></g><g transform="translate(1536,1664) scale(0.64,0.64)"><g transform="" style="fill: rgb(20, 23, 56);">
<rect width="100" height="100"/>
</g></g><g transform="translate(1600,1664) scale(0.64,0.64)"><g transform="" style="fill: rgb(20, 23, 56);">
<rect width="100" height="100"/>
</g></g><g transform="translate(1664,1664) scale(0.128,0.128)"><g transform="" style="fill: rgb(20, 23, 56);">
<g>
	<path d="M500,0H0v500C276.142,500,500,276.142,500,0z"/>
</g>
</g></g><g transform="translate(1792,1664) scale(0.128,0.128)"><g transform="" style="fill: rgb(20, 23, 56);">
<path d="M0,250C0,191.729,0,0,0,0s170.201,0,250,0c62.324,0,250,0,250,0s0,174.261,0,250c0,138.064-111.936,250-250,250
	C111.929,500,0,388.064,0,250z"/>
</g></g><g transform="translate(640,1728) scale(0.128,0.128)"><g transform="" style="fill: rgb(20, 23, 56);">
<path d="M500,250c0,58.266,0,250,0,250s-170.194,0-250-0.012c-62.324,0.012-250,0-250,0s0-174.241,0-249.994
	C0.006,111.931,111.929,0,249.994,0C388.064,0,500,111.93,500,250z"/>
</g></g><g transform="translate(896,1728) scale(0.128,0.128)"><g transform="" style="fill: rgb(20, 23, 56);">
<g>
	<path d="M500,500V0H0C0.001,276.142,223.853,500,500,500z"/>
</g>
</g></g><g transform="translate(960,1728) scale(0.128,0.128)"><g transform="" style="fill: rgb(20, 23, 56);">
<g>
	<path d="M0,0v500h500C500,223.853,276.142,0,0,0z"/>
</g>
</g></g><g transform="translate(1088,1728) scale(0.64,0.64)"><g transform="" style="fill: rgb(20, 23, 56);">
<rect width="100" height="100"/>
</g></g><g transform="translate(1152,1728) scale(0.64,0.64)"><g transform="" style="fill: rgb(20, 23, 56);">
<rect width="100" height="100"/>
</g></g><g transform="translate(1216,1728) scale(0.64,0.64)"><g transform="" style="fill: rgb(20, 23, 56);">
<rect width="100" height="100"/>
</g></g><g transform="translate(1280,1728) scale(0.64,0.64)"><g transform="" style="fill: rgb(20, 23, 56);">
<rect width="100" height="100"/>
</g></g><g transform="translate(1408,1728) scale(0.128,0.128)"><g transform="" style="fill: rgb(20, 23, 56);">
<g>
	<path d="M0,500h500V0C223.861,0.001,0,223.854,0,500z"/>
</g>
</g></g><g transform="translate(1472,1728) scale(0.64,0.64)"><g transform="" style="fill: rgb(20, 23, 56);">
<rect width="100" height="100"/>
</g></g><g transform="translate(1536,1728) scale(0.64,0.64)"><g transform="" style="fill: rgb(20, 23, 56);">
<rect width="100" height="100"/>
</g></g><g transform="translate(1728,1728) scale(0.128,0.128)"><g transform="" style="fill: rgb(20, 23, 56);">
<path d="M500,250c0,58.266,0,250,0,250s-170.194,0-250-0.012c-62.324,0.012-250,0-250,0s0-174.241,0-249.994
	C0.006,111.931,111.929,0,249.994,0C388.064,0,500,111.93,500,250z"/>
</g></g><g transform="translate(512,1792) scale(0.128,0.128)"><g transform="" style="fill: rgb(20, 23, 56);">
<path d="M250,0c58.27,0,250,0,250,0s0,170.182,0,250c0,62.305,0,250,0,250s-174.219,0-250,0
	C111.881,500,0,388.021,0,250C0,111.963,111.881,0,250,0z"/>
</g></g><g transform="translate(576,1792) scale(0.64,0.64)"><g transform="" style="fill: rgb(20, 23, 56);">
<rect width="100" height="100"/>
</g></g><g transform="translate(640,1792) scale(0.64,0.64)"><g transform="" style="fill: rgb(20, 23, 56);">
<rect width="100" height="100"/>
</g></g><g transform="translate(704,1792) scale(0.64,0.64)"><g transform="" style="fill: rgb(20, 23, 56);">
<rect width="100" height="100"/>
</g></g><g transform="translate(768,1792) scale(0.128,0.128)"><g transform="" style="fill: rgb(20, 23, 56);">
<path d="M250,500c-58.271,0-250,0-250,0s0-170.207,0-250C0,187.676,0,0,0,0s174.261,0,250,0c138.064,0,250,111.929,250,250
	C500,388.064,388.064,500,250,500z"/>
</g></g><g transform="translate(960,1792) scale(0.128,0.128)"><g transform="" style="fill: rgb(20, 23, 56);">
<g>
	<path d="M500,500V0H0C0.001,276.142,223.853,500,500,500z"/>
</g>
</g></g><g transform="translate(1024,1792) scale(0.64,0.64)"><g transform="" style="fill: rgb(20, 23, 56);">
<rect width="100" height="100"/>
</g></g><g transform="translate(1088,1792) scale(0.128,0.128)"><g transform="" style="fill: rgb(20, 23, 56);">
<g>
	<path d="M500,0H0v500C276.142,500,500,276.142,500,0z"/>
</g>
</g></g><g transform="translate(1280,1792) scale(0.128,0.128)"><g transform="" style="fill: rgb(20, 23, 56);">
<g>
	<path d="M500,500V0H0C0.001,276.142,223.853,500,500,500z"/>
</g>
</g></g><g transform="translate(1344,1792) scale(0.64,0.64)"><g transform="" style="fill: rgb(20, 23, 56);">
<rect width="100" height="100"/>
</g></g><g transform="translate(1408,1792) scale(0.64,0.64)"><g transform="" style="fill: rgb(20, 23, 56);">
<rect width="100" height="100"/>
</g></g><g transform="translate(1472,1792) scale(0.64,0.64)"><g transform="" style="fill: rgb(20, 23, 56);">
<rect width="100" height="100"/>
</g></g><g transform="translate(1536,1792) scale(0.128,0.128)"><g transform="" style="fill: rgb(20, 23, 56);">
<g>
	<path d="M500,0H0v500C276.142,500,500,276.142,500,0z"/>
</g>
</g></g><g transform="translate(1728,1792) scale(0.128,0.128)"><g transform="" style="fill: rgb(20, 23, 56);">
<path d="M0,250C0,191.729,0,0,0,0s170.201,0,250,0c62.324,0,250,0,250,0s0,174.261,0,250c0,138.064-111.936,250-250,250
	C111.929,500,0,388.064,0,250z"/>
</g></g><g transform="translate(0,0) scale(4.48, 4.48)"><g transform="" style="fill: rgb(20, 23, 56);">
<g>
	<path style="fill:none;" d="M65.859,15.008H34.141c-4.082,0-7.869,1.258-10.979,3.398c-2.419,1.665-4.428,3.864-5.848,6.421
		C15.838,27.484,15,30.526,15,33.758v32.471c0,10.344,8.586,18.76,19.145,18.76L50,84.992l15.855-0.004
		C76.414,84.988,85,76.572,85,66.229V33.758C85,23.419,76.414,15.008,65.859,15.008z"/>
	<path d="M65.859,0.008H34.141h0C18.683,0.008,5.587,10.221,1.4,24.18c-0.433,1.444-0.771,2.928-1.006,4.445
		C0.135,30.299,0,32.013,0,33.758v32.471c0,18.619,15.32,33.76,34.141,33.76L50,99.992l15.859-0.004
		c18.82,0,34.141-15.141,34.141-33.76V33.758C100,15.148,84.68,0.008,65.859,0.008z M85,66.229c0,10.344-8.586,18.76-19.145,18.76
		L50,84.992l-15.855-0.004C23.586,84.988,15,76.572,15,66.229V33.758c0-3.231,0.838-6.273,2.313-8.931
		c1.42-2.557,3.429-4.756,5.848-6.421c3.11-2.141,6.897-3.398,10.979-3.398h31.719C76.414,15.008,85,23.419,85,33.758V66.229z"/>
</g>
</g></g><g transform="translate(1408,0) scale(4.48, 4.48)"><g transform="" style="fill: rgb(20, 23, 56);">
<g>
	<path style="fill:none;" d="M65.859,15.008H34.141c-4.082,0-7.869,1.258-10.979,3.398c-2.419,1.665-4.428,3.864-5.848,6.421
		C15.838,27.484,15,30.526,15,33.758v32.471c0,10.344,8.586,18.76,19.145,18.76L50,84.992l15.855-0.004
		C76.414,84.988,85,76.572,85,66.229V33.758C85,23.419,76.414,15.008,65.859,15.008z"/>
	<path d="M65.859,0.008H34.141h0C18.683,0.008,5.587,10.221,1.4,24.18c-0.433,1.444-0.771,2.928-1.006,4.445
		C0.135,30.299,0,32.013,0,33.758v32.471c0,18.619,15.32,33.76,34.141,33.76L50,99.992l15.859-0.004
		c18.82,0,34.141-15.141,34.141-33.76V33.758C100,15.148,84.68,0.008,65.859,0.008z M85,66.229c0,10.344-8.586,18.76-19.145,18.76
		L50,84.992l-15.855-0.004C23.586,84.988,15,76.572,15,66.229V33.758c0-3.231,0.838-6.273,2.313-8.931
		c1.42-2.557,3.429-4.756,5.848-6.421c3.11-2.141,6.897-3.398,10.979-3.398h31.719C76.414,15.008,85,23.419,85,33.758V66.229z"/>
</g>
</g></g><g transform="translate(0,1408) scale(4.48, 4.48)"><g transform="" style="fill: rgb(20, 23, 56);">
<g>
	<path style="fill:none;" d="M65.859,15.008H34.141c-4.082,0-7.869,1.258-10.979,3.398c-2.419,1.665-4.428,3.864-5.848,6.421
		C15.838,27.484,15,30.526,15,33.758v32.471c0,10.344,8.586,18.76,19.145,18.76L50,84.992l15.855-0.004
		C76.414,84.988,85,76.572,85,66.229V33.758C85,23.419,76.414,15.008,65.859,15.008z"/>
	<path d="M65.859,0.008H34.141h0C18.683,0.008,5.587,10.221,1.4,24.18c-0.433,1.444-0.771,2.928-1.006,4.445
		C0.135,30.299,0,32.013,0,33.758v32.471c0,18.619,15.32,33.76,34.141,33.76L50,99.992l15.859-0.004
		c18.82,0,34.141-15.141,34.141-33.76V33.758C100,15.148,84.68,0.008,65.859,0.008z M85,66.229c0,10.344-8.586,18.76-19.145,18.76
		L50,84.992l-15.855-0.004C23.586,84.988,15,76.572,15,66.229V33.758c0-3.231,0.838-6.273,2.313-8.931
		c1.42-2.557,3.429-4.756,5.848-6.421c3.11-2.141,6.897-3.398,10.979-3.398h31.719C76.414,15.008,85,23.419,85,33.758V66.229z"/>
</g>
</g></g><g transform="translate(128,128) scale(1.92, 1.92)"><g transform="" style="fill: rgb(20, 23, 56);">
<g>
	<g id="XMLID_1_">
		<g>
			<path d="M27.351,100c-15.09,0-27.365-12.032-27.365-26.808V26.794c0-4.616,1.2-8.96,3.301-12.761
				c2.029-3.658,4.901-6.802,8.36-9.174C16.09,1.801,21.506,0,27.336,0h45.327c15.076,0,27.351,12.018,27.351,26.793v46.398
				c0,14.775-12.274,26.808-27.351,26.808H50H27.351z"/>
		</g>
		<g>
		</g>
	</g>
</g>
</g></g><g transform="translate(1536,128) scale(1.92, 1.92)"><g transform="" style="fill: rgb(20, 23, 56);">
<g>
	<g id="XMLID_1_">
		<g>
			<path d="M27.351,100c-15.09,0-27.365-12.032-27.365-26.808V26.794c0-4.616,1.2-8.96,3.301-12.761
				c2.029-3.658,4.901-6.802,8.36-9.174C16.09,1.801,21.506,0,27.336,0h45.327c15.076,0,27.351,12.018,27.351,26.793v46.398
				c0,14.775-12.274,26.808-27.351,26.808H50H27.351z"/>
		</g>
		<g>
		</g>
	</g>
</g>
</g></g><g transform="translate(128,1536) scale(1.92, 1.92)"><g transform="" style="fill: rgb(20, 23, 56);">
<g>
	<g id="XMLID_1_">
		<g>
			<path d="M27.351,100c-15.09,0-27.365-12.032-27.365-26.808V26.794c0-4.616,1.2-8.96,3.301-12.761
				c2.029-3.658,4.901-6.802,8.36-9.174C16.09,1.801,21.506,0,27.336,0h45.327c15.076,0,27.351,12.018,27.351,26.793v46.398
				c0,14.775-12.274,26.808-27.351,26.808H50H27.351z"/>
		</g>
		<g>
		</g>
	</g>
</g>
</g></g></g></svg>