<?xml version="1.0" encoding="utf-8"?>
<!DOCTYPE svg PUBLIC "-//W3C//DTD SVG 1.1//EN" "http://www.w3.org/Graphics/SVG/1.1/DTD/svg11.dtd">
<svg version="1.1" id="Layer_1" xmlns="http://www.w3.org/2000/svg" xmlns:xlink="http://www.w3.org/1999/xlink" x="0px" y="0px"
width="2109px" height="2109px" viewBox="0 0 2109 2109" enable-background="new 0 0 2109 2109" xml:space="preserve">
<rect x="0" y="0" width="2109" height="2109" fill="rgb(255,255,255)" /><g transform="translate(114,114)"><g transform="translate(456,0) scale(0.114,0.114)"><g transform="" style="fill: rgb(20, 23, 56);">
<path d="M250,0c138.077,0,250,111.93,250,250c0,138.077-111.923,250-250,250C111.93,500,0,388.077,0,250C0,111.93,111.93,0,250,0z"
	/>
</g></g><g transform="translate(570,0) scale(0.114,0.114)"><g transform="" style="fill: rgb(20, 23, 56);">
<path d="M250,0c58.27,0,250,0,250,0s0,170.182,0,250c0,62.305,0,250,0,250s-174.219,0-250,0
	C111.881,500,0,388.021,0,250C0,111.963,111.881,0,250,0z"/>
</g></g><g transform="translate(627,0) scale(0.114,0.114)"><g transform="" style="fill: rgb(20, 23, 56);">
<g>
	<path d="M0,0v500h500C500,223.853,276.142,0,0,0z"/>
</g>
</g></g><g transform="translate(741,0) scale(0.114,0.114)"><g transform="" style="fill: rgb(20, 23, 56);">
<g>
	<path d="M0,500h500V0C223.861,0.001,0,223.854,0,500z"/>
</g>
</g></g><g transform="translate(798,0) scale(0.57,0.57)"><g transform="" style="fill: rgb(20, 23, 56);">
<rect width="100" height="100"/>
</g></g><g transform="translate(855,0) scale(0.57,0.57)"><g transform="" style="fill: rgb(20, 23, 56);">
<rect width="100" height="100"/>
</g></g><g transform="translate(912,0) scale(0.114,0.114)"><g transform="" style="fill: rgb(20, 23, 56);">
<path d="M250,500c-58.271,0-250,0-250,0s0-170.207,0-250C0,187.676,0,0,0,0s174.261,0,250,0c138.064,0,250,111.929,250,250
	C500,388.064,388.064,500,250,500z"/>
</g></g><g transform="translate(1026,0) scale(0.114,0.114)"><g transform="" style="fill: rgb(20, 23, 56);">
<path d="M500,250c0,58.266,0,250,0,250s-170.194,0-250-0.012c-62.324,0.012-250,0-250,0s0-174.241,0-249.994
	C0.006,111.931,111.929,0,249.994,0C388.064,0,500,111.93,500,250z"/>
</g></g><g transform="translate(1311,0) scale(0.114,0.114)"><g transform="" style="fill: rgb(20, 23, 56);">
<path d="M250,0c138.077,0,250,111.93,250,250c0,138.077-111.923,250-250,250C111.93,500,0,388.077,0,250C0,111.93,111.93,0,250,0z"
	/>
</g></g><g transform="translate(513,57) scale(0.114,0.114)"><g transform="" style="fill: rgb(20, 23, 56);">
<path d="M250,0c138.077,0,250,111.93,250,250c0,138.077-111.923,250-250,250C111.93,500,0,388.077,0,250C0,111.93,111.93,0,250,0z"
	/>
</g></g><g transform="translate(627,57) scale(0.57,0.57)"><g transform="" style="fill: rgb(20, 23, 56);">
<rect width="100" height="100"/>
</g></g><g transform="translate(684,57) scale(0.57,0.57)"><g transform="" style="fill: rgb(20, 23, 56);">
<rect width="100" height="100"/>
</g></g><g transform="translate(741,57) scale(0.57,0.57)"><g transform="" style="fill: rgb(20, 23, 56);">
<rect width="100" height="100"/>
</g></g><g transform="translate(798,57) scale(0.57,0.57)"><g transform="" style="fill: rgb(20, 23, 56);">
<rect width="100" height="100"/>
</g></g><g transform="translate(1026,57) scale(0.57,0.57)"><g transform="" style="fill: rgb(20, 23, 56);">
<rect width="100" height="100"/>
</g></g><g transform="translate(1083,57) scale(0.114,0.114)"><g transform="" style="fill: rgb(20, 23, 56);">
<g>
	<path d="M0,0v500h500C500,223.853,276.142,0,0,0z"/>
</g>
</g></g><g transform="translate(627,114) scale(0.57,0.57)"><g transform="" style="fill: rgb(20, 23, 56);">
<rect width="100" height="100"/>
</g></g><g transform="translate(798,114) scale(0.114,0.114)"><g transform="" style="fill: rgb(20, 23, 56);">
<path d="M0,250C0,191.729,0,0,0,0s170.201,0,250,0c62.324,0,250,0,250,0s0,174.261,0,250c0,138.064-111.936,250-250,250
	C111.929,500,0,388.064,0,250z"/>
</g></g><g transform="translate(969,114) scale(0.114,0.114)"><g transform="" style="fill: rgb(20, 23, 56);">
<g>
	<path d="M0,500h500V0C223.861,0.001,0,223.854,0,500z"/>
</g>
</g></g><g transform="translate(1026,114) scale(0.57,0.57)"><g transform="" style="fill: rgb(20, 23, 56);">
<rect width="100" height="100"/>
</g></g><g transform="translate(1083,114) scale(0.57,0.57)"><g transform="" style="fill: rgb(20, 23, 56);">
<rect width="100" height="100"/>
</g></g><g transform="translate(1140,114) scale(0.57,0.57)"><g transform="" style="fill: rgb(20, 23, 56);">
<rect width="100" height="100"/>
</g></g><g transform="translate(1197,114) scale(0.114,0.114)"><g transform="" style="fill: rgb(20, 23, 56);">
<g>
	<path d="M0,0v500h500C500,223.853,276.142,0,0,0z"/>
</g>
</g></g><g transform="translate(1311,114) scale(0.114,0.114)"><g transform="" style="fill: rgb(20, 23, 56);">
<path d="M500,250c0,58.266,0,250,0,250s-170.194,0-250-0.012c-62.324,0.012-250,0-250,0s0-174.241,0-249.994
	C0.006,111.931,111.929,0,249.994,0C388.064,0,500,111.93,500,250z"/>
</g></g><g transform="translate(456,171) scale(0.114,0.114)"><g transform="" style="fill: rgb(20, 23, 56);">
<g>
	<path d="M0,500h500V0C223.861,0.001,0,223.854,0,500z"/>
</g>
</g></g><g transform="translate(513,171) scale(0.57,0.57)"><g transform="" style="fill: rgb(20, 23, 56);">
<rect width="100" height="100"/>
</g></g><g transform="translate(570,171) scale(0.57,0.57)"><g transform="" style="fill: rgb(20, 23, 56);">
<rect width="100" height="100"/>
</g></g><g transform="translate(627,171) scale(0.57,0.57)"><g transform="" style="fill: rgb(20, 23, 56);">
<rect width="100" height="100"/>
</g></g><g transform="translate(912,171) scale(0.114,0.114)"><g transform="" style="fill: rgb(20, 23, 56);">
<g>
	<path d="M0,500h500V0C223.861,0.001,0,223.854,0,500z"/>
</g>
</g></g><g transform="translate(969,171) scale(0.57,0.57)"><g transform="" style="fill: rgb(20, 23, 56);">
<rect width="100" height="100"/>
</g></g><g transform="translate(1083,171) scale(0.57,0.57)"><g transform="" style="fill: rgb(20, 23, 56);">
<rect width="100" height="100"/>
</g></g><g transform="translate(1197,171) scale(0.57,0.57)"><g transform="" style="fill: rgb(20, 23, 56);">
<rect width="100" height="100"/>
</g></g><g transform="translate(1254,171) scale(0.57,0.57)"><g transform="" style="fill: rgb(20, 23, 56);">
<rect width="100" height="100"/>
</g></g><g transform="translate(1311,171) scale(0.114,0.114)"><g transform="" style="fill: rgb(20, 23, 56);">
<g>
	<path d="M500,0H0v500C276.142,500,500,276.142,500,0z"/>
</g>
</g></g><g transform="translate(456,228) scale(0.57,0.57)"><g transform="" style="fill: rgb(20, 23, 56);">
<rect width="100" height="100"/>
</g></g><g transform="translate(513,228) scale(0.114,0.114)"><g transform="" style="fill: rgb(20, 23, 56);">
<g>
	<path d="M500,0H0v500C276.142,500,500,276.142,500,0z"/>
</g>
</g></g><g transform="translate(627,228) scale(0.57,0.57)"><g transform="" style="fill: rgb(20, 23, 56);">
<rect width="100" height="100"/>
</g></g><g transform="translate(741,228) scale(0.114,0.114)"><g transform="" style="fill: rgb(20, 23, 56);">
<path d="M250,0c138.077,0,250,111.93,250,250c0,138.077-111.923,250-250,250C111.93,500,0,388.077,0,250C0,111.93,111.93,0,250,0z"
	/>
</g></g><g transform="translate(912,228) scale(0.114,0.114)"><g transform="" style="fill: rgb(20, 23, 56);">
<g>
	<path d="M500,500V0H0C0.001,276.142,223.853,500,500,500z"/>
</g>
</g></g><g transform="translate(969,228) scale(0.114,0.114)"><g transform="" style="fill: rgb(20, 23, 56);">
<g>
	<path d="M500,0H0v500C276.142,500,500,276.142,500,0z"/>
</g>
</g></g><g transform="translate(1083,228) scale(0.114,0.114)"><g transform="" style="fill: rgb(20, 23, 56);">
<path d="M0,250C0,191.729,0,0,0,0s170.201,0,250,0c62.324,0,250,0,250,0s0,174.261,0,250c0,138.064-111.936,250-250,250
	C111.929,500,0,388.064,0,250z"/>
</g></g><g transform="translate(1197,228) scale(0.114,0.114)"><g transform="" style="fill: rgb(20, 23, 56);">
<g>
	<path d="M500,500V0H0C0.001,276.142,223.853,500,500,500z"/>
</g>
</g></g><g transform="translate(1254,228) scale(0.57,0.57)"><g transform="" style="fill: rgb(20, 23, 56);">
<rect width="100" height="100"/>
</g></g><g transform="translate(456,285) scale(0.57,0.57)"><g transform="" style="fill: rgb(20, 23, 56);">
<rect width="100" height="100"/>
</g></g><g transform="translate(570,285) scale(0.114,0.114)"><g transform="" style="fill: rgb(20, 23, 56);">
<g>
	<path d="M0,500h500V0C223.861,0.001,0,223.854,0,500z"/>
</g>
</g></g><g transform="translate(627,285) scale(0.114,0.114)"><g transform="" style="fill: rgb(20, 23, 56);">
<g>
	<path d="M500,0H0v500C276.142,500,500,276.142,500,0z"/>
</g>
</g></g><g transform="translate(855,285) scale(0.114,0.114)"><g transform="" style="fill: rgb(20, 23, 56);">
<path d="M250,0c138.077,0,250,111.93,250,250c0,138.077-111.923,250-250,250C111.93,500,0,388.077,0,250C0,111.93,111.93,0,250,0z"
	/>
</g></g><g transform="translate(1140,285) scale(0.114,0.114)"><g transform="" style="fill: rgb(20, 23, 56);">
<path d="M500,250c0,58.266,0,250,0,250s-170.194,0-250-0.012c-62.324,0.012-250,0-250,0s0-174.241,0-249.994
	C0.006,111.931,111.929,0,249.994,0C388.064,0,500,111.93,500,250z"/>
</g></g><g transform="translate(1254,285) scale(0.57,0.57)"><g transform="" style="fill: rgb(20, 23, 56);">
<rect width="100" height="100"/>
</g></g><g transform="translate(1311,285) scale(0.57,0.57)"><g transform="" style="fill: rgb(20, 23, 56);">
<rect width="100" height="100"/>
</g></g><g transform="translate(1368,285) scale(0.114,0.114)"><g transform="" style="fill: rgb(20, 23, 56);">
<g>
	<path d="M0,0v500h500C500,223.853,276.142,0,0,0z"/>
</g>
</g></g><g transform="translate(456,342) scale(0.57,0.57)"><g transform="" style="fill: rgb(20, 23, 56);">
<rect width="100" height="100"/>
</g></g><g transform="translate(570,342) scale(0.57,0.57)"><g transform="" style="fill: rgb(20, 23, 56);">
<rect width="100" height="100"/>
</g></g><g transform="translate(684,342) scale(0.114,0.114)"><g transform="" style="fill: rgb(20, 23, 56);">
<path d="M250,0c138.077,0,250,111.93,250,250c0,138.077-111.923,250-250,250C111.93,500,0,388.077,0,250C0,111.93,111.93,0,250,0z"
	/>
</g></g><g transform="translate(798,342) scale(0.114,0.114)"><g transform="" style="fill: rgb(20, 23, 56);">
<path d="M500,250c0,58.266,0,250,0,250s-170.194,0-250-0.012c-62.324,0.012-250,0-250,0s0-174.241,0-249.994
	C0.006,111.931,111.929,0,249.994,0C388.064,0,500,111.93,500,250z"/>
</g></g><g transform="translate(912,342) scale(0.114,0.114)"><g transform="" style="fill: rgb(20, 23, 56);">
<path d="M250,0c138.077,0,250,111.93,250,250c0,138.077-111.923,250-250,250C111.93,500,0,388.077,0,250C0,111.93,111.93,0,250,0z"
	/>
</g></g><g transform="translate(1026,342) scale(0.114,0.114)"><g transform="" style="fill: rgb(20, 23, 56);">
<path d="M500,250c0,58.266,0,250,0,250s-170.194,0-250-0.012c-62.324,0.012-250,0-250,0s0-174.241,0-249.994
	C0.006,111.931,111.929,0,249.994,0C388.064,0,500,111.93,500,250z"/>
</g></g><g transform="translate(1140,342) scale(0.57,0.57)"><g transform="" style="fill: rgb(20, 23, 56);">
<rect width="100" height="100"/>
</g></g><g transform="translate(1254,342) scale(0.114,0.114)"><g transform="" style="fill: rgb(20, 23, 56);">
<path d="M0,250C0,191.729,0,0,0,0s170.201,0,250,0c62.324,0,250,0,250,0s0,174.261,0,250c0,138.064-111.936,250-250,250
	C111.929,500,0,388.064,0,250z"/>
</g></g><g transform="translate(1368,342) scale(0.57,0.57)"><g transform="" style="fill: rgb(20, 23, 56);">
<rect width="100" height="100"/>
</g></g><g transform="translate(456,399) scale(0.57,0.57)"><g transform="" style="fill: rgb(20, 23, 56);">
<rect width="100" height="100"/>
</g></g><g transform="translate(513,399) scale(0.57,0.57)"><g transform="" style="fill: rgb(20, 23, 56);">
<rect width="100" height="100"/>
</g></g><g transform="translate(570,399) scale(0.114,0.114)"><g transform="" style="fill: rgb(20, 23, 56);">
<g>
	<path d="M500,0H0v500C276.142,500,500,276.142,500,0z"/>
</g>
</g></g><g transform="translate(798,399) scale(0.57,0.57)"><g transform="" style="fill: rgb(20, 23, 56);">
<rect width="100" height="100"/>
</g></g><g transform="translate(969,399) scale(0.114,0.114)"><g transform="" style="fill: rgb(20, 23, 56);">
<g>
	<path d="M0,500h500V0C223.861,0.001,0,223.854,0,500z"/>
</g>
</g></g><g transform="translate(1026,399) scale(0.57,0.57)"><g transform="" style="fill: rgb(20, 23, 56);">
<rect width="100" height="100"/>
</g></g><g transform="translate(1083,399) scale(0.57,0.57)"><g transform="" style="fill: rgb(20, 23, 56);">
<rect width="100" height="100"/>
</g></g><g transform="translate(1140,399) scale(0.57,0.57)"><g transform="" style="fill: rgb(20, 23, 56);">
<rect width="100" height="100"/>
</g></g><g transform="translate(1197,399) scale(0.114,0.114)"><g transform="" style="fill: rgb(20, 23, 56);">
<g>
	<path d="M0,0v500h500C500,223.853,276.142,0,0,0z"/>
</g>
</g></g><g transform="translate(1368,399) scale(0.57,0.57)"><g transform="" style="fill: rgb(20, 23, 56);">
<rect width="100" height="100"/>
</g></g><g transform="translate(0,456) scale(0.114,0.114)"><g transform="" style="fill: rgb(20, 23, 56);">
<path d="M250,0c138.077,0,250,111.93,250,250c0,138.077-111.923,250-250,250C111.93,500,0,388.077,0,250C0,111.93,111.93,0,250,0z"
	/>
</g></g><g transform="translate(228,456) scale(0.114,0.114)"><g transform="" style="fill: rgb(20, 23, 56);">
<path d="M500,250c0,58.266,0,250,0,250s-170.194,0-250-0.012c-62.324,0.012-250,0-250,0s0-174.241,0-249.994
	C0.006,111.931,111.929,0,249.994,0C388.064,0,500,111.93,500,250z"/>
</g></g><g transform="translate(342,456) scale(0.114,0.114)"><g transform="" style="fill: rgb(20, 23, 56);">
<path d="M250,0c58.27,0,250,0,250,0s0,170.182,0,250c0,62.305,0,250,0,250s-174.219,0-250,0
	C111.881,500,0,388.021,0,250C0,111.963,111.881,0,250,0z"/>
</g></g><g transform="translate(399,456) scale(0.57,0.57)"><g transform="" style="fill: rgb(20, 23, 56);">
<rect width="100" height="100"/>
</g></g><g transform="translate(456,456) scale(0.57,0.57)"><g transform="" style="fill: rgb(20, 23, 56);">
<rect width="100" height="100"/>
</g></g><g transform="translate(513,456) scale(0.57,0.57)"><g transform="" style="fill: rgb(20, 23, 56);">
<rect width="100" height="100"/>
</g></g><g transform="translate(627,456) scale(0.114,0.114)"><g transform="" style="fill: rgb(20, 23, 56);">
<path d="M250,0c58.27,0,250,0,250,0s0,170.182,0,250c0,62.305,0,250,0,250s-174.219,0-250,0
	C111.881,500,0,388.021,0,250C0,111.963,111.881,0,250,0z"/>
</g></g><g transform="translate(684,456) scale(0.114,0.114)"><g transform="" style="fill: rgb(20, 23, 56);">
<g>
	<path d="M0,0v500h500C500,223.853,276.142,0,0,0z"/>
</g>
</g></g><g transform="translate(798,456) scale(0.57,0.57)"><g transform="" style="fill: rgb(20, 23, 56);">
<rect width="100" height="100"/>
</g></g><g transform="translate(855,456) scale(0.114,0.114)"><g transform="" style="fill: rgb(20, 23, 56);">
<g>
	<path d="M0,0v500h500C500,223.853,276.142,0,0,0z"/>
</g>
</g></g><g transform="translate(969,456) scale(0.57,0.57)"><g transform="" style="fill: rgb(20, 23, 56);">
<rect width="100" height="100"/>
</g></g><g transform="translate(1026,456) scale(0.57,0.57)"><g transform="" style="fill: rgb(20, 23, 56);">
<rect width="100" height="100"/>
</g></g><g transform="translate(1140,456) scale(0.114,0.114)"><g transform="" style="fill: rgb(20, 23, 56);">
<g>
	<path d="M500,500V0H0C0.001,276.142,223.853,500,500,500z"/>
</g>
</g></g><g transform="translate(1197,456) scale(0.57,0.57)"><g transform="" style="fill: rgb(20, 23, 56);">
<rect width="100" height="100"/>
</g></g><g transform="translate(1254,456) scale(0.57,0.57)"><g transform="" style="fill: rgb(20, 23, 56);">
<rect width="100" height="100"/>
</g></g><g transform="translate(1311,456) scale(0.57,0.57)"><g transform="" style="fill: rgb(20, 23, 56);">
<rect width="100" height="100"/>
</g></g><g transform="translate(1368,456) scale(0.57,0.57)"><g transform="" style="fill: rgb(20, 23, 56);">
<rect width="100" height="100"/>
</g></g><g transform="translate(1425,456) scale(0.57,0.57)"><g transform="" style="fill: rgb(20, 23, 56);">
<rect width="100" height="100"/>
</g></g><g transform="translate(1482,456) scale(0.57,0.57)"><g transform="" style="fill: rgb(20, 23, 56);">
<rect width="100" height="100"/>
</g></g><g transform="translate(1539,456) scale(0.57,0.57)"><g transform="" style="fill: rgb(20, 23, 56);">
<rect width="100" height="100"/>
</g></g><g transform="translate(1596,456) scale(0.57,0.57)"><g transform="" style="fill: rgb(20, 23, 56);">
<rect width="100" height="100"/>
</g></g><g transform="translate(1653,456) scale(0.114,0.114)"><g transform="" style="fill: rgb(20, 23, 56);">
<g>
	<path d="M0,0v500h500C500,223.853,276.142,0,0,0z"/>
</g>
</g></g><g transform="translate(1824,456) scale(0.114,0.114)"><g transform="" style="fill: rgb(20, 23, 56);">
<path d="M250,0c138.077,0,250,111.93,250,250c0,138.077-111.923,250-250,250C111.93,500,0,388.077,0,250C0,111.93,111.93,0,250,0z"
	/>
</g></g><g transform="translate(57,513) scale(0.114,0.114)"><g transform="" style="fill: rgb(20, 23, 56);">
<path d="M500,250c0,58.266,0,250,0,250s-170.194,0-250-0.012c-62.324,0.012-250,0-250,0s0-174.241,0-249.994
	C0.006,111.931,111.929,0,249.994,0C388.064,0,500,111.93,500,250z"/>
</g></g><g transform="translate(171,513) scale(0.114,0.114)"><g transform="" style="fill: rgb(20, 23, 56);">
<path d="M250,0c58.27,0,250,0,250,0s0,170.182,0,250c0,62.305,0,250,0,250s-174.219,0-250,0
	C111.881,500,0,388.021,0,250C0,111.963,111.881,0,250,0z"/>
</g></g><g transform="translate(228,513) scale(0.114,0.114)"><g transform="" style="fill: rgb(20, 23, 56);">
<g>
	<path d="M500,0H0v500C276.142,500,500,276.142,500,0z"/>
</g>
</g></g><g transform="translate(399,513) scale(0.57,0.57)"><g transform="" style="fill: rgb(20, 23, 56);">
<rect width="100" height="100"/>
</g></g><g transform="translate(513,513) scale(0.57,0.57)"><g transform="" style="fill: rgb(20, 23, 56);">
<rect width="100" height="100"/>
</g></g><g transform="translate(570,513) scale(0.114,0.114)"><g transform="" style="fill: rgb(20, 23, 56);">
<path d="M250,500c-58.271,0-250,0-250,0s0-170.207,0-250C0,187.676,0,0,0,0s174.261,0,250,0c138.064,0,250,111.929,250,250
	C500,388.064,388.064,500,250,500z"/>
</g></g><g transform="translate(684,513) scale(0.114,0.114)"><g transform="" style="fill: rgb(20, 23, 56);">
<path d="M0,250C0,191.729,0,0,0,0s170.201,0,250,0c62.324,0,250,0,250,0s0,174.261,0,250c0,138.064-111.936,250-250,250
	C111.929,500,0,388.064,0,250z"/>
</g></g><g transform="translate(798,513) scale(0.57,0.57)"><g transform="" style="fill: rgb(20, 23, 56);">
<rect width="100" height="100"/>
</g></g><g transform="translate(855,513) scale(0.57,0.57)"><g transform="" style="fill: rgb(20, 23, 56);">
<rect width="100" height="100"/>
</g></g><g transform="translate(912,513) scale(0.57,0.57)"><g transform="" style="fill: rgb(20, 23, 56);">
<rect width="100" height="100"/>
</g></g><g transform="translate(969,513) scale(0.57,0.57)"><g transform="" style="fill: rgb(20, 23, 56);">
<rect width="100" height="100"/>
</g></g><g transform="translate(1026,513) scale(0.57,0.57)"><g transform="" style="fill: rgb(20, 23, 56);">
<rect width="100" height="100"/>
</g></g><g transform="translate(1197,513) scale(0.114,0.114)"><g transform="" style="fill: rgb(20, 23, 56);">
<path d="M0,250C0,191.729,0,0,0,0s170.201,0,250,0c62.324,0,250,0,250,0s0,174.261,0,250c0,138.064-111.936,250-250,250
	C111.929,500,0,388.064,0,250z"/>
</g></g><g transform="translate(1311,513) scale(0.57,0.57)"><g transform="" style="fill: rgb(20, 23, 56);">
<rect width="100" height="100"/>
</g></g><g transform="translate(1425,513) scale(0.114,0.114)"><g transform="" style="fill: rgb(20, 23, 56);">
<path d="M0,250C0,191.729,0,0,0,0s170.201,0,250,0c62.324,0,250,0,250,0s0,174.261,0,250c0,138.064-111.936,250-250,250
	C111.929,500,0,388.064,0,250z"/>
</g></g><g transform="translate(1653,513) scale(0.57,0.57)"><g transform="" style="fill: rgb(20, 23, 56);">
<rect width="100" height="100"/>
</g></g><g transform="translate(1710,513) scale(0.57,0.57)"><g transform="" style="fill: rgb(20, 23, 56);">
<rect width="100" height="100"/>
</g></g><g transform="translate(1767,513) scale(0.114,0.114)"><g transform="" style="fill: rgb(20, 23, 56);">
<g>
	<path d="M0,0v500h500C500,223.853,276.142,0,0,0z"/>
</g>
</g></g><g transform="translate(0,570) scale(0.114,0.114)"><g transform="" style="fill: rgb(20, 23, 56);">
<g>
	<path d="M0,500h500V0C223.861,0.001,0,223.854,0,500z"/>
</g>
</g></g><g transform="translate(57,570) scale(0.57,0.57)"><g transform="" style="fill: rgb(20, 23, 56);">
<rect width="100" height="100"/>
</g></g><g transform="translate(114,570) scale(0.114,0.114)"><g transform="" style="fill: rgb(20, 23, 56);">
<path d="M250,500c-58.271,0-250,0-250,0s0-170.207,0-250C0,187.676,0,0,0,0s174.261,0,250,0c138.064,0,250,111.929,250,250
	C500,388.064,388.064,500,250,500z"/>
</g></g><g transform="translate(285,570) scale(0.114,0.114)"><g transform="" style="fill: rgb(20, 23, 56);">
<g>
	<path d="M0,500h500V0C223.861,0.001,0,223.854,0,500z"/>
</g>
</g></g><g transform="translate(342,570) scale(0.57,0.57)"><g transform="" style="fill: rgb(20, 23, 56);">
<rect width="100" height="100"/>
</g></g><g transform="translate(399,570) scale(0.114,0.114)"><g transform="" style="fill: rgb(20, 23, 56);">
<g>
	<path d="M500,0H0v500C276.142,500,500,276.142,500,0z"/>
</g>
</g></g><g transform="translate(513,570) scale(0.57,0.57)"><g transform="" style="fill: rgb(20, 23, 56);">
<rect width="100" height="100"/>
</g></g><g transform="translate(741,570) scale(0.114,0.114)"><g transform="" style="fill: rgb(20, 23, 56);">
<g>
	<path d="M0,500h500V0C223.861,0.001,0,223.854,0,500z"/>
</g>
</g></g><g transform="translate(798,570) scale(0.57,0.57)"><g transform="" style="fill: rgb(20, 23, 56);">
<rect width="100" height="100"/>
</g></g><g transform="translate(855,570) scale(0.57,0.57)"><g transform="" style="fill: rgb(20, 23, 56);">
<rect width="100" height="100"/>
</g></g><g transform="translate(1026,570) scale(0.114,0.114)"><g transform="" style="fill: rgb(20, 23, 56);">
<path d="M0,250C0,191.729,0,0,0,0s170.201,0,250,0c62.324,0,250,0,250,0s0,174.261,0,250c0,138.064-111.936,250-250,250
	C111.929,500,0,388.064,0,250z"/>
</g></g><g transform="translate(1140,570) scale(0.114,0.114)"><g transform="" style="fill: rgb(20, 23, 56);">
<path d="M250,0c138.077,0,250,111.93,250,250c0,138.077-111.923,250-250,250C111.93,500,0,388.077,0,250C0,111.93,111.93,0,250,0z"
	/>
</g></g><g transform="translate(1311,570) scale(0.114,0.114)"><g transform="" style="fill: rgb(20, 23, 56);">
<path d="M0,250C0,191.729,0,0,0,0s170.201,0,250,0c62.324,0,250,0,250,0s0,174.261,0,250c0,138.064-111.936,250-250,250
	C111.929,500,0,388.064,0,250z"/>
</g></g><g transform="translate(1653,570) scale(0.114,0.114)"><g transform="" style="fill: rgb(20, 23, 56);">
<path d="M0,250C0,191.729,0,0,0,0s170.201,0,250,0c62.324,0,250,0,250,0s0,174.261,0,250c0,138.064-111.936,250-250,250
	C111.929,500,0,388.064,0,250z"/>
</g></g><g transform="translate(1767,570) scale(0.114,0.114)"><g transform="" style="fill: rgb(20, 23, 56);">
<path d="M0,250C0,191.729,0,0,0,0s170.201,0,250,0c62.324,0,250,0,250,0s0,174.261,0,250c0,138.064-111.936,250-250,250
	C111.929,500,0,388.064,0,250z"/>
</g></g><g transform="translate(0,627) scale(0.57,0.57)"><g transform="" style="fill: rgb(20, 23, 56);">
<rect width="100" height="100"/>
</g></g><g transform="translate(57,627) scale(0.57,0.57)"><g transform="" style="fill: rgb(20, 23, 56);">
<rect width="100" height="100"/>
</g></g><g transform="translate(285,627) scale(0.57,0.57)"><g transform="" style="fill: rgb(20, 23, 56);">
<rect width="100" height="100"/>
</g></g><g transform="translate(456,627) scale(0.114,0.114)"><g transform="" style="fill: rgb(20, 23, 56);">
<g>
	<path d="M0,500h500V0C223.861,0.001,0,223.854,0,500z"/>
</g>
</g></g><g transform="translate(513,627) scale(0.57,0.57)"><g transform="" style="fill: rgb(20, 23, 56);">
<rect width="100" height="100"/>
</g></g><g transform="translate(570,627) scale(0.57,0.57)"><g transform="" style="fill: rgb(20, 23, 56);">
<rect width="100" height="100"/>
</g></g><g transform="translate(627,627) scale(0.114,0.114)"><g transform="" style="fill: rgb(20, 23, 56);">
<path d="M250,500c-58.271,0-250,0-250,0s0-170.207,0-250C0,187.676,0,0,0,0s174.261,0,250,0c138.064,0,250,111.929,250,250
	C500,388.064,388.064,500,250,500z"/>
</g></g><g transform="translate(741,627) scale(0.57,0.57)"><g transform="" style="fill: rgb(20, 23, 56);">
<rect width="100" height="100"/>
</g></g><g transform="translate(855,627) scale(0.57,0.57)"><g transform="" style="fill: rgb(20, 23, 56);">
<rect width="100" height="100"/>
</g></g><g transform="translate(912,627) scale(0.114,0.114)"><g transform="" style="fill: rgb(20, 23, 56);">
<g>
	<path d="M0,0v500h500C500,223.853,276.142,0,0,0z"/>
</g>
</g></g><g transform="translate(1083,627) scale(0.114,0.114)"><g transform="" style="fill: rgb(20, 23, 56);">
<path d="M500,250c0,58.266,0,250,0,250s-170.194,0-250-0.012c-62.324,0.012-250,0-250,0s0-174.241,0-249.994
	C0.006,111.931,111.929,0,249.994,0C388.064,0,500,111.93,500,250z"/>
</g></g><g transform="translate(1254,627) scale(0.114,0.114)"><g transform="" style="fill: rgb(20, 23, 56);">
<path d="M500,250c0,58.266,0,250,0,250s-170.194,0-250-0.012c-62.324,0.012-250,0-250,0s0-174.241,0-249.994
	C0.006,111.931,111.929,0,249.994,0C388.064,0,500,111.93,500,250z"/>
</g></g><g transform="translate(1368,627) scale(0.114,0.114)"><g transform="" style="fill: rgb(20, 23, 56);">
<path d="M500,250c0,58.266,0,250,0,250s-170.194,0-250-0.012c-62.324,0.012-250,0-250,0s0-174.241,0-249.994
	C0.006,111.931,111.929,0,249.994,0C388.064,0,500,111.93,500,250z"/>
</g></g><g transform="translate(1482,627) scale(0.114,0.114)"><g transform="" style="fill: rgb(20, 23, 56);">
<path d="M500,250c0,58.266,0,250,0,250s-170.194,0-250-0.012c-62.324,0.012-250,0-250,0s0-174.241,0-249.994
	C0.006,111.931,111.929,0,249.994,0C388.064,0,500,111.93,500,250z"/>
</g></g><g transform="translate(0,684) scale(0.114,0.114)"><g transform="" style="fill: rgb(20, 23, 56);">
<g>
	<path d="M500,500V0H0C0.001,276.142,223.853,500,500,500z"/>
</g>
</g></g><g transform="translate(57,684) scale(0.114,0.114)"><g transform="" style="fill: rgb(20, 23, 56);">
<g>
	<path d="M500,0H0v500C276.142,500,500,276.142,500,0z"/>
</g>
</g></g><g transform="translate(285,684) scale(0.57,0.57)"><g transform="" style="fill: rgb(20, 23, 56);">
<rect width="100" height="100"/>
</g></g><g transform="translate(342,684) scale(0.114,0.114)"><g transform="" style="fill: rgb(20, 23, 56);">
<path d="M250,500c-58.271,0-250,0-250,0s0-170.207,0-250C0,187.676,0,0,0,0s174.261,0,250,0c138.064,0,250,111.929,250,250
	C500,388.064,388.064,500,250,500z"/>
</g></g><g transform="translate(456,684) scale(0.114,0.114)"><g transform="" style="fill: rgb(20, 23, 56);">
<path d="M0,250C0,191.729,0,0,0,0s170.201,0,250,0c62.324,0,250,0,250,0s0,174.261,0,250c0,138.064-111.936,250-250,250
	C111.929,500,0,388.064,0,250z"/>
</g></g><g transform="translate(570,684) scale(0.57,0.57)"><g transform="" style="fill: rgb(20, 23, 56);">
<rect width="100" height="100"/>
</g></g><g transform="translate(741,684) scale(0.114,0.114)"><g transform="" style="fill: rgb(20, 23, 56);">
<path d="M0,250C0,191.729,0,0,0,0s170.201,0,250,0c62.324,0,250,0,250,0s0,174.261,0,250c0,138.064-111.936,250-250,250
	C111.929,500,0,388.064,0,250z"/>
</g></g><g transform="translate(855,684) scale(0.114,0.114)"><g transform="" style="fill: rgb(20, 23, 56);">
<g>
	<path d="M500,500V0H0C0.001,276.142,223.853,500,500,500z"/>
</g>
</g></g><g transform="translate(912,684) scale(0.114,0.114)"><g transform="" style="fill: rgb(20, 23, 56);">
<g>
	<path d="M500,0H0v500C276.142,500,500,276.142,500,0z"/>
</g>
</g></g><g transform="translate(1083,684) scale(0.57,0.57)"><g transform="" style="fill: rgb(20, 23, 56);">
<rect width="100" height="100"/>
</g></g><g transform="translate(1254,684) scale(0.114,0.114)"><g transform="" style="fill: rgb(20, 23, 56);">
<g>
	<path d="M500,500V0H0C0.001,276.142,223.853,500,500,500z"/>
</g>
</g></g><g transform="translate(1311,684) scale(0.57,0.57)"><g transform="" style="fill: rgb(20, 23, 56);">
<rect width="100" height="100"/>
</g></g><g transform="translate(1368,684) scale(0.57,0.57)"><g transform="" style="fill: rgb(20, 23, 56);">
<rect width="100" height="100"/>
</g></g><g transform="translate(1482,684) scale(0.114,0.114)"><g transform="" style="fill: rgb(20, 23, 56);">
<g>
	<path d="M500,500V0H0C0.001,276.142,223.853,500,500,500z"/>
</g>
</g></g><g transform="translate(1539,684) scale(0.57,0.57)"><g transform="" style="fill: rgb(20, 23, 56);">
<rect width="100" height="100"/>
</g></g><g transform="translate(1596,684) scale(0.57,0.57)"><g transform="" style="fill: rgb(20, 23, 56);">
<rect width="100" height="100"/>
</g></g><g transform="translate(1653,684) scale(0.114,0.114)"><g transform="" style="fill: rgb(20, 23, 56);">
<path d="M250,500c-58.271,0-250,0-250,0s0-170.207,0-250C0,187.676,0,0,0,0s174.261,0,250,0c138.064,0,250,111.929,250,250
	C500,388.064,388.064,500,250,500z"/>
</g></g><g transform="translate(1767,684) scale(0.114,0.114)"><g transform="" style="fill: rgb(20, 23, 56);">
<path d="M250,0c138.077,0,250,111.93,250,250c0,138.077-111.923,250-250,250C111.93,500,0,388.077,0,250C0,111.93,111.93,0,250,0z"
	/>
</g></g><g transform="translate(114,741) scale(0.114,0.114)"><g transform="" style="fill: rgb(20, 23, 56);">
<path d="M250,0c58.27,0,250,0,250,0s0,170.182,0,250c0,62.305,0,250,0,250s-174.219,0-250,0
	C111.881,500,0,388.021,0,250C0,111.963,111.881,0,250,0z"/>
</g></g><g transform="translate(171,741) scale(0.57,0.57)"><g transform="" style="fill: rgb(20, 23, 56);">
<rect width="100" height="100"/>
</g></g><g transform="translate(228,741) scale(0.57,0.57)"><g transform="" style="fill: rgb(20, 23, 56);">
<rect width="100" height="100"/>
</g></g><g transform="translate(285,741) scale(0.57,0.57)"><g transform="" style="fill: rgb(20, 23, 56);">
<rect width="100" height="100"/>
</g></g><g transform="translate(399,741) scale(0.114,0.114)"><g transform="" style="fill: rgb(20, 23, 56);">
<path d="M500,250c0,58.266,0,250,0,250s-170.194,0-250-0.012c-62.324,0.012-250,0-250,0s0-174.241,0-249.994
	C0.006,111.931,111.929,0,249.994,0C388.064,0,500,111.93,500,250z"/>
</g></g><g transform="translate(513,741) scale(0.114,0.114)"><g transform="" style="fill: rgb(20, 23, 56);">
<path d="M250,0c58.27,0,250,0,250,0s0,170.182,0,250c0,62.305,0,250,0,250s-174.219,0-250,0
	C111.881,500,0,388.021,0,250C0,111.963,111.881,0,250,0z"/>
</g></g><g transform="translate(570,741) scale(0.57,0.57)"><g transform="" style="fill: rgb(20, 23, 56);">
<rect width="100" height="100"/>
</g></g><g transform="translate(627,741) scale(0.57,0.57)"><g transform="" style="fill: rgb(20, 23, 56);">
<rect width="100" height="100"/>
</g></g><g transform="translate(684,741) scale(0.114,0.114)"><g transform="" style="fill: rgb(20, 23, 56);">
<path d="M250,500c-58.271,0-250,0-250,0s0-170.207,0-250C0,187.676,0,0,0,0s174.261,0,250,0c138.064,0,250,111.929,250,250
	C500,388.064,388.064,500,250,500z"/>
</g></g><g transform="translate(798,741) scale(0.114,0.114)"><g transform="" style="fill: rgb(20, 23, 56);">
<path d="M500,250c0,58.266,0,250,0,250s-170.194,0-250-0.012c-62.324,0.012-250,0-250,0s0-174.241,0-249.994
	C0.006,111.931,111.929,0,249.994,0C388.064,0,500,111.93,500,250z"/>
</g></g><g transform="translate(969,741) scale(0.114,0.114)"><g transform="" style="fill: rgb(20, 23, 56);">
<path d="M250,0c58.27,0,250,0,250,0s0,170.182,0,250c0,62.305,0,250,0,250s-174.219,0-250,0
	C111.881,500,0,388.021,0,250C0,111.963,111.881,0,250,0z"/>
</g></g><g transform="translate(1026,741) scale(0.57,0.57)"><g transform="" style="fill: rgb(20, 23, 56);">
<rect width="100" height="100"/>
</g></g><g transform="translate(1083,741) scale(0.57,0.57)"><g transform="" style="fill: rgb(20, 23, 56);">
<rect width="100" height="100"/>
</g></g><g transform="translate(1140,741) scale(0.114,0.114)"><g transform="" style="fill: rgb(20, 23, 56);">
<g>
	<path d="M0,0v500h500C500,223.853,276.142,0,0,0z"/>
</g>
</g></g><g transform="translate(1368,741) scale(0.57,0.57)"><g transform="" style="fill: rgb(20, 23, 56);">
<rect width="100" height="100"/>
</g></g><g transform="translate(1425,741) scale(0.114,0.114)"><g transform="" style="fill: rgb(20, 23, 56);">
<g>
	<path d="M0,0v500h500C500,223.853,276.142,0,0,0z"/>
</g>
</g></g><g transform="translate(1539,741) scale(0.114,0.114)"><g transform="" style="fill: rgb(20, 23, 56);">
<path d="M0,250C0,191.729,0,0,0,0s170.201,0,250,0c62.324,0,250,0,250,0s0,174.261,0,250c0,138.064-111.936,250-250,250
	C111.929,500,0,388.064,0,250z"/>
</g></g><g transform="translate(1710,741) scale(0.114,0.114)"><g transform="" style="fill: rgb(20, 23, 56);">
<path d="M250,0c138.077,0,250,111.93,250,250c0,138.077-111.923,250-250,250C111.93,500,0,388.077,0,250C0,111.93,111.93,0,250,0z"
	/>
</g></g><g transform="translate(285,798) scale(0.57,0.57)"><g transform="" style="fill: rgb(20, 23, 56);">
<rect width="100" height="100"/>
</g></g><g transform="translate(342,798) scale(0.57,0.57)"><g transform="" style="fill: rgb(20, 23, 56);">
<rect width="100" height="100"/>
</g></g><g transform="translate(399,798) scale(0.57,0.57)"><g transform="" style="fill: rgb(20, 23, 56);">
<rect width="100" height="100"/>
</g></g><g transform="translate(570,798) scale(0.57,0.57)"><g transform="" style="fill: rgb(20, 23, 56);">
<rect width="100" height="100"/>
</g></g><g transform="translate(627,798) scale(0.114,0.114)"><g transform="" style="fill: rgb(20, 23, 56);">
<g>
	<path d="M500,0H0v500C276.142,500,500,276.142,500,0z"/>
</g>
</g></g><g transform="translate(798,798) scale(0.57,0.57)"><g transform="" style="fill: rgb(20, 23, 56);">
<rect width="100" height="100"/>
</g></g><g transform="translate(855,798) scale(0.114,0.114)"><g transform="" style="fill: rgb(20, 23, 56);">
<g>
	<path d="M0,0v500h500C500,223.853,276.142,0,0,0z"/>
</g>
</g></g><g transform="translate(1026,798) scale(0.57,0.57)"><g transform="" style="fill: rgb(20, 23, 56);">
<rect width="100" height="100"/>
</g></g><g transform="translate(1140,798) scale(0.114,0.114)"><g transform="" style="fill: rgb(20, 23, 56);">
<g>
	<path d="M500,500V0H0C0.001,276.142,223.853,500,500,500z"/>
</g>
</g></g><g transform="translate(1197,798) scale(0.57,0.57)"><g transform="" style="fill: rgb(20, 23, 56);">
<rect width="100" height="100"/>
</g></g><g transform="translate(1254,798) scale(0.57,0.57)"><g transform="" style="fill: rgb(20, 23, 56);">
<rect width="100" height="100"/>
</g></g><g transform="translate(1311,798) scale(0.57,0.57)"><g transform="" style="fill: rgb(20, 23, 56);">
<rect width="100" height="100"/>
</g></g><g transform="translate(1368,798) scale(0.57,0.57)"><g transform="" style="fill: rgb(20, 23, 56);">
<rect width="100" height="100"/>
</g></g><g transform="translate(1425,798) scale(0.57,0.57)"><g transform="" style="fill: rgb(20, 23, 56);">
<rect width="100" height="100"/>
</g></g><g transform="translate(1482,798) scale(0.114,0.114)"><g transform="" style="fill: rgb(20, 23, 56);">
<g>
	<path d="M0,0v500h500C500,223.853,276.142,0,0,0z"/>
</g>
</g></g><g transform="translate(1767,798) scale(0.114,0.114)"><g transform="" style="fill: rgb(20, 23, 56);">
<path d="M250,0c138.077,0,250,111.93,250,250c0,138.077-111.923,250-250,250C111.93,500,0,388.077,0,250C0,111.93,111.93,0,250,0z"
	/>
</g></g><g transform="translate(0,855) scale(0.114,0.114)"><g transform="" style="fill: rgb(20, 23, 56);">
<path d="M250,0c138.077,0,250,111.93,250,250c0,138.077-111.923,250-250,250C111.93,500,0,388.077,0,250C0,111.93,111.93,0,250,0z"
	/>
</g></g><g transform="translate(114,855) scale(0.114,0.114)"><g transform="" style="fill: rgb(20, 23, 56);">
<g>
	<path d="M0,500h500V0C223.861,0.001,0,223.854,0,500z"/>
</g>
</g></g><g transform="translate(171,855) scale(0.114,0.114)"><g transform="" style="fill: rgb(20, 23, 56);">
<g>
	<path d="M0,0v500h500C500,223.853,276.142,0,0,0z"/>
</g>
</g></g><g transform="translate(285,855) scale(0.114,0.114)"><g transform="" style="fill: rgb(20, 23, 56);">
<path d="M0,250C0,191.729,0,0,0,0s170.201,0,250,0c62.324,0,250,0,250,0s0,174.261,0,250c0,138.064-111.936,250-250,250
	C111.929,500,0,388.064,0,250z"/>
</g></g><g transform="translate(399,855) scale(0.114,0.114)"><g transform="" style="fill: rgb(20, 23, 56);">
<g>
	<path d="M500,500V0H0C0.001,276.142,223.853,500,500,500z"/>
</g>
</g></g><g transform="translate(456,855) scale(0.114,0.114)"><g transform="" style="fill: rgb(20, 23, 56);">
<path d="M250,500c-58.271,0-250,0-250,0s0-170.207,0-250C0,187.676,0,0,0,0s174.261,0,250,0c138.064,0,250,111.929,250,250
	C500,388.064,388.064,500,250,500z"/>
</g></g><g transform="translate(570,855) scale(0.57,0.57)"><g transform="" style="fill: rgb(20, 23, 56);">
<rect width="100" height="100"/>
</g></g><g transform="translate(798,855) scale(0.114,0.114)"><g transform="" style="fill: rgb(20, 23, 56);">
<g>
	<path d="M500,500V0H0C0.001,276.142,223.853,500,500,500z"/>
</g>
</g></g><g transform="translate(855,855) scale(0.57,0.57)"><g transform="" style="fill: rgb(20, 23, 56);">
<rect width="100" height="100"/>
</g></g><g transform="translate(912,855) scale(0.57,0.57)"><g transform="" style="fill: rgb(20, 23, 56);">
<rect width="100" height="100"/>
</g></g><g transform="translate(969,855) scale(0.57,0.57)"><g transform="" style="fill: rgb(20, 23, 56);">
<rect width="100" height="100"/>
</g></g><g transform="translate(1026,855) scale(0.114,0.114)"><g transform="" style="fill: rgb(20, 23, 56);">
<g>
	<path d="M500,0H0v500C276.142,500,500,276.142,500,0z"/>
</g>
</g></g><g transform="translate(1197,855) scale(0.57,0.57)"><g transform="" style="fill: rgb(20, 23, 56);">
<rect width="100" height="100"/>
</g></g><g transform="translate(1425,855) scale(0.114,0.114)"><g transform="" style="fill: rgb(20, 23, 56);">
<g>
	<path d="M500,500V0H0C0.001,276.142,223.853,500,500,500z"/>
</g>
</g></g><g transform="translate(1482,855) scale(0.57,0.57)"><g transform="" style="fill: rgb(20, 23, 56);">
<rect width="100" height="100"/>
</g></g><g transform="translate(57,912) scale(0.114,0.114)"><g transform="" style="fill: rgb(20, 23, 56);">
<path d="M250,0c58.27,0,250,0,250,0s0,170.182,0,250c0,62.305,0,250,0,250s-174.219,0-250,0
	C111.881,500,0,388.021,0,250C0,111.963,111.881,0,250,0z"/>
</g></g><g transform="translate(114,912) scale(0.57,0.57)"><g transform="" style="fill: rgb(20, 23, 56);">
<rect width="100" height="100"/>
</g></g><g transform="translate(171,912) scale(0.114,0.114)"><g transform="" style="fill: rgb(20, 23, 56);">
<g>
	<path d="M500,0H0v500C276.142,500,500,276.142,500,0z"/>
</g>
</g></g><g transform="translate(342,912) scale(0.114,0.114)"><g transform="" style="fill: rgb(20, 23, 56);">
<path d="M250,0c138.077,0,250,111.93,250,250c0,138.077-111.923,250-250,250C111.93,500,0,388.077,0,250C0,111.93,111.93,0,250,0z"
	/>
</g></g><g transform="translate(513,912) scale(0.114,0.114)"><g transform="" style="fill: rgb(20, 23, 56);">
<g>
	<path d="M0,500h500V0C223.861,0.001,0,223.854,0,500z"/>
</g>
</g></g><g transform="translate(570,912) scale(0.57,0.57)"><g transform="" style="fill: rgb(20, 23, 56);">
<rect width="100" height="100"/>
</g></g><g transform="translate(684,912) scale(0.114,0.114)"><g transform="" style="fill: rgb(20, 23, 56);">
<g>
	<path d="M0,500h500V0C223.861,0.001,0,223.854,0,500z"/>
</g>
</g></g><g transform="translate(741,912) scale(0.114,0.114)"><g transform="" style="fill: rgb(20, 23, 56);">
<path d="M250,500c-58.271,0-250,0-250,0s0-170.207,0-250C0,187.676,0,0,0,0s174.261,0,250,0c138.064,0,250,111.929,250,250
	C500,388.064,388.064,500,250,500z"/>
</g></g><g transform="translate(969,912) scale(0.114,0.114)"><g transform="" style="fill: rgb(20, 23, 56);">
<path d="M0,250C0,191.729,0,0,0,0s170.201,0,250,0c62.324,0,250,0,250,0s0,174.261,0,250c0,138.064-111.936,250-250,250
	C111.929,500,0,388.064,0,250z"/>
</g></g><g transform="translate(1083,912) scale(0.114,0.114)"><g transform="" style="fill: rgb(20, 23, 56);">
<path d="M250,0c58.27,0,250,0,250,0s0,170.182,0,250c0,62.305,0,250,0,250s-174.219,0-250,0
	C111.881,500,0,388.021,0,250C0,111.963,111.881,0,250,0z"/>
</g></g><g transform="translate(1140,912) scale(0.57,0.57)"><g transform="" style="fill: rgb(20, 23, 56);">
<rect width="100" height="100"/>
</g></g><g transform="translate(1197,912) scale(0.57,0.57)"><g transform="" style="fill: rgb(20, 23, 56);">
<rect width="100" height="100"/>
</g></g><g transform="translate(1254,912) scale(0.114,0.114)"><g transform="" style="fill: rgb(20, 23, 56);">
<g>
	<path d="M0,0v500h500C500,223.853,276.142,0,0,0z"/>
</g>
</g></g><g transform="translate(1368,912) scale(0.114,0.114)"><g transform="" style="fill: rgb(20, 23, 56);">
<path d="M500,250c0,58.266,0,250,0,250s-170.194,0-250-0.012c-62.324,0.012-250,0-250,0s0-174.241,0-249.994
	C0.006,111.931,111.929,0,249.994,0C388.064,0,500,111.93,500,250z"/>
</g></g><g transform="translate(1482,912) scale(0.114,0.114)"><g transform="" style="fill: rgb(20, 23, 56);">
<path d="M0,250C0,191.729,0,0,0,0s170.201,0,250,0c62.324,0,250,0,250,0s0,174.261,0,250c0,138.064-111.936,250-250,250
	C111.929,500,0,388.064,0,250z"/>
</g></g><g transform="translate(1596,912) scale(0.114,0.114)"><g transform="" style="fill: rgb(20, 23, 56);">
<path d="M250,0c58.27,0,250,0,250,0s0,170.182,0,250c0,62.305,0,250,0,250s-174.219,0-250,0
	C111.881,500,0,388.021,0,250C0,111.963,111.881,0,250,0z"/>
</g></g><g transform="translate(1653,912) scale(0.114,0.114)"><g transform="" style="fill: rgb(20, 23, 56);">
<g>
	<path d="M0,0v500h500C500,223.853,276.142,0,0,0z"/>
</g>
</g></g><g transform="translate(1767,912) scale(0.114,0.114)"><g transform="" style="fill: rgb(20, 23, 56);">
<path d="M500,250c0,58.266,0,250,0,250s-170.194,0-250-0.012c-62.324,0.012-250,0-250,0s0-174.241,0-249.994
	C0.006,111.931,111.929,0,249.994,0C388.064,0,500,111.93,500,250z"/>
</g></g><g transform="translate(0,969) scale(0.114,0.114)"><g transform="" style="fill: rgb(20, 23, 56);">
<path d="M250,0c138.077,0,250,111.93,250,250c0,138.077-111.923,250-250,250C111.93,500,0,388.077,0,250C0,111.93,111.93,0,250,0z"
	/>
</g></g><g transform="translate(228,969) scale(0.114,0.114)"><g transform="" style="fill: rgb(20, 23, 56);">
<g>
	<path d="M0,500h500V0C223.861,0.001,0,223.854,0,500z"/>
</g>
</g></g><g transform="translate(285,969) scale(0.114,0.114)"><g transform="" style="fill: rgb(20, 23, 56);">
<path d="M250,500c-58.271,0-250,0-250,0s0-170.207,0-250C0,187.676,0,0,0,0s174.261,0,250,0c138.064,0,250,111.929,250,250
	C500,388.064,388.064,500,250,500z"/>
</g></g><g transform="translate(399,969) scale(0.114,0.114)"><g transform="" style="fill: rgb(20, 23, 56);">
<g>
	<path d="M0,500h500V0C223.861,0.001,0,223.854,0,500z"/>
</g>
</g></g><g transform="translate(456,969) scale(0.57,0.57)"><g transform="" style="fill: rgb(20, 23, 56);">
<rect width="100" height="100"/>
</g></g><g transform="translate(513,969) scale(0.57,0.57)"><g transform="" style="fill: rgb(20, 23, 56);">
<rect width="100" height="100"/>
</g></g><g transform="translate(570,969) scale(0.57,0.57)"><g transform="" style="fill: rgb(20, 23, 56);">
<rect width="100" height="100"/>
</g></g><g transform="translate(627,969) scale(0.57,0.57)"><g transform="" style="fill: rgb(20, 23, 56);">
<rect width="100" height="100"/>
</g></g><g transform="translate(684,969) scale(0.114,0.114)"><g transform="" style="fill: rgb(20, 23, 56);">
<g>
	<path d="M500,0H0v500C276.142,500,500,276.142,500,0z"/>
</g>
</g></g><g transform="translate(798,969) scale(0.114,0.114)"><g transform="" style="fill: rgb(20, 23, 56);">
<g>
	<path d="M0,500h500V0C223.861,0.001,0,223.854,0,500z"/>
</g>
</g></g><g transform="translate(855,969) scale(0.57,0.57)"><g transform="" style="fill: rgb(20, 23, 56);">
<rect width="100" height="100"/>
</g></g><g transform="translate(912,969) scale(0.114,0.114)"><g transform="" style="fill: rgb(20, 23, 56);">
<g>
	<path d="M0,0v500h500C500,223.853,276.142,0,0,0z"/>
</g>
</g></g><g transform="translate(1254,969) scale(0.57,0.57)"><g transform="" style="fill: rgb(20, 23, 56);">
<rect width="100" height="100"/>
</g></g><g transform="translate(1311,969) scale(0.57,0.57)"><g transform="" style="fill: rgb(20, 23, 56);">
<rect width="100" height="100"/>
</g></g><g transform="translate(1368,969) scale(0.57,0.57)"><g transform="" style="fill: rgb(20, 23, 56);">
<rect width="100" height="100"/>
</g></g><g transform="translate(1653,969) scale(0.57,0.57)"><g transform="" style="fill: rgb(20, 23, 56);">
<rect width="100" height="100"/>
</g></g><g transform="translate(1710,969) scale(0.57,0.57)"><g transform="" style="fill: rgb(20, 23, 56);">
<rect width="100" height="100"/>
</g></g><g transform="translate(1767,969) scale(0.57,0.57)"><g transform="" style="fill: rgb(20, 23, 56);">
<rect width="100" height="100"/>
</g></g><g transform="translate(57,1026) scale(0.114,0.114)"><g transform="" style="fill: rgb(20, 23, 56);">
<path d="M500,250c0,58.266,0,250,0,250s-170.194,0-250-0.012c-62.324,0.012-250,0-250,0s0-174.241,0-249.994
	C0.006,111.931,111.929,0,249.994,0C388.064,0,500,111.93,500,250z"/>
</g></g><g transform="translate(171,1026) scale(0.114,0.114)"><g transform="" style="fill: rgb(20, 23, 56);">
<path d="M250,0c58.27,0,250,0,250,0s0,170.182,0,250c0,62.305,0,250,0,250s-174.219,0-250,0
	C111.881,500,0,388.021,0,250C0,111.963,111.881,0,250,0z"/>
</g></g><g transform="translate(228,1026) scale(0.114,0.114)"><g transform="" style="fill: rgb(20, 23, 56);">
<g>
	<path d="M500,0H0v500C276.142,500,500,276.142,500,0z"/>
</g>
</g></g><g transform="translate(342,1026) scale(0.114,0.114)"><g transform="" style="fill: rgb(20, 23, 56);">
<path d="M250,0c58.27,0,250,0,250,0s0,170.182,0,250c0,62.305,0,250,0,250s-174.219,0-250,0
	C111.881,500,0,388.021,0,250C0,111.963,111.881,0,250,0z"/>
</g></g><g transform="translate(399,1026) scale(0.57,0.57)"><g transform="" style="fill: rgb(20, 23, 56);">
<rect width="100" height="100"/>
</g></g><g transform="translate(627,1026) scale(0.114,0.114)"><g transform="" style="fill: rgb(20, 23, 56);">
<path d="M0,250C0,191.729,0,0,0,0s170.201,0,250,0c62.324,0,250,0,250,0s0,174.261,0,250c0,138.064-111.936,250-250,250
	C111.929,500,0,388.064,0,250z"/>
</g></g><g transform="translate(798,1026) scale(0.114,0.114)"><g transform="" style="fill: rgb(20, 23, 56);">
<g>
	<path d="M500,500V0H0C0.001,276.142,223.853,500,500,500z"/>
</g>
</g></g><g transform="translate(855,1026) scale(0.57,0.57)"><g transform="" style="fill: rgb(20, 23, 56);">
<rect width="100" height="100"/>
</g></g><g transform="translate(912,1026) scale(0.57,0.57)"><g transform="" style="fill: rgb(20, 23, 56);">
<rect width="100" height="100"/>
</g></g><g transform="translate(969,1026) scale(0.114,0.114)"><g transform="" style="fill: rgb(20, 23, 56);">
<g>
	<path d="M0,0v500h500C500,223.853,276.142,0,0,0z"/>
</g>
</g></g><g transform="translate(1197,1026) scale(0.114,0.114)"><g transform="" style="fill: rgb(20, 23, 56);">
<g>
	<path d="M0,500h500V0C223.861,0.001,0,223.854,0,500z"/>
</g>
</g></g><g transform="translate(1254,1026) scale(0.57,0.57)"><g transform="" style="fill: rgb(20, 23, 56);">
<rect width="100" height="100"/>
</g></g><g transform="translate(1311,1026) scale(0.57,0.57)"><g transform="" style="fill: rgb(20, 23, 56);">
<rect width="100" height="100"/>
</g></g><g transform="translate(1368,1026) scale(0.57,0.57)"><g transform="" style="fill: rgb(20, 23, 56);">
<rect width="100" height="100"/>
</g></g><g transform="translate(1482,1026) scale(0.114,0.114)"><g transform="" style="fill: rgb(20, 23, 56);">
<path d="M250,0c58.27,0,250,0,250,0s0,170.182,0,250c0,62.305,0,250,0,250s-174.219,0-250,0
	C111.881,500,0,388.021,0,250C0,111.963,111.881,0,250,0z"/>
</g></g><g transform="translate(1539,1026) scale(0.114,0.114)"><g transform="" style="fill: rgb(20, 23, 56);">
<g>
	<path d="M0,0v500h500C500,223.853,276.142,0,0,0z"/>
</g>
</g></g><g transform="translate(1653,1026) scale(0.114,0.114)"><g transform="" style="fill: rgb(20, 23, 56);">
<path d="M0,250C0,191.729,0,0,0,0s170.201,0,250,0c62.324,0,250,0,250,0s0,174.261,0,250c0,138.064-111.936,250-250,250
	C111.929,500,0,388.064,0,250z"/>
</g></g><g transform="translate(1767,1026) scale(0.57,0.57)"><g transform="" style="fill: rgb(20, 23, 56);">
<rect width="100" height="100"/>
</g></g><g transform="translate(57,1083) scale(0.57,0.57)"><g transform="" style="fill: rgb(20, 23, 56);">
<rect width="100" height="100"/>
</g></g><g transform="translate(114,1083) scale(0.114,0.114)"><g transform="" style="fill: rgb(20, 23, 56);">
<path d="M250,500c-58.271,0-250,0-250,0s0-170.207,0-250C0,187.676,0,0,0,0s174.261,0,250,0c138.064,0,250,111.929,250,250
	C500,388.064,388.064,500,250,500z"/>
</g></g><g transform="translate(399,1083) scale(0.57,0.57)"><g transform="" style="fill: rgb(20, 23, 56);">
<rect width="100" height="100"/>
</g></g><g transform="translate(513,1083) scale(0.114,0.114)"><g transform="" style="fill: rgb(20, 23, 56);">
<path d="M250,0c58.27,0,250,0,250,0s0,170.182,0,250c0,62.305,0,250,0,250s-174.219,0-250,0
	C111.881,500,0,388.021,0,250C0,111.963,111.881,0,250,0z"/>
</g></g><g transform="translate(570,1083) scale(0.114,0.114)"><g transform="" style="fill: rgb(20, 23, 56);">
<g>
	<path d="M0,0v500h500C500,223.853,276.142,0,0,0z"/>
</g>
</g></g><g transform="translate(855,1083) scale(0.114,0.114)"><g transform="" style="fill: rgb(20, 23, 56);">
<path d="M0,250C0,191.729,0,0,0,0s170.201,0,250,0c62.324,0,250,0,250,0s0,174.261,0,250c0,138.064-111.936,250-250,250
	C111.929,500,0,388.064,0,250z"/>
</g></g><g transform="translate(969,1083) scale(0.114,0.114)"><g transform="" style="fill: rgb(20, 23, 56);">
<g>
	<path d="M500,500V0H0C0.001,276.142,223.853,500,500,500z"/>
</g>
</g></g><g transform="translate(1026,1083) scale(0.57,0.57)"><g transform="" style="fill: rgb(20, 23, 56);">
<rect width="100" height="100"/>
</g></g><g transform="translate(1083,1083) scale(0.57,0.57)"><g transform="" style="fill: rgb(20, 23, 56);">
<rect width="100" height="100"/>
</g></g><g transform="translate(1140,1083) scale(0.57,0.57)"><g transform="" style="fill: rgb(20, 23, 56);">
<rect width="100" height="100"/>
</g></g><g transform="translate(1197,1083) scale(0.114,0.114)"><g transform="" style="fill: rgb(20, 23, 56);">
<g>
	<path d="M500,0H0v500C276.142,500,500,276.142,500,0z"/>
</g>
</g></g><g transform="translate(1368,1083) scale(0.114,0.114)"><g transform="" style="fill: rgb(20, 23, 56);">
<g>
	<path d="M500,500V0H0C0.001,276.142,223.853,500,500,500z"/>
</g>
</g></g><g transform="translate(1425,1083) scale(0.114,0.114)"><g transform="" style="fill: rgb(20, 23, 56);">
<path d="M250,500c-58.271,0-250,0-250,0s0-170.207,0-250C0,187.676,0,0,0,0s174.261,0,250,0c138.064,0,250,111.929,250,250
	C500,388.064,388.064,500,250,500z"/>
</g></g><g transform="translate(1539,1083) scale(0.114,0.114)"><g transform="" style="fill: rgb(20, 23, 56);">
<path d="M0,250C0,191.729,0,0,0,0s170.201,0,250,0c62.324,0,250,0,250,0s0,174.261,0,250c0,138.064-111.936,250-250,250
	C111.929,500,0,388.064,0,250z"/>
</g></g><g transform="translate(1767,1083) scale(0.57,0.57)"><g transform="" style="fill: rgb(20, 23, 56);">
<rect width="100" height="100"/>
</g></g><g transform="translate(1824,1083) scale(0.114,0.114)"><g transform="" style="fill: rgb(20, 23, 56);">
<g>
	<path d="M0,0v500h500C500,223.853,276.142,0,0,0z"/>
</g>
</g></g><g transform="translate(57,1140) scale(0.114,0.114)"><g transform="" style="fill: rgb(20, 23, 56);">
<path d="M0,250C0,191.729,0,0,0,0s170.201,0,250,0c62.324,0,250,0,250,0s0,174.261,0,250c0,138.064-111.936,250-250,250
	C111.929,500,0,388.064,0,250z"/>
</g></g><g transform="translate(171,1140) scale(0.114,0.114)"><g transform="" style="fill: rgb(20, 23, 56);">
<path d="M500,250c0,58.266,0,250,0,250s-170.194,0-250-0.012c-62.324,0.012-250,0-250,0s0-174.241,0-249.994
	C0.006,111.931,111.929,0,249.994,0C388.064,0,500,111.93,500,250z"/>
</g></g><g transform="translate(285,1140) scale(0.114,0.114)"><g transform="" style="fill: rgb(20, 23, 56);">
<g>
	<path d="M0,500h500V0C223.861,0.001,0,223.854,0,500z"/>
</g>
</g></g><g transform="translate(342,1140) scale(0.57,0.57)"><g transform="" style="fill: rgb(20, 23, 56);">
<rect width="100" height="100"/>
</g></g><g transform="translate(399,1140) scale(0.57,0.57)"><g transform="" style="fill: rgb(20, 23, 56);">
<rect width="100" height="100"/>
</g></g><g transform="translate(456,1140) scale(0.114,0.114)"><g transform="" style="fill: rgb(20, 23, 56);">
<path d="M250,500c-58.271,0-250,0-250,0s0-170.207,0-250C0,187.676,0,0,0,0s174.261,0,250,0c138.064,0,250,111.929,250,250
	C500,388.064,388.064,500,250,500z"/>
</g></g><g transform="translate(570,1140) scale(0.114,0.114)"><g transform="" style="fill: rgb(20, 23, 56);">
<g>
	<path d="M500,500V0H0C0.001,276.142,223.853,500,500,500z"/>
</g>
</g></g><g transform="translate(627,1140) scale(0.57,0.57)"><g transform="" style="fill: rgb(20, 23, 56);">
<rect width="100" height="100"/>
</g></g><g transform="translate(684,1140) scale(0.57,0.57)"><g transform="" style="fill: rgb(20, 23, 56);">
<rect width="100" height="100"/>
</g></g><g transform="translate(741,1140) scale(0.57,0.57)"><g transform="" style="fill: rgb(20, 23, 56);">
<rect width="100" height="100"/>
</g></g><g transform="translate(798,1140) scale(0.114,0.114)"><g transform="" style="fill: rgb(20, 23, 56);">
<path d="M250,500c-58.271,0-250,0-250,0s0-170.207,0-250C0,187.676,0,0,0,0s174.261,0,250,0c138.064,0,250,111.929,250,250
	C500,388.064,388.064,500,250,500z"/>
</g></g><g transform="translate(1026,1140) scale(0.114,0.114)"><g transform="" style="fill: rgb(20, 23, 56);">
<path d="M0,250C0,191.729,0,0,0,0s170.201,0,250,0c62.324,0,250,0,250,0s0,174.261,0,250c0,138.064-111.936,250-250,250
	C111.929,500,0,388.064,0,250z"/>
</g></g><g transform="translate(1140,1140) scale(0.114,0.114)"><g transform="" style="fill: rgb(20, 23, 56);">
<path d="M0,250C0,191.729,0,0,0,0s170.201,0,250,0c62.324,0,250,0,250,0s0,174.261,0,250c0,138.064-111.936,250-250,250
	C111.929,500,0,388.064,0,250z"/>
</g></g><g transform="translate(1482,1140) scale(0.114,0.114)"><g transform="" style="fill: rgb(20, 23, 56);">
<path d="M250,0c138.077,0,250,111.93,250,250c0,138.077-111.923,250-250,250C111.93,500,0,388.077,0,250C0,111.93,111.93,0,250,0z"
	/>
</g></g><g transform="translate(1596,1140) scale(0.114,0.114)"><g transform="" style="fill: rgb(20, 23, 56);">
<path d="M250,0c58.27,0,250,0,250,0s0,170.182,0,250c0,62.305,0,250,0,250s-174.219,0-250,0
	C111.881,500,0,388.021,0,250C0,111.963,111.881,0,250,0z"/>
</g></g><g transform="translate(1653,1140) scale(0.114,0.114)"><g transform="" style="fill: rgb(20, 23, 56);">
<path d="M250,500c-58.271,0-250,0-250,0s0-170.207,0-250C0,187.676,0,0,0,0s174.261,0,250,0c138.064,0,250,111.929,250,250
	C500,388.064,388.064,500,250,500z"/>
</g></g><g transform="translate(1767,1140) scale(0.57,0.57)"><g transform="" style="fill: rgb(20, 23, 56);">
<rect width="100" height="100"/>
</g></g><g transform="translate(1824,1140) scale(0.114,0.114)"><g transform="" style="fill: rgb(20, 23, 56);">
<g>
	<path d="M500,0H0v500C276.142,500,500,276.142,500,0z"/>
</g>
</g></g><g transform="translate(0,1197) scale(0.114,0.114)"><g transform="" style="fill: rgb(20, 23, 56);">
<path d="M250,0c138.077,0,250,111.93,250,250c0,138.077-111.923,250-250,250C111.93,500,0,388.077,0,250C0,111.93,111.93,0,250,0z"
	/>
</g></g><g transform="translate(171,1197) scale(0.114,0.114)"><g transform="" style="fill: rgb(20, 23, 56);">
<g>
	<path d="M500,500V0H0C0.001,276.142,223.853,500,500,500z"/>
</g>
</g></g><g transform="translate(228,1197) scale(0.57,0.57)"><g transform="" style="fill: rgb(20, 23, 56);">
<rect width="100" height="100"/>
</g></g><g transform="translate(285,1197) scale(0.57,0.57)"><g transform="" style="fill: rgb(20, 23, 56);">
<rect width="100" height="100"/>
</g></g><g transform="translate(513,1197) scale(0.114,0.114)"><g transform="" style="fill: rgb(20, 23, 56);">
<path d="M500,250c0,58.266,0,250,0,250s-170.194,0-250-0.012c-62.324,0.012-250,0-250,0s0-174.241,0-249.994
	C0.006,111.931,111.929,0,249.994,0C388.064,0,500,111.93,500,250z"/>
</g></g><g transform="translate(627,1197) scale(0.57,0.57)"><g transform="" style="fill: rgb(20, 23, 56);">
<rect width="100" height="100"/>
</g></g><g transform="translate(684,1197) scale(0.57,0.57)"><g transform="" style="fill: rgb(20, 23, 56);">
<rect width="100" height="100"/>
</g></g><g transform="translate(912,1197) scale(0.114,0.114)"><g transform="" style="fill: rgb(20, 23, 56);">
<path d="M500,250c0,58.266,0,250,0,250s-170.194,0-250-0.012c-62.324,0.012-250,0-250,0s0-174.241,0-249.994
	C0.006,111.931,111.929,0,249.994,0C388.064,0,500,111.93,500,250z"/>
</g></g><g transform="translate(1083,1197) scale(0.114,0.114)"><g transform="" style="fill: rgb(20, 23, 56);">
<path d="M500,250c0,58.266,0,250,0,250s-170.194,0-250-0.012c-62.324,0.012-250,0-250,0s0-174.241,0-249.994
	C0.006,111.931,111.929,0,249.994,0C388.064,0,500,111.93,500,250z"/>
</g></g><g transform="translate(1197,1197) scale(0.114,0.114)"><g transform="" style="fill: rgb(20, 23, 56);">
<path d="M250,0c58.27,0,250,0,250,0s0,170.182,0,250c0,62.305,0,250,0,250s-174.219,0-250,0
	C111.881,500,0,388.021,0,250C0,111.963,111.881,0,250,0z"/>
</g></g><g transform="translate(1254,1197) scale(0.57,0.57)"><g transform="" style="fill: rgb(20, 23, 56);">
<rect width="100" height="100"/>
</g></g><g transform="translate(1311,1197) scale(0.114,0.114)"><g transform="" style="fill: rgb(20, 23, 56);">
<g>
	<path d="M0,0v500h500C500,223.853,276.142,0,0,0z"/>
</g>
</g></g><g transform="translate(1425,1197) scale(0.114,0.114)"><g transform="" style="fill: rgb(20, 23, 56);">
<path d="M500,250c0,58.266,0,250,0,250s-170.194,0-250-0.012c-62.324,0.012-250,0-250,0s0-174.241,0-249.994
	C0.006,111.931,111.929,0,249.994,0C388.064,0,500,111.93,500,250z"/>
</g></g><g transform="translate(1539,1197) scale(0.114,0.114)"><g transform="" style="fill: rgb(20, 23, 56);">
<path d="M250,0c138.077,0,250,111.93,250,250c0,138.077-111.923,250-250,250C111.93,500,0,388.077,0,250C0,111.93,111.93,0,250,0z"
	/>
</g></g><g transform="translate(1710,1197) scale(0.114,0.114)"><g transform="" style="fill: rgb(20, 23, 56);">
<g>
	<path d="M0,500h500V0C223.861,0.001,0,223.854,0,500z"/>
</g>
</g></g><g transform="translate(1767,1197) scale(0.57,0.57)"><g transform="" style="fill: rgb(20, 23, 56);">
<rect width="100" height="100"/>
</g></g><g transform="translate(228,1254) scale(0.114,0.114)"><g transform="" style="fill: rgb(20, 23, 56);">
<g>
	<path d="M500,500V0H0C0.001,276.142,223.853,500,500,500z"/>
</g>
</g></g><g transform="translate(285,1254) scale(0.57,0.57)"><g transform="" style="fill: rgb(20, 23, 56);">
<rect width="100" height="100"/>
</g></g><g transform="translate(342,1254) scale(0.57,0.57)"><g transform="" style="fill: rgb(20, 23, 56);">
<rect width="100" height="100"/>
</g></g><g transform="translate(399,1254) scale(0.57,0.57)"><g transform="" style="fill: rgb(20, 23, 56);">
<rect width="100" height="100"/>
</g></g><g transform="translate(456,1254) scale(0.57,0.57)"><g transform="" style="fill: rgb(20, 23, 56);">
<rect width="100" height="100"/>
</g></g><g transform="translate(513,1254) scale(0.57,0.57)"><g transform="" style="fill: rgb(20, 23, 56);">
<rect width="100" height="100"/>
</g></g><g transform="translate(570,1254) scale(0.57,0.57)"><g transform="" style="fill: rgb(20, 23, 56);">
<rect width="100" height="100"/>
</g></g><g transform="translate(627,1254) scale(0.57,0.57)"><g transform="" style="fill: rgb(20, 23, 56);">
<rect width="100" height="100"/>
</g></g><g transform="translate(684,1254) scale(0.57,0.57)"><g transform="" style="fill: rgb(20, 23, 56);">
<rect width="100" height="100"/>
</g></g><g transform="translate(741,1254) scale(0.57,0.57)"><g transform="" style="fill: rgb(20, 23, 56);">
<rect width="100" height="100"/>
</g></g><g transform="translate(798,1254) scale(0.114,0.114)"><g transform="" style="fill: rgb(20, 23, 56);">
<g>
	<path d="M0,0v500h500C500,223.853,276.142,0,0,0z"/>
</g>
</g></g><g transform="translate(912,1254) scale(0.114,0.114)"><g transform="" style="fill: rgb(20, 23, 56);">
<path d="M0,250C0,191.729,0,0,0,0s170.201,0,250,0c62.324,0,250,0,250,0s0,174.261,0,250c0,138.064-111.936,250-250,250
	C111.929,500,0,388.064,0,250z"/>
</g></g><g transform="translate(1026,1254) scale(0.114,0.114)"><g transform="" style="fill: rgb(20, 23, 56);">
<g>
	<path d="M0,500h500V0C223.861,0.001,0,223.854,0,500z"/>
</g>
</g></g><g transform="translate(1083,1254) scale(0.57,0.57)"><g transform="" style="fill: rgb(20, 23, 56);">
<rect width="100" height="100"/>
</g></g><g transform="translate(1254,1254) scale(0.57,0.57)"><g transform="" style="fill: rgb(20, 23, 56);">
<rect width="100" height="100"/>
</g></g><g transform="translate(1311,1254) scale(0.114,0.114)"><g transform="" style="fill: rgb(20, 23, 56);">
<g>
	<path d="M500,0H0v500C276.142,500,500,276.142,500,0z"/>
</g>
</g></g><g transform="translate(1425,1254) scale(0.57,0.57)"><g transform="" style="fill: rgb(20, 23, 56);">
<rect width="100" height="100"/>
</g></g><g transform="translate(1653,1254) scale(0.114,0.114)"><g transform="" style="fill: rgb(20, 23, 56);">
<path d="M250,0c58.27,0,250,0,250,0s0,170.182,0,250c0,62.305,0,250,0,250s-174.219,0-250,0
	C111.881,500,0,388.021,0,250C0,111.963,111.881,0,250,0z"/>
</g></g><g transform="translate(1710,1254) scale(0.57,0.57)"><g transform="" style="fill: rgb(20, 23, 56);">
<rect width="100" height="100"/>
</g></g><g transform="translate(1767,1254) scale(0.57,0.57)"><g transform="" style="fill: rgb(20, 23, 56);">
<rect width="100" height="100"/>
</g></g><g transform="translate(171,1311) scale(0.114,0.114)"><g transform="" style="fill: rgb(20, 23, 56);">
<path d="M500,250c0,58.266,0,250,0,250s-170.194,0-250-0.012c-62.324,0.012-250,0-250,0s0-174.241,0-249.994
	C0.006,111.931,111.929,0,249.994,0C388.064,0,500,111.93,500,250z"/>
</g></g><g transform="translate(513,1311) scale(0.57,0.57)"><g transform="" style="fill: rgb(20, 23, 56);">
<rect width="100" height="100"/>
</g></g><g transform="translate(627,1311) scale(0.114,0.114)"><g transform="" style="fill: rgb(20, 23, 56);">
<g>
	<path d="M500,500V0H0C0.001,276.142,223.853,500,500,500z"/>
</g>
</g></g><g transform="translate(684,1311) scale(0.57,0.57)"><g transform="" style="fill: rgb(20, 23, 56);">
<rect width="100" height="100"/>
</g></g><g transform="translate(741,1311) scale(0.57,0.57)"><g transform="" style="fill: rgb(20, 23, 56);">
<rect width="100" height="100"/>
</g></g><g transform="translate(798,1311) scale(0.57,0.57)"><g transform="" style="fill: rgb(20, 23, 56);">
<rect width="100" height="100"/>
</g></g><g transform="translate(969,1311) scale(0.114,0.114)"><g transform="" style="fill: rgb(20, 23, 56);">
<g>
	<path d="M0,500h500V0C223.861,0.001,0,223.854,0,500z"/>
</g>
</g></g><g transform="translate(1026,1311) scale(0.57,0.57)"><g transform="" style="fill: rgb(20, 23, 56);">
<rect width="100" height="100"/>
</g></g><g transform="translate(1083,1311) scale(0.57,0.57)"><g transform="" style="fill: rgb(20, 23, 56);">
<rect width="100" height="100"/>
</g></g><g transform="translate(1140,1311) scale(0.57,0.57)"><g transform="" style="fill: rgb(20, 23, 56);">
<rect width="100" height="100"/>
</g></g><g transform="translate(1197,1311) scale(0.57,0.57)"><g transform="" style="fill: rgb(20, 23, 56);">
<rect width="100" height="100"/>
</g></g><g transform="translate(1254,1311) scale(0.57,0.57)"><g transform="" style="fill: rgb(20, 23, 56);">
<rect width="100" height="100"/>
</g></g><g transform="translate(1368,1311) scale(0.114,0.114)"><g transform="" style="fill: rgb(20, 23, 56);">
<g>
	<path d="M0,500h500V0C223.861,0.001,0,223.854,0,500z"/>
</g>
</g></g><g transform="translate(1425,1311) scale(0.57,0.57)"><g transform="" style="fill: rgb(20, 23, 56);">
<rect width="100" height="100"/>
</g></g><g transform="translate(1482,1311) scale(0.114,0.114)"><g transform="" style="fill: rgb(20, 23, 56);">
<g>
	<path d="M0,0v500h500C500,223.853,276.142,0,0,0z"/>
</g>
</g></g><g transform="translate(1767,1311) scale(0.57,0.57)"><g transform="" style="fill: rgb(20, 23, 56);">
<rect width="100" height="100"/>
</g></g><g transform="translate(1824,1311) scale(0.114,0.114)"><g transform="" style="fill: rgb(20, 23, 56);">
<path d="M250,500c-58.271,0-250,0-250,0s0-170.207,0-250C0,187.676,0,0,0,0s174.261,0,250,0c138.064,0,250,111.929,250,250
	C500,388.064,388.064,500,250,500z"/>
</g></g><g transform="translate(0,1368) scale(0.114,0.114)"><g transform="" style="fill: rgb(20, 23, 56);">
<path d="M250,0c58.27,0,250,0,250,0s0,170.182,0,250c0,62.305,0,250,0,250s-174.219,0-250,0
	C111.881,500,0,388.021,0,250C0,111.963,111.881,0,250,0z"/>
</g></g><g transform="translate(57,1368) scale(0.57,0.57)"><g transform="" style="fill: rgb(20, 23, 56);">
<rect width="100" height="100"/>
</g></g><g transform="translate(114,1368) scale(0.57,0.57)"><g transform="" style="fill: rgb(20, 23, 56);">
<rect width="100" height="100"/>
</g></g><g transform="translate(171,1368) scale(0.114,0.114)"><g transform="" style="fill: rgb(20, 23, 56);">
<g>
	<path d="M500,0H0v500C276.142,500,500,276.142,500,0z"/>
</g>
</g></g><g transform="translate(342,1368) scale(0.114,0.114)"><g transform="" style="fill: rgb(20, 23, 56);">
<path d="M250,0c138.077,0,250,111.93,250,250c0,138.077-111.923,250-250,250C111.93,500,0,388.077,0,250C0,111.93,111.93,0,250,0z"
	/>
</g></g><g transform="translate(513,1368) scale(0.57,0.57)"><g transform="" style="fill: rgb(20, 23, 56);">
<rect width="100" height="100"/>
</g></g><g transform="translate(570,1368) scale(0.114,0.114)"><g transform="" style="fill: rgb(20, 23, 56);">
<g>
	<path d="M0,0v500h500C500,223.853,276.142,0,0,0z"/>
</g>
</g></g><g transform="translate(684,1368) scale(0.114,0.114)"><g transform="" style="fill: rgb(20, 23, 56);">
<path d="M0,250C0,191.729,0,0,0,0s170.201,0,250,0c62.324,0,250,0,250,0s0,174.261,0,250c0,138.064-111.936,250-250,250
	C111.929,500,0,388.064,0,250z"/>
</g></g><g transform="translate(798,1368) scale(0.114,0.114)"><g transform="" style="fill: rgb(20, 23, 56);">
<g>
	<path d="M500,500V0H0C0.001,276.142,223.853,500,500,500z"/>
</g>
</g></g><g transform="translate(855,1368) scale(0.114,0.114)"><g transform="" style="fill: rgb(20, 23, 56);">
<g>
	<path d="M0,0v500h500C500,223.853,276.142,0,0,0z"/>
</g>
</g></g><g transform="translate(969,1368) scale(0.57,0.57)"><g transform="" style="fill: rgb(20, 23, 56);">
<rect width="100" height="100"/>
</g></g><g transform="translate(1140,1368) scale(0.57,0.57)"><g transform="" style="fill: rgb(20, 23, 56);">
<rect width="100" height="100"/>
</g></g><g transform="translate(1197,1368) scale(0.57,0.57)"><g transform="" style="fill: rgb(20, 23, 56);">
<rect width="100" height="100"/>
</g></g><g transform="translate(1254,1368) scale(0.57,0.57)"><g transform="" style="fill: rgb(20, 23, 56);">
<rect width="100" height="100"/>
</g></g><g transform="translate(1311,1368) scale(0.57,0.57)"><g transform="" style="fill: rgb(20, 23, 56);">
<rect width="100" height="100"/>
</g></g><g transform="translate(1368,1368) scale(0.57,0.57)"><g transform="" style="fill: rgb(20, 23, 56);">
<rect width="100" height="100"/>
</g></g><g transform="translate(1425,1368) scale(0.57,0.57)"><g transform="" style="fill: rgb(20, 23, 56);">
<rect width="100" height="100"/>
</g></g><g transform="translate(1482,1368) scale(0.57,0.57)"><g transform="" style="fill: rgb(20, 23, 56);">
<rect width="100" height="100"/>
</g></g><g transform="translate(1539,1368) scale(0.57,0.57)"><g transform="" style="fill: rgb(20, 23, 56);">
<rect width="100" height="100"/>
</g></g><g transform="translate(1596,1368) scale(0.114,0.114)"><g transform="" style="fill: rgb(20, 23, 56);">
<g>
	<path d="M0,0v500h500C500,223.853,276.142,0,0,0z"/>
</g>
</g></g><g transform="translate(1767,1368) scale(0.114,0.114)"><g transform="" style="fill: rgb(20, 23, 56);">
<path d="M0,250C0,191.729,0,0,0,0s170.201,0,250,0c62.324,0,250,0,250,0s0,174.261,0,250c0,138.064-111.936,250-250,250
	C111.929,500,0,388.064,0,250z"/>
</g></g><g transform="translate(456,1425) scale(0.114,0.114)"><g transform="" style="fill: rgb(20, 23, 56);">
<g>
	<path d="M0,500h500V0C223.861,0.001,0,223.854,0,500z"/>
</g>
</g></g><g transform="translate(513,1425) scale(0.57,0.57)"><g transform="" style="fill: rgb(20, 23, 56);">
<rect width="100" height="100"/>
</g></g><g transform="translate(570,1425) scale(0.114,0.114)"><g transform="" style="fill: rgb(20, 23, 56);">
<g>
	<path d="M500,0H0v500C276.142,500,500,276.142,500,0z"/>
</g>
</g></g><g transform="translate(741,1425) scale(0.114,0.114)"><g transform="" style="fill: rgb(20, 23, 56);">
<path d="M500,250c0,58.266,0,250,0,250s-170.194,0-250-0.012c-62.324,0.012-250,0-250,0s0-174.241,0-249.994
	C0.006,111.931,111.929,0,249.994,0C388.064,0,500,111.93,500,250z"/>
</g></g><g transform="translate(855,1425) scale(0.57,0.57)"><g transform="" style="fill: rgb(20, 23, 56);">
<rect width="100" height="100"/>
</g></g><g transform="translate(912,1425) scale(0.57,0.57)"><g transform="" style="fill: rgb(20, 23, 56);">
<rect width="100" height="100"/>
</g></g><g transform="translate(969,1425) scale(0.57,0.57)"><g transform="" style="fill: rgb(20, 23, 56);">
<rect width="100" height="100"/>
</g></g><g transform="translate(1026,1425) scale(0.114,0.114)"><g transform="" style="fill: rgb(20, 23, 56);">
<g>
	<path d="M0,0v500h500C500,223.853,276.142,0,0,0z"/>
</g>
</g></g><g transform="translate(1140,1425) scale(0.114,0.114)"><g transform="" style="fill: rgb(20, 23, 56);">
<g>
	<path d="M500,500V0H0C0.001,276.142,223.853,500,500,500z"/>
</g>
</g></g><g transform="translate(1197,1425) scale(0.114,0.114)"><g transform="" style="fill: rgb(20, 23, 56);">
<g>
	<path d="M500,0H0v500C276.142,500,500,276.142,500,0z"/>
</g>
</g></g><g transform="translate(1311,1425) scale(0.114,0.114)"><g transform="" style="fill: rgb(20, 23, 56);">
<g>
	<path d="M500,500V0H0C0.001,276.142,223.853,500,500,500z"/>
</g>
</g></g><g transform="translate(1368,1425) scale(0.57,0.57)"><g transform="" style="fill: rgb(20, 23, 56);">
<rect width="100" height="100"/>
</g></g><g transform="translate(1596,1425) scale(0.57,0.57)"><g transform="" style="fill: rgb(20, 23, 56);">
<rect width="100" height="100"/>
</g></g><g transform="translate(1710,1425) scale(0.114,0.114)"><g transform="" style="fill: rgb(20, 23, 56);">
<path d="M250,0c138.077,0,250,111.93,250,250c0,138.077-111.923,250-250,250C111.93,500,0,388.077,0,250C0,111.93,111.93,0,250,0z"
	/>
</g></g><g transform="translate(456,1482) scale(0.114,0.114)"><g transform="" style="fill: rgb(20, 23, 56);">
<g>
	<path d="M500,500V0H0C0.001,276.142,223.853,500,500,500z"/>
</g>
</g></g><g transform="translate(513,1482) scale(0.114,0.114)"><g transform="" style="fill: rgb(20, 23, 56);">
<g>
	<path d="M500,0H0v500C276.142,500,500,276.142,500,0z"/>
</g>
</g></g><g transform="translate(684,1482) scale(0.114,0.114)"><g transform="" style="fill: rgb(20, 23, 56);">
<g>
	<path d="M0,500h500V0C223.861,0.001,0,223.854,0,500z"/>
</g>
</g></g><g transform="translate(741,1482) scale(0.57,0.57)"><g transform="" style="fill: rgb(20, 23, 56);">
<rect width="100" height="100"/>
</g></g><g transform="translate(798,1482) scale(0.57,0.57)"><g transform="" style="fill: rgb(20, 23, 56);">
<rect width="100" height="100"/>
</g></g><g transform="translate(855,1482) scale(0.57,0.57)"><g transform="" style="fill: rgb(20, 23, 56);">
<rect width="100" height="100"/>
</g></g><g transform="translate(912,1482) scale(0.114,0.114)"><g transform="" style="fill: rgb(20, 23, 56);">
<g>
	<path d="M500,0H0v500C276.142,500,500,276.142,500,0z"/>
</g>
</g></g><g transform="translate(1026,1482) scale(0.114,0.114)"><g transform="" style="fill: rgb(20, 23, 56);">
<path d="M0,250C0,191.729,0,0,0,0s170.201,0,250,0c62.324,0,250,0,250,0s0,174.261,0,250c0,138.064-111.936,250-250,250
	C111.929,500,0,388.064,0,250z"/>
</g></g><g transform="translate(1368,1482) scale(0.57,0.57)"><g transform="" style="fill: rgb(20, 23, 56);">
<rect width="100" height="100"/>
</g></g><g transform="translate(1482,1482) scale(0.114,0.114)"><g transform="" style="fill: rgb(20, 23, 56);">
<path d="M250,0c138.077,0,250,111.93,250,250c0,138.077-111.923,250-250,250C111.93,500,0,388.077,0,250C0,111.93,111.93,0,250,0z"
	/>
</g></g><g transform="translate(1596,1482) scale(0.57,0.57)"><g transform="" style="fill: rgb(20, 23, 56);">
<rect width="100" height="100"/>
</g></g><g transform="translate(1653,1482) scale(0.114,0.114)"><g transform="" style="fill: rgb(20, 23, 56);">
<path d="M250,500c-58.271,0-250,0-250,0s0-170.207,0-250C0,187.676,0,0,0,0s174.261,0,250,0c138.064,0,250,111.929,250,250
	C500,388.064,388.064,500,250,500z"/>
</g></g><g transform="translate(1767,1482) scale(0.114,0.114)"><g transform="" style="fill: rgb(20, 23, 56);">
<path d="M500,250c0,58.266,0,250,0,250s-170.194,0-250-0.012c-62.324,0.012-250,0-250,0s0-174.241,0-249.994
	C0.006,111.931,111.929,0,249.994,0C388.064,0,500,111.93,500,250z"/>
</g></g><g transform="translate(627,1539) scale(0.114,0.114)"><g transform="" style="fill: rgb(20, 23, 56);">
<g>
	<path d="M0,500h500V0C223.861,0.001,0,223.854,0,500z"/>
</g>
</g></g><g transform="translate(684,1539) scale(0.57,0.57)"><g transform="" style="fill: rgb(20, 23, 56);">
<rect width="100" height="100"/>
</g></g><g transform="translate(741,1539) scale(0.114,0.114)"><g transform="" style="fill: rgb(20, 23, 56);">
<g>
	<path d="M500,0H0v500C276.142,500,500,276.142,500,0z"/>
</g>
</g></g><g transform="translate(855,1539) scale(0.114,0.114)"><g transform="" style="fill: rgb(20, 23, 56);">
<path d="M0,250C0,191.729,0,0,0,0s170.201,0,250,0c62.324,0,250,0,250,0s0,174.261,0,250c0,138.064-111.936,250-250,250
	C111.929,500,0,388.064,0,250z"/>
</g></g><g transform="translate(1083,1539) scale(0.114,0.114)"><g transform="" style="fill: rgb(20, 23, 56);">
<path d="M250,0c58.27,0,250,0,250,0s0,170.182,0,250c0,62.305,0,250,0,250s-174.219,0-250,0
	C111.881,500,0,388.021,0,250C0,111.963,111.881,0,250,0z"/>
</g></g><g transform="translate(1140,1539) scale(0.114,0.114)"><g transform="" style="fill: rgb(20, 23, 56);">
<path d="M250,500c-58.271,0-250,0-250,0s0-170.207,0-250C0,187.676,0,0,0,0s174.261,0,250,0c138.064,0,250,111.929,250,250
	C500,388.064,388.064,500,250,500z"/>
</g></g><g transform="translate(1254,1539) scale(0.114,0.114)"><g transform="" style="fill: rgb(20, 23, 56);">
<path d="M500,250c0,58.266,0,250,0,250s-170.194,0-250-0.012c-62.324,0.012-250,0-250,0s0-174.241,0-249.994
	C0.006,111.931,111.929,0,249.994,0C388.064,0,500,111.93,500,250z"/>
</g></g><g transform="translate(1368,1539) scale(0.57,0.57)"><g transform="" style="fill: rgb(20, 23, 56);">
<rect width="100" height="100"/>
</g></g><g transform="translate(1596,1539) scale(0.57,0.57)"><g transform="" style="fill: rgb(20, 23, 56);">
<rect width="100" height="100"/>
</g></g><g transform="translate(1767,1539) scale(0.114,0.114)"><g transform="" style="fill: rgb(20, 23, 56);">
<g>
	<path d="M500,500V0H0C0.001,276.142,223.853,500,500,500z"/>
</g>
</g></g><g transform="translate(1824,1539) scale(0.114,0.114)"><g transform="" style="fill: rgb(20, 23, 56);">
<path d="M250,500c-58.271,0-250,0-250,0s0-170.207,0-250C0,187.676,0,0,0,0s174.261,0,250,0c138.064,0,250,111.929,250,250
	C500,388.064,388.064,500,250,500z"/>
</g></g><g transform="translate(456,1596) scale(0.114,0.114)"><g transform="" style="fill: rgb(20, 23, 56);">
<path d="M250,0c58.27,0,250,0,250,0s0,170.182,0,250c0,62.305,0,250,0,250s-174.219,0-250,0
	C111.881,500,0,388.021,0,250C0,111.963,111.881,0,250,0z"/>
</g></g><g transform="translate(513,1596) scale(0.57,0.57)"><g transform="" style="fill: rgb(20, 23, 56);">
<rect width="100" height="100"/>
</g></g><g transform="translate(570,1596) scale(0.57,0.57)"><g transform="" style="fill: rgb(20, 23, 56);">
<rect width="100" height="100"/>
</g></g><g transform="translate(627,1596) scale(0.114,0.114)"><g transform="" style="fill: rgb(20, 23, 56);">
<g>
	<path d="M500,0H0v500C276.142,500,500,276.142,500,0z"/>
</g>
</g></g><g transform="translate(798,1596) scale(0.114,0.114)"><g transform="" style="fill: rgb(20, 23, 56);">
<path d="M250,0c138.077,0,250,111.93,250,250c0,138.077-111.923,250-250,250C111.93,500,0,388.077,0,250C0,111.93,111.93,0,250,0z"
	/>
</g></g><g transform="translate(912,1596) scale(0.114,0.114)"><g transform="" style="fill: rgb(20, 23, 56);">
<path d="M250,0c138.077,0,250,111.93,250,250c0,138.077-111.923,250-250,250C111.93,500,0,388.077,0,250C0,111.93,111.93,0,250,0z"
	/>
</g></g><g transform="translate(1254,1596) scale(0.114,0.114)"><g transform="" style="fill: rgb(20, 23, 56);">
<path d="M0,250C0,191.729,0,0,0,0s170.201,0,250,0c62.324,0,250,0,250,0s0,174.261,0,250c0,138.064-111.936,250-250,250
	C111.929,500,0,388.064,0,250z"/>
</g></g><g transform="translate(1368,1596) scale(0.114,0.114)"><g transform="" style="fill: rgb(20, 23, 56);">
<g>
	<path d="M500,500V0H0C0.001,276.142,223.853,500,500,500z"/>
</g>
</g></g><g transform="translate(1425,1596) scale(0.57,0.57)"><g transform="" style="fill: rgb(20, 23, 56);">
<rect width="100" height="100"/>
</g></g><g transform="translate(1482,1596) scale(0.57,0.57)"><g transform="" style="fill: rgb(20, 23, 56);">
<rect width="100" height="100"/>
</g></g><g transform="translate(1539,1596) scale(0.57,0.57)"><g transform="" style="fill: rgb(20, 23, 56);">
<rect width="100" height="100"/>
</g></g><g transform="translate(1596,1596) scale(0.57,0.57)"><g transform="" style="fill: rgb(20, 23, 56);">
<rect width="100" height="100"/>
</g></g><g transform="translate(1653,1596) scale(0.114,0.114)"><g transform="" style="fill: rgb(20, 23, 56);">
<g>
	<path d="M0,0v500h500C500,223.853,276.142,0,0,0z"/>
</g>
</g></g><g transform="translate(513,1653) scale(0.114,0.114)"><g transform="" style="fill: rgb(20, 23, 56);">
<g>
	<path d="M500,500V0H0C0.001,276.142,223.853,500,500,500z"/>
</g>
</g></g><g transform="translate(570,1653) scale(0.114,0.114)"><g transform="" style="fill: rgb(20, 23, 56);">
<g>
	<path d="M500,0H0v500C276.142,500,500,276.142,500,0z"/>
</g>
</g></g><g transform="translate(741,1653) scale(0.114,0.114)"><g transform="" style="fill: rgb(20, 23, 56);">
<path d="M250,0c138.077,0,250,111.93,250,250c0,138.077-111.923,250-250,250C111.93,500,0,388.077,0,250C0,111.93,111.93,0,250,0z"
	/>
</g></g><g transform="translate(1026,1653) scale(0.114,0.114)"><g transform="" style="fill: rgb(20, 23, 56);">
<g>
	<path d="M0,500h500V0C223.861,0.001,0,223.854,0,500z"/>
</g>
</g></g><g transform="translate(1083,1653) scale(0.57,0.57)"><g transform="" style="fill: rgb(20, 23, 56);">
<rect width="100" height="100"/>
</g></g><g transform="translate(1140,1653) scale(0.57,0.57)"><g transform="" style="fill: rgb(20, 23, 56);">
<rect width="100" height="100"/>
</g></g><g transform="translate(1197,1653) scale(0.114,0.114)"><g transform="" style="fill: rgb(20, 23, 56);">
<path d="M250,500c-58.271,0-250,0-250,0s0-170.207,0-250C0,187.676,0,0,0,0s174.261,0,250,0c138.064,0,250,111.929,250,250
	C500,388.064,388.064,500,250,500z"/>
</g></g><g transform="translate(1311,1653) scale(0.114,0.114)"><g transform="" style="fill: rgb(20, 23, 56);">
<path d="M250,0c138.077,0,250,111.93,250,250c0,138.077-111.923,250-250,250C111.93,500,0,388.077,0,250C0,111.93,111.93,0,250,0z"
	/>
</g></g><g transform="translate(1482,1653) scale(0.57,0.57)"><g transform="" style="fill: rgb(20, 23, 56);">
<rect width="100" height="100"/>
</g></g><g transform="translate(1539,1653) scale(0.57,0.57)"><g transform="" style="fill: rgb(20, 23, 56);">
<rect width="100" height="100"/>
</g></g><g transform="translate(1596,1653) scale(0.57,0.57)"><g transform="" style="fill: rgb(20, 23, 56);">
<rect width="100" height="100"/>
</g></g><g transform="translate(1653,1653) scale(0.57,0.57)"><g transform="" style="fill: rgb(20, 23, 56);">
<rect width="100" height="100"/>
</g></g><g transform="translate(1710,1653) scale(0.57,0.57)"><g transform="" style="fill: rgb(20, 23, 56);">
<rect width="100" height="100"/>
</g></g><g transform="translate(1767,1653) scale(0.114,0.114)"><g transform="" style="fill: rgb(20, 23, 56);">
<path d="M250,500c-58.271,0-250,0-250,0s0-170.207,0-250C0,187.676,0,0,0,0s174.261,0,250,0c138.064,0,250,111.929,250,250
	C500,388.064,388.064,500,250,500z"/>
</g></g><g transform="translate(855,1710) scale(0.114,0.114)"><g transform="" style="fill: rgb(20, 23, 56);">
<path d="M500,250c0,58.266,0,250,0,250s-170.194,0-250-0.012c-62.324,0.012-250,0-250,0s0-174.241,0-249.994
	C0.006,111.931,111.929,0,249.994,0C388.064,0,500,111.93,500,250z"/>
</g></g><g transform="translate(969,1710) scale(0.114,0.114)"><g transform="" style="fill: rgb(20, 23, 56);">
<g>
	<path d="M0,500h500V0C223.861,0.001,0,223.854,0,500z"/>
</g>
</g></g><g transform="translate(1026,1710) scale(0.57,0.57)"><g transform="" style="fill: rgb(20, 23, 56);">
<rect width="100" height="100"/>
</g></g><g transform="translate(1140,1710) scale(0.114,0.114)"><g transform="" style="fill: rgb(20, 23, 56);">
<path d="M0,250C0,191.729,0,0,0,0s170.201,0,250,0c62.324,0,250,0,250,0s0,174.261,0,250c0,138.064-111.936,250-250,250
	C111.929,500,0,388.064,0,250z"/>
</g></g><g transform="translate(1425,1710) scale(0.114,0.114)"><g transform="" style="fill: rgb(20, 23, 56);">
<g>
	<path d="M0,500h500V0C223.861,0.001,0,223.854,0,500z"/>
</g>
</g></g><g transform="translate(1482,1710) scale(0.57,0.57)"><g transform="" style="fill: rgb(20, 23, 56);">
<rect width="100" height="100"/>
</g></g><g transform="translate(1539,1710) scale(0.57,0.57)"><g transform="" style="fill: rgb(20, 23, 56);">
<rect width="100" height="100"/>
</g></g><g transform="translate(1596,1710) scale(0.114,0.114)"><g transform="" style="fill: rgb(20, 23, 56);">
<g>
	<path d="M500,0H0v500C276.142,500,500,276.142,500,0z"/>
</g>
</g></g><g transform="translate(513,1767) scale(0.114,0.114)"><g transform="" style="fill: rgb(20, 23, 56);">
<g>
	<path d="M0,500h500V0C223.861,0.001,0,223.854,0,500z"/>
</g>
</g></g><g transform="translate(570,1767) scale(0.57,0.57)"><g transform="" style="fill: rgb(20, 23, 56);">
<rect width="100" height="100"/>
</g></g><g transform="translate(627,1767) scale(0.114,0.114)"><g transform="" style="fill: rgb(20, 23, 56);">
<g>
	<path d="M0,0v500h500C500,223.853,276.142,0,0,0z"/>
</g>
</g></g><g transform="translate(741,1767) scale(0.114,0.114)"><g transform="" style="fill: rgb(20, 23, 56);">
<g>
	<path d="M0,500h500V0C223.861,0.001,0,223.854,0,500z"/>
</g>
</g></g><g transform="translate(798,1767) scale(0.57,0.57)"><g transform="" style="fill: rgb(20, 23, 56);">
<rect width="100" height="100"/>
</g></g><g transform="translate(855,1767) scale(0.57,0.57)"><g transform="" style="fill: rgb(20, 23, 56);">
<rect width="100" height="100"/>
</g></g><g transform="translate(912,1767) scale(0.57,0.57)"><g transform="" style="fill: rgb(20, 23, 56);">
<rect width="100" height="100"/>
</g></g><g transform="translate(969,1767) scale(0.57,0.57)"><g transform="" style="fill: rgb(20, 23, 56);">
<rect width="100" height="100"/>
</g></g><g transform="translate(1026,1767) scale(0.114,0.114)"><g transform="" style="fill: rgb(20, 23, 56);">
<g>
	<path d="M500,0H0v500C276.142,500,500,276.142,500,0z"/>
</g>
</g></g><g transform="translate(1197,1767) scale(0.114,0.114)"><g transform="" style="fill: rgb(20, 23, 56);">
<path d="M500,250c0,58.266,0,250,0,250s-170.194,0-250-0.012c-62.324,0.012-250,0-250,0s0-174.241,0-249.994
	C0.006,111.931,111.929,0,249.994,0C388.064,0,500,111.93,500,250z"/>
</g></g><g transform="translate(1311,1767) scale(0.114,0.114)"><g transform="" style="fill: rgb(20, 23, 56);">
<g>
	<path d="M0,500h500V0C223.861,0.001,0,223.854,0,500z"/>
</g>
</g></g><g transform="translate(1368,1767) scale(0.57,0.57)"><g transform="" style="fill: rgb(20, 23, 56);">
<rect width="100" height="100"/>
</g></g><g transform="translate(1425,1767) scale(0.57,0.57)"><g transform="" style="fill: rgb(20, 23, 56);">
<rect width="100" height="100"/>
</g></g><g transform="translate(1482,1767) scale(0.114,0.114)"><g transform="" style="fill: rgb(20, 23, 56);">
<g>
	<path d="M500,0H0v500C276.142,500,500,276.142,500,0z"/>
</g>
</g></g><g transform="translate(1653,1767) scale(0.114,0.114)"><g transform="" style="fill: rgb(20, 23, 56);">
<path d="M250,0c138.077,0,250,111.93,250,250c0,138.077-111.923,250-250,250C111.93,500,0,388.077,0,250C0,111.93,111.93,0,250,0z"
	/>
</g></g><g transform="translate(456,1824) scale(0.114,0.114)"><g transform="" style="fill: rgb(20, 23, 56);">
<path d="M250,0c58.27,0,250,0,250,0s0,170.182,0,250c0,62.305,0,250,0,250s-174.219,0-250,0
	C111.881,500,0,388.021,0,250C0,111.963,111.881,0,250,0z"/>
</g></g><g transform="translate(513,1824) scale(0.114,0.114)"><g transform="" style="fill: rgb(20, 23, 56);">
<g>
	<path d="M500,0H0v500C276.142,500,500,276.142,500,0z"/>
</g>
</g></g><g transform="translate(627,1824) scale(0.114,0.114)"><g transform="" style="fill: rgb(20, 23, 56);">
<path d="M0,250C0,191.729,0,0,0,0s170.201,0,250,0c62.324,0,250,0,250,0s0,174.261,0,250c0,138.064-111.936,250-250,250
	C111.929,500,0,388.064,0,250z"/>
</g></g><g transform="translate(741,1824) scale(0.114,0.114)"><g transform="" style="fill: rgb(20, 23, 56);">
<path d="M0,250C0,191.729,0,0,0,0s170.201,0,250,0c62.324,0,250,0,250,0s0,174.261,0,250c0,138.064-111.936,250-250,250
	C111.929,500,0,388.064,0,250z"/>
</g></g><g transform="translate(969,1824) scale(0.114,0.114)"><g transform="" style="fill: rgb(20, 23, 56);">
<path d="M0,250C0,191.729,0,0,0,0s170.201,0,250,0c62.324,0,250,0,250,0s0,174.261,0,250c0,138.064-111.936,250-250,250
	C111.929,500,0,388.064,0,250z"/>
</g></g><g transform="translate(1083,1824) scale(0.114,0.114)"><g transform="" style="fill: rgb(20, 23, 56);">
<path d="M250,0c58.27,0,250,0,250,0s0,170.182,0,250c0,62.305,0,250,0,250s-174.219,0-250,0
	C111.881,500,0,388.021,0,250C0,111.963,111.881,0,250,0z"/>
</g></g><g transform="translate(1140,1824) scale(0.57,0.57)"><g transform="" style="fill: rgb(20, 23, 56);">
<rect width="100" height="100"/>
</g></g><g transform="translate(1197,1824) scale(0.57,0.57)"><g transform="" style="fill: rgb(20, 23, 56);">
<rect width="100" height="100"/>
</g></g><g transform="translate(1254,1824) scale(0.57,0.57)"><g transform="" style="fill: rgb(20, 23, 56);">
<rect width="100" height="100"/>
</g></g><g transform="translate(1311,1824) scale(0.57,0.57)"><g transform="" style="fill: rgb(20, 23, 56);">
<rect width="100" height="100"/>
</g></g><g transform="translate(1368,1824) scale(0.114,0.114)"><g transform="" style="fill: rgb(20, 23, 56);">
<g>
	<path d="M500,0H0v500C276.142,500,500,276.142,500,0z"/>
</g>
</g></g><g transform="translate(1824,1824) scale(0.114,0.114)"><g transform="" style="fill: rgb(20, 23, 56);">
<path d="M250,0c138.077,0,250,111.93,250,250c0,138.077-111.923,250-250,250C111.93,500,0,388.077,0,250C0,111.93,111.93,0,250,0z"
	/>
</g></g><g transform="translate(0,0) scale(3.99, 3.99)"><g transform="" style="fill: rgb(20, 23, 56);">
<g>
	<path style="fill:none;" d="M65.859,15.008H34.141c-4.082,0-7.869,1.258-10.979,3.398c-2.419,1.665-4.428,3.864-5.848,6.421
		C15.838,27.484,15,30.526,15,33.758v32.471c0,10.344,8.586,18.76,19.145,18.76L50,84.992l15.855-0.004
		C76.414,84.988,85,76.572,85,66.229V33.758C85,23.419,76.414,15.008,65.859,15.008z"/>
	<path d="M65.859,0.008H34.141h0C18.683,0.008,5.587,10.221,1.4,24.18c-0.433,1.444-0.771,2.928-1.006,4.445
		C0.135,30.299,0,32.013,0,33.758v32.471c0,18.619,15.32,33.76,34.141,33.76L50,99.992l15.859-0.004
		c18.82,0,34.141-15.141,34.141-33.76V33.758C100,15.148,84.68,0.008,65.859,0.008z M85,66.229c0,10.344-8.586,18.76-19.145,18.76
		L50,84.992l-15.855-0.004C23.586,84.988,15,76.572,15,66.229V33.758c0-3.231,0.838-6.273,2.313-8.931
		c1.42-2.557,3.429-4.756,5.848-6.421c3.11-2.141,6.897-3.398,10.979-3.398h31.719C76.414,15.008,85,23.419,85,33.758V66.229z"/>
</g>
</g></g><g transform="translate(1482,0) scale(3.99, 3.99)"><g transform="" style="fill: rgb(20, 23, 56);">
<g>
	<path style="fill:none;" d="M65.859,15.008H34.141c-4.082,0-7.869,1.258-10.979,3.398c-2.419,1.665-4.428,3.864-5.848,6.421
		C15.838,27.484,15,30.526,15,33.758v32.471c0,10.344,8.586,18.76,19.145,18.76L50,84.992l15.855-0.004
		C76.414,84.988,85,76.572,85,66.229V33.758C85,23.419,76.414,15.008,65.859,15.008z"/>
	<path d="M65.859,0.008H34.141h0C18.683,0.008,5.587,10.221,1.4,24.18c-0.433,1.444-0.771,2.928-1.006,4.445
		C0.135,30.299,0,32.013,0,33.758v32.471c0,18.619,15.32,33.76,34.141,33.76L50,99.992l15.859-0.004
		c18.82,0,34.141-15.141,34.141-33.76V33.758C100,15.148,84.68,0.008,65.859,0.008z M85,66.229c0,10.344-8.586,18.76-19.145,18.76
		L50,84.992l-15.855-0.004C23.586,84.988,15,76.572,15,66.229V33.758c0-3.231,0.838-6.273,2.313-8.931
		c1.42-2.557,3.429-4.756,5.848-6.421c3.11-2.141,6.897-3.398,10.979-3.398h31.719C76.414,15.008,85,23.419,85,33.758V66.229z"/>
</g>
</g></g><g transform="translate(0,1482) scale(3.99, 3.99)"><g transform="" style="fill: rgb(20, 23, 56);">
<g>
	<path style="fill:none;" d="M65.859,15.008H34.141c-4.082,0-7.869,1.258-10.979,3.398c-2.419,1.665-4.428,3.864-5.848,6.421
		C15.838,27.484,15,30.526,15,33.758v32.471c0,10.344,8.586,18.76,19.145,18.76L50,84.992l15.855-0.004
		C76.414,84.988,85,76.572,85,66.229V33.758C85,23.419,76.414,15.008,65.859,15.008z"/>
	<path d="M65.859,0.008H34.141h0C18.683,0.008,5.587,10.221,1.4,24.18c-0.433,1.444-0.771,2.928-1.006,4.445
		C0.135,30.299,0,32.013,0,33.758v32.471c0,18.619,15.32,33.76,34.141,33.76L50,99.992l15.859-0.004
		c18.82,0,34.141-15.141,34.141-33.76V33.758C100,15.148,84.68,0.008,65.859,0.008z M85,66.229c0,10.344-8.586,18.76-19.145,18.76
		L50,84.992l-15.855-0.004C23.586,84.988,15,76.572,15,66.229V33.758c0-3.231,0.838-6.273,2.313-8.931
		c1.42-2.557,3.429-4.756,5.848-6.421c3.11-2.141,6.897-3.398,10.979-3.398h31.719C76.414,15.008,85,23.419,85,33.758V66.229z"/>
</g>
</g></g><g transform="translate(114,114) scale(1.71, 1.71)"><g transform="" style="fill: rgb(20, 23, 56);">
<g>
	<g id="XMLID_1_">
		<g>
			<path d="M27.351,100c-15.09,0-27.365-12.032-27.365-26.808V26.794c0-4.616,1.2-8.96,3.301-12.761
				c2.029-3.658,4.901-6.802,8.36-9.174C16.09,1.801,21.506,0,27.336,0h45.327c15.076,0,27.351,12.018,27.351,26.793v46.398
				c0,14.775-12.274,26.808-27.351,26.808H50H27.351z"/>
		</g>
		<g>
		</g>
	</g>
</g>
</g></g><g transform="translate(1596,114) scale(1.71, 1.71)"><g transform="" style="fill: rgb(20, 23, 56);">
<g>
	<g id="XMLID_1_">
		<g>
			<path d="M27.351,100c-15.09,0-27.365-12.032-27.365-26.808V26.794c0-4.616,1.2-8.96,3.301-12.761
				c2.029-3.658,4.901-6.802,8.36-9.174C16.09,1.801,21.506,0,27.336,0h45.327c15.076,0,27.351,12.018,27.351,26.793v46.398
				c0,14.775-12.274,26.808-27.351,26.808H50H27.351z"/>
		</g>
		<g>
		</g>
	</g>
</g>
</g></g><g transform="translate(114,1596) scale(1.71, 1.71)"><g transform="" style="fill: rgb(20, 23, 56);">
<g>
	<g id="XMLID_1_">
		<g>
			<path d="M27.351,100c-15.09,0-27.365-12.032-27.365-26.808V26.794c0-4.616,1.2-8.96,3.301-12.761
				c2.029-3.658,4.901-6.802,8.36-9.174C16.09,1.801,21.506,0,27.336,0h45.327c15.076,0,27.351,12.018,27.351,26.793v46.398
				c0,14.775-12.274,26.808-27.351,26.808H50H27.351z"/>
		</g>
		<g>
		</g>
	</g>
</g>
</g></g></g></svg>